<?xml version="1.0" encoding="utf-8"?><svg xmlns="http://www.w3.org/2000/svg" xmlns:xlink="http://www.w3.org/1999/xlink"><symbol viewBox="0 0 10 7" id="doppler-icon-arrowgray"><path fill="#C8C4C1" d="M5 6.391c-.43 0-.85-.16-1.15-.43L.48 2.911c-.64-.58-.64-1.51 0-2.09.64-.57 1.67-.57 2.31 0L5 2.831 7.21.821c.64-.57 1.67-.57 2.31 0 .641.58.641 1.51 0 2.09l-3.37 3.05c-.3.269-.72.43-1.15.43z"/></symbol><symbol viewBox="0 0 10 7" id="doppler-icon-arroworange"><path fill="#E78224" d="M5 6.391c-.43 0-.85-.16-1.15-.43L.48 2.911c-.64-.58-.64-1.51 0-2.089.64-.57 1.67-.57 2.31 0L5 2.831 7.21.822c.64-.57 1.67-.57 2.31 0 .641.58.641 1.51 0 2.089l-3.37 3.05c-.3.269-.72.43-1.15.43z"/></symbol><symbol viewBox="0 0 24 24" id="doppler-icon-borrar-01"><path fill="#E78224" d="M20.546 23.945H3.705c-.567 0-1.026-.46-1.026-1.026V7.087a1.027 1.027 0 0 1-.843-1.01V2.71c0-.567.459-1.026 1.026-1.026h4.869v-.658C7.731.459 8.191 0 8.758 0h6.314c.567 0 1.026.459 1.026 1.026v.657h5.289c.566 0 1.026.459 1.026 1.026v3.37c0 .504-.363.923-.842 1.01v15.829a1.026 1.026 0 0 1-1.025 1.027zM4.731 21.893H19.52V6.08c0-.504.363-.922.842-1.01V3.736h-5.289a1.025 1.025 0 0 1-1.025-1.026v-.658H9.784v.658c0 .567-.459 1.026-1.026 1.026H3.889v1.332c.479.086.842.506.842 1.01v15.815z"/><path fill="#E78224" d="M15.222 3.736H8.609a1.026 1.026 0 1 1 0-2.052h6.612a1.026 1.026 0 0 1 .001 2.052zm1.367 19.821a.685.685 0 0 1-.685-.685V6.08a.685.685 0 0 1 1.369 0v16.792a.685.685 0 0 1-.684.685zm-4.464-.002a.685.685 0 0 1-.684-.685V6.08a.684.684 0 1 1 1.369 0v16.79a.685.685 0 0 1-.685.685zm-4.463 0a.685.685 0 0 1-.685-.685V6.08a.685.685 0 0 1 1.369 0v16.79a.685.685 0 0 1-.684.685z"/><path fill="#E78224" d="M20.546 6.764H3.705a.684.684 0 1 1 0-1.368h16.841a.685.685 0 1 1 0 1.368z"/></symbol><symbol viewBox="0 0 24 21.486" id="doppler-icon-computadora"><path fill="#E68123" d="M16.585 21.486H7.797a.923.923 0 1 1 0-1.846h3.28v-3.659H2.831C1.243 15.981 0 14.636 0 12.917V2.99C0 1.285 1.217 0 2.831 0h18.338C22.783 0 24 1.285 24 2.99v9.927c0 1.719-1.243 3.064-2.831 3.064h-7.482v3.659h2.898a.923.923 0 1 1 0 1.846zM2.831 1.847c-.681 0-.984.574-.984 1.144v9.927c0 .605.338 1.218.984 1.218h18.338c.646 0 .984-.612.984-1.218V2.99c0-.569-.304-1.144-.984-1.144H2.831z"/><path fill="#E68123" d="M3.784 5.933a.614.614 0 0 1-.429-1.056l1.987-1.944a.614.614 0 1 1 .86.879L4.215 5.757a.615.615 0 0 1-.431.176zm.345 3.248a.613.613 0 0 1-.433-1.051L8.28 3.581a.616.616 0 0 1 .867.874L4.562 9.003a.612.612 0 0 1-.433.178z"/></symbol><symbol viewBox="0 0 24 24" id="doppler-icon-confirmar"><g fill="#E78224"><path d="M12 0C5.383 0 0 5.384 0 12s5.383 12 12 12c6.616 0 12-5.384 12-12S18.616 0 12 0zm0 21.942c-5.482 0-9.943-4.46-9.943-9.942 0-5.481 4.46-9.942 9.943-9.942S21.942 6.519 21.942 12c0 5.482-4.46 9.942-9.942 9.942z"/><path d="M18.735 7.322a1.274 1.274 0 0 0-.906-.376c-.343 0-.664.134-.906.376l-6.637 6.637-3.208-3.208c-.242-.242-.564-.375-.906-.375s-.664.133-.906.375c-.5.5-.5 1.312 0 1.812l4.114 4.114a1.276 1.276 0 0 0 1.812 0l7.543-7.543a1.284 1.284 0 0 0 0-1.812z"/></g></symbol><symbol viewBox="0 0 24 24" id="doppler-icon-descargar-01"><path fill="#E78224" d="M12 0C5.383 0 0 5.384 0 12s5.383 12 12 12c6.616 0 12-5.384 12-12S18.616 0 12 0zm0 21.941c-5.482 0-9.943-4.459-9.943-9.941 0-5.481 4.46-9.942 9.943-9.942 5.482 0 9.941 4.461 9.941 9.942 0 5.482-4.459 9.941-9.941 9.941z"/><path fill="#E78224" d="M12 17.261a.783.783 0 0 1-.783-.782v-8.61a.784.784 0 0 1 1.566 0v8.61a.783.783 0 0 1-.783.782z"/><path fill="#E78224" d="M12 17.607a.783.783 0 0 1-.553-.229l-4.846-4.847a.782.782 0 1 1 1.106-1.107L12 15.718l4.293-4.294a.783.783 0 0 1 1.106 1.107l-4.847 4.847a.782.782 0 0 1-.552.229z"/></symbol><symbol viewBox="0 0 50 50" id="doppler-icon-dopplerRelayLogged"><path fill-rule="evenodd" clip-rule="evenodd" fill="#E88225" d="M0 25C0 11.19 11.19 0 25 0c13.811 0 25 11.19 25 25 0 13.811-11.189 25-25 25C11.19 50 0 38.811 0 25z"/><path d="M15.22 21.05c.2.69.74 1.23 1.42 1.44l5.07 1.56a2.109 2.109 0 0 0 2.64-1.44c.34-1.14-.29-2.34-1.41-2.69l-.85-.26c.8-.69 2.19-1.44 4.061-.83 3.09 1.06 2.93 4.31 2.93 4.31.02 2.24 2.949 3.469 4.57 2.07 1.07-.93 1.05-1.85 1.06-2.28 0 0-.101-7.29-6.8-9.52l-.011-.01h-.01c-4.621-1.54-8.111.74-9.831 2.31l-.32-1.07a2.111 2.111 0 0 0-2.64-1.44c-1.12.34-1.75 1.55-1.41 2.69l1.531 5.16zm17.87 7.809a2.156 2.156 0 0 0-1.42-1.439l-5.07-1.56a2.109 2.109 0 0 0-2.64 1.44c-.34 1.14.29 2.341 1.41 2.69l.851.26c-.801.689-2.191 1.439-4.061.83-3.09-1.061-2.93-4.311-2.93-4.311-.03-2.25-2.95-3.47-4.57-2.069-1.07.93-1.05 1.84-1.06 2.28 0 0 .1 7.289 6.8 9.52l.01.01h.01c4.62 1.54 8.109-.74 9.83-2.31l.32 1.069a2.11 2.11 0 0 0 2.64 1.44c1.12-.351 1.75-1.55 1.41-2.69l-1.53-5.16z" fill="#FFF"/><path fill-rule="evenodd" clip-rule="evenodd" fill="#E88225" d="M0 25C0 11.19 11.19 0 25 0c13.811 0 25 11.19 25 25 0 13.811-11.189 25-25 25C11.19 50 0 38.811 0 25z"/><path fill="#FFF" d="M15.22 21.05c.2.69.74 1.23 1.42 1.44l5.07 1.56a2.109 2.109 0 0 0 2.64-1.44c.34-1.14-.29-2.34-1.41-2.69l-.85-.26c.8-.69 2.19-1.44 4.061-.83 3.09 1.06 2.93 4.31 2.93 4.31.02 2.24 2.949 3.469 4.57 2.07 1.07-.93 1.05-1.85 1.06-2.28 0 0-.101-7.29-6.8-9.52l-.011-.01h-.01c-4.621-1.54-8.111.74-9.831 2.31l-.32-1.07a2.111 2.111 0 0 0-2.64-1.44c-1.12.34-1.75 1.55-1.41 2.69l1.531 5.16zm17.87 7.809a2.156 2.156 0 0 0-1.42-1.439l-5.07-1.56a2.109 2.109 0 0 0-2.64 1.44c-.34 1.14.29 2.341 1.41 2.69l.851.26c-.801.689-2.191 1.439-4.061.83-3.09-1.061-2.93-4.311-2.93-4.311-.03-2.25-2.95-3.47-4.57-2.069-1.07.93-1.05 1.84-1.06 2.28 0 0 .1 7.289 6.8 9.52l.01.01h.01c4.62 1.54 8.109-.74 9.83-2.31l.32 1.069a2.11 2.11 0 0 0 2.64 1.44c1.12-.351 1.75-1.55 1.41-2.69l-1.53-5.16z"/></symbol><symbol viewBox="0 0 200 28" id="doppler-icon-dopplerrelay"><path d="M3.565 8.957c.166.55.597.98 1.147 1.147l4.113 1.241a1.714 1.714 0 0 0 2.139-1.147 1.716 1.716 0 0 0-1.148-2.139l-.704-.212c.652-.549 1.769-1.143 3.283-.66 2.503.842 2.371 3.436 2.371 3.436.021 1.786 2.386 2.762 3.699 1.644.869-.738.851-1.467.864-1.814 0 0-.082-5.806-5.511-7.584l-.008-.002-.007-.002c-3.723-1.223-6.54.573-7.942 1.822l-.252-.834a1.715 1.715 0 1 0-3.285.99l1.241 4.114zm15.716 10.332l-1.241-4.112a1.717 1.717 0 0 0-1.147-1.147l-4.113-1.241a1.72 1.72 0 0 0-2.14 1.147 1.716 1.716 0 0 0 1.147 2.138l.668.201c-.65.553-1.772 1.158-3.297.672-2.504-.843-2.372-3.437-2.372-3.437-.021-1.785-2.386-2.762-3.699-1.643-.869.738-.852 1.467-.864 1.814 0 0 .08 5.805 5.51 7.584l.008.003.008.002c3.762 1.232 6.595-.61 7.982-1.859l.263.87a1.716 1.716 0 0 0 3.287-.992z" fill="#E78224"/><path fill="#312416" d="M27.912 3.833c0-1.286.895-2.152 2.152-2.152h4.64c6.261 0 9.839 4.025 9.839 10.229 0 5.87-3.801 9.67-9.559 9.67H30.12c-.921 0-2.208-.502-2.208-2.096V3.833zm4.192 13.892h2.824c3.604 0 5.254-2.655 5.254-6.009 0-3.578-1.677-6.177-5.535-6.177h-2.543v12.186zm28.174-3.55c0 4.192-2.879 7.742-7.212 7.742-4.332 0-7.211-3.55-7.211-7.742 0-4.081 2.963-7.798 7.211-7.798 4.249-.001 7.212 3.717 7.212 7.798zm-10.398 0c0 1.929 1.006 4.053 3.186 4.053 2.181 0 3.187-2.124 3.187-4.053s-.979-4.108-3.187-4.108c-2.207-.001-3.186 2.179-3.186 4.108zM61.982 8.78c0-1.341.838-2.235 2.012-2.235 1.118 0 1.76.614 2.013 1.676.753-1.23 2.319-1.845 3.828-1.845 4.333 0 6.484 4.053 6.484 7.966 0 3.802-2.571 7.575-6.624 7.575-1.258 0-2.627-.476-3.689-1.397v4.919c0 1.342-.839 2.236-2.013 2.236s-2.012-.895-2.012-2.236V8.78zm7.183 9.448c2.097 0 3.131-2.18 3.131-4.053 0-1.9-1.034-4.108-3.131-4.108-2.151 0-3.157 2.012-3.157 3.969 0 1.955.95 4.192 3.157 4.192zm8.86-9.448c0-1.341.839-2.235 2.012-2.235 1.118 0 1.76.614 2.013 1.676.754-1.23 2.319-1.845 3.829-1.845 4.332 0 6.485 4.053 6.485 7.966 0 3.802-2.572 7.575-6.625 7.575-1.257 0-2.627-.476-3.688-1.397v4.919c0 1.342-.839 2.236-2.013 2.236-1.173 0-2.012-.895-2.012-2.236V8.78zm7.183 9.448c2.096 0 3.13-2.18 3.13-4.053 0-1.9-1.034-4.108-3.13-4.108-2.153 0-3.158 2.012-3.158 3.969 0 1.955.95 4.192 3.158 4.192zm8.803-15.932c0-1.342.838-2.236 2.012-2.236s2.012.895 2.012 2.236v17.218c0 1.342-.838 2.235-2.012 2.235s-2.012-.894-2.012-2.235V2.296zm9.504 13.192c.279 1.984 1.928 2.907 3.801 2.907 2.068 0 3.493-1.621 4.556-1.621.866 0 1.649.866 1.649 1.732 0 1.733-3.578 3.41-6.569 3.41-4.527 0-7.546-3.298-7.546-7.742 0-4.081 2.963-7.798 7.211-7.798 4.359 0 7.238 3.969 7.238 7.323 0 1.201-.53 1.789-1.761 1.789h-8.579zm6.316-2.683c-.225-1.761-1.343-3.075-3.215-3.075-1.789 0-2.99 1.37-3.187 3.075h6.402zm5.393-4.248c0-1.342 1.062-2.012 2.068-2.012 1.063 0 1.956.391 1.956 1.676h.056c.756-1.118 1.565-1.676 2.824-1.676.979 0 1.955.698 1.955 2.152 0 1.314-1.201 1.397-2.402 1.956-1.202.559-2.433 1.091-2.433 2.684v6.177c0 1.342-.839 2.235-2.013 2.235-1.173 0-2.012-.894-2.012-2.235V8.557zm16.965-4.696c0-1.342.754-2.18 2.151-2.18h4.919c4.305 0 6.959 1.929 6.959 6.317 0 3.074-2.319 4.835-5.17 5.282l4.751 5.087c.393.42.56.839.56 1.23 0 1.09-.867 2.151-2.096 2.151-.504 0-1.175-.195-1.622-.727l-6.205-7.519h-.056v6.064c0 1.398-.895 2.181-2.096 2.181-1.203 0-2.096-.782-2.096-2.181V3.861zm4.192 6.624h2.879c1.537 0 2.6-.922 2.6-2.487 0-1.593-1.062-2.46-2.6-2.46h-2.879v4.947z"/><path fill="#E78224" d="M157.092 12.805c-.279-1.985-1.93-2.907-3.801-2.907-2.068 0-3.495 1.621-4.556 1.621-.867 0-1.649-.866-1.649-1.733 0-1.733 3.577-3.41 6.567-3.41 4.527 0 7.547 3.298 7.547 7.743 0 4.08-2.963 7.798-7.211 7.798-4.36 0-7.24-3.969-7.24-7.323 0-1.202.532-1.789 1.762-1.789h8.581zm-6.317 2.683c.223 1.761 1.34 3.074 3.214 3.074 1.789 0 2.991-1.368 3.186-3.074h-6.4z"/><path fill="#312416" d="M162.569 2.296c0-1.342.838-2.236 2.012-2.236s2.012.895 2.012 2.236v17.218c0 1.342-.838 2.235-2.012 2.235s-2.012-.894-2.012-2.235V2.296zm20.011 16.826c0 1.034 0 2.627-1.929 2.627-1.173 0-1.648-.643-1.928-1.705-1.034 1.231-2.293 1.873-3.83 1.873-3.773 0-6.651-3.215-6.651-7.742 0-4.416 2.962-7.798 6.651-7.798 1.481 0 2.935.587 3.83 1.845.111-.978.95-1.676 1.928-1.676 1.929 0 1.929 1.593 1.929 2.627v9.949zm-7.126-.894c2.096 0 3.101-2.124 3.101-4.053s-.978-4.108-3.101-4.108c-2.208 0-3.188 2.18-3.188 4.108s1.006 4.053 3.188 4.053zm8.411-8.917a2.809 2.809 0 0 1-.196-1.034c0-1.006 1.062-1.732 1.9-1.732.979 0 1.679.531 2.012 1.425l2.769 7.574 2.964-7.574c.335-.894 1.034-1.425 2.012-1.425.839 0 1.9.726 1.9 1.732 0 .419-.057.727-.196 1.034l-6.735 16.771c-.336.838-.951 1.593-1.901 1.593-1.369 0-2.097-.867-2.097-1.733 0-.391.112-.811.252-1.174l1.762-4.36-4.446-11.097z"/></symbol><symbol viewBox="0 0 285 185" id="doppler-icon-downloads-empty"><path d="M206.13 89.987a3.878 3.878 0 1 1 7.757 0 3.878 3.878 0 0 1-7.756 0zm-18 0a3.878 3.878 0 1 1 7.757 0 3.878 3.878 0 0 1-7.756 0zm-18 0a3.878 3.878 0 1 1 7.757 0 3.878 3.878 0 0 1-7.756 0z" fill="#e58223"/><path d="M164.12 84h51.835v-.142" stroke="#e68222" stroke-width="2" fill="none"/><path d="M239.048 1H8.49C4.587 1 1 4.59 1 8.465v145.139C1 157.478 4.593 160 8.49 160h230.558c3.904 0 6.952-2.677 6.952-6.552V8.308C246 4.434 242.946 1 239.048 1z" stroke="#e68222" stroke-width="2" fill="#fbede0"/><path d="M11.5 15.5h220v118h-220v-118z" stroke="#e68222" fill="#fdfbf8"/><path d="M148.5 183.5h-54v-23h54v23z" stroke="#e68222" stroke-width="3" fill="#f3c396"/><path d="M127.174 146.253a3.771 3.771 0 0 1-3.777 3.765 3.77 3.77 0 0 1-3.776-3.765 3.77 3.77 0 0 1 3.776-3.766 3.771 3.771 0 0 1 3.776 3.766z" fill="#e78528"/><path d="M171 180H76v4h95v-4zm-21.781-82.147a9.303 9.303 0 0 0-7.367 3.609l5.695 5.679-5.695 5.678a9.304 9.304 0 0 0 7.367 3.608c5.144 0 9.313-4.158 9.313-9.287 0-5.129-4.17-9.287-9.313-9.287z" stroke="#e68222" stroke-width="2" fill="#fbede0"/><path d="M20.27 98h36.092v-.147" stroke="#e68222" stroke-width="2" fill="none"/><path d="M56 97.853v22.706h.362m0 .441h165.322v-.442" stroke="#e68222" stroke-width="2" fill="none"/><path d="M83.287 106.8a3.554 3.554 0 0 1 3.558-3.548 3.553 3.553 0 0 1 3.559 3.548 3.553 3.553 0 0 1-3.559 3.549 3.554 3.554 0 0 1-3.558-3.549zm16.517 0a3.554 3.554 0 0 1 3.558-3.548 3.553 3.553 0 0 1 3.558 3.548 3.553 3.553 0 0 1-3.558 3.549 3.554 3.554 0 0 1-3.558-3.549zm-33.034 0a3.554 3.554 0 0 1 3.558-3.548 3.553 3.553 0 0 1 3.559 3.548 3.553 3.553 0 0 1-3.559 3.549 3.554 3.554 0 0 1-3.558-3.549zm0-38.43a3.554 3.554 0 0 1 3.558-3.548 3.553 3.553 0 0 1 3.559 3.549 3.553 3.553 0 0 1-3.559 3.548 3.554 3.554 0 0 1-3.558-3.548zm92.568 3.548a3.553 3.553 0 0 1-3.559-3.547 3.554 3.554 0 0 1 3.559-3.55 3.554 3.554 0 0 1 3.558 3.55 3.553 3.553 0 0 1-3.558 3.547zm0-16.47a3.553 3.553 0 0 1-3.559-3.547 3.554 3.554 0 0 1 3.559-3.55 3.554 3.554 0 0 1 3.558 3.55 3.553 3.553 0 0 1-3.558 3.547zm0-17.385a3.553 3.553 0 0 1-3.559-3.548 3.554 3.554 0 0 1 3.559-3.549 3.554 3.554 0 0 1 3.558 3.55 3.553 3.553 0 0 1-3.558 3.547zm0-15.555a3.553 3.553 0 0 1-3.559-3.548c0-1.96 7.117-1.96 7.117 0a3.553 3.553 0 0 1-3.558 3.548zm0 66.795a3.553 3.553 0 0 1-3.559-3.547 3.554 3.554 0 0 1 3.559-3.55 3.554 3.554 0 0 1 3.558 3.55 3.553 3.553 0 0 1-3.558 3.547zM66.77 85.755a3.554 3.554 0 0 1 3.558-3.548 3.553 3.553 0 0 1 3.559 3.549 3.553 3.553 0 0 1-3.559 3.548 3.553 3.553 0 0 1-3.558-3.549zm0-33.855a3.554 3.554 0 0 1 3.558-3.548 3.553 3.553 0 0 1 3.559 3.549 3.553 3.553 0 0 1-3.559 3.548A3.554 3.554 0 0 1 66.77 51.9zm0-17.385a3.554 3.554 0 0 1 3.558-3.548 3.553 3.553 0 0 1 3.559 3.548 3.553 3.553 0 0 1-3.559 3.549 3.554 3.554 0 0 1-3.558-3.549zm0-15.555c0-1.96 7.117-1.96 7.117 0a3.553 3.553 0 0 1-3.559 3.549 3.554 3.554 0 0 1-3.558-3.549zm-15.6 66.795a3.553 3.553 0 0 1 3.56-3.548 3.553 3.553 0 0 1 3.558 3.549 3.553 3.553 0 0 1-3.559 3.548 3.553 3.553 0 0 1-3.558-3.549zm-33.95 0a3.553 3.553 0 0 1 3.558-3.548 3.553 3.553 0 0 1 3.558 3.549 3.553 3.553 0 0 1-3.558 3.548 3.553 3.553 0 0 1-3.559-3.549zm18.351 0a3.554 3.554 0 0 1 3.559-3.548 3.553 3.553 0 0 1 3.558 3.549 3.553 3.553 0 0 1-3.558 3.548 3.553 3.553 0 0 1-3.559-3.549z" fill="#e58223"/><path d="M19.972 71H56.63v.15m.37-.023v-49.41h-.444M84 72.042v-49.41h.084" stroke="#e68222" stroke-width="2" fill="none"/><path d="M84 71.15v20.892h.158M84.96 92h60.563v.043M146 21.587v70.456h-.477M173 21.587v70.456h.202" stroke="#e68222" stroke-width="2" fill="none"/><path d="M126.556 97.258c-4.625 0-8.556 3.738-8.556 8.349v8.35s0 2.386 1.196 2.386 1.267-2.386 2.463-2.386c1.197 0 1.197 2.386 2.393 2.386 1.196 0 1.196-2.386 2.392-2.386s1.196 2.386 2.392 2.386 1.196-2.386 2.393-2.386c1.196 0 1.379 2.386 2.575 2.386 1.196 0 1.196-2.386 1.196-2.386v-8.35c0-4.611-3.82-8.349-8.444-8.349z" fill="#e68222"/><path d="M121.363 106.086a1.792 1.792 0 0 1-1.795-1.788c0-.99.804-1.79 1.795-1.79.99 0 1.794.8 1.794 1.79 0 .987-.803 1.788-1.794 1.788zm4.643 0a1.79 1.79 0 0 1-1.794-1.788c0-.99.803-1.79 1.794-1.79s1.794.8 1.794 1.79c0 .987-.803 1.788-1.794 1.788z" fill="#fff"/><path d="M283.5 183.5v-16.065c0-26.925-27.07-48.39-60.844-48.39S161.5 140.876 161.5 167.802V183.5h122z" stroke="#e78528" stroke-width="3" fill="#efaf71"/><path d="M246.668 122.947c-7.37-2.51-15.483-3.902-24.005-3.902-9.694 0-18.86 1.802-27.003 5.003 5.53 7.94 14.726 13.14 25.139 13.14 10.885 0 20.44-5.681 25.869-14.24z" stroke="#e78528" stroke-width="2" fill="#fbeddf"/><path d="M270.054 80.068c-.099 0-.195.011-.293.015.068-1.054.113-2.111.113-3.183 0-27.323-22.15-49.472-49.473-49.472-27.322 0-49.471 22.15-49.471 49.472 0 1.072.045 2.13.113 3.181-.092-.002-.18-.013-.273-.013a6.502 6.502 0 0 0 0 13.003 6.44 6.44 0 0 0 2.68-.582c6.532 19.682 25.077 33.885 46.951 33.885 21.878 0 40.426-14.207 46.954-33.893a6.5 6.5 0 0 0 9.2-5.91 6.502 6.502 0 0 0-6.501-6.503z" stroke="#e78528" stroke-width="2" fill="#fbeddf"/><path d="M193 65.69c4.574-.307 9.62-.542 15-.685v-9.97c-5.38.41-10.426 1.073-15 1.945v8.71zm-20.957 2.704c3.355-.917 8.893-1.717 15.957-2.325v-8.01c-6.413 1.566-11.567 3.583-14.977 5.89a49.222 49.222 0 0 0-.98 4.445zM233 64.991c5.367.137 10.417.362 15 .66v-8.78c-4.583-.85-9.633-1.486-15-1.876v9.996zm-5-10.281c-2.361-.1-4.4-.154-6.85-.154-2.644 0-5.61.06-8.15.175v10.166c2.54-.04 5.506-.061 8.15-.061 2.45 0 4.489.02 6.85.054V54.71zm40.514 9.22c-3.51-2.365-8.859-4.424-15.514-6.004v8.096c7.315.612 13.053 1.427 16.498 2.366a48.993 48.993 0 0 0-.984-4.457z" fill="#e68325"/><path d="M246.304 83.63a5.948 5.948 0 0 1-11.896 0" stroke="#e68325" stroke-width="2" fill="none"/><path d="M228.61 104c0 3.284-2.662 5.99-5.947 5.99-3.284 0-5.946-2.706-5.946-5.99h11.893z" fill="#e68325"/><path d="M212.987 83.63a5.947 5.947 0 1 1-11.894 0" stroke="#e68325" stroke-width="2" fill="none"/><path d="M220.412 57.386c21.477 0 40.05 3.394 48.997 8.33-4.784-22.673-24.9-39.693-48.996-39.693-24.097 0-44.213 17.02-48.997 39.694 8.946-4.937 27.52-8.331 48.996-8.331z" fill="#e68325"/></symbol><symbol viewBox="0 0 20 20" id="doppler-icon-loading"><path fill="#E78224" d="M17.934 18.933c-.455 0-.878-.292-1.023-.749l-.646-2.029-2.088-.405a1.075 1.075 0 0 1 .409-2.11l2.715.527c.385.075.699.354.817.729l.84 2.636a1.074 1.074 0 0 1-1.024 1.401z"/><path fill="#E78224" d="M9.999 19.938a9.911 9.911 0 0 1-7.03-2.907A9.878 9.878 0 0 1 .057 10a9.876 9.876 0 0 1 2.912-7.03c3.876-3.876 10.185-3.876 14.06 0a9.877 9.877 0 0 1 2.827 8.333 1.075 1.075 0 0 1-2.131-.28A7.742 7.742 0 0 0 15.51 4.49c-3.039-3.039-7.983-3.039-11.022 0A7.738 7.738 0 0 0 2.206 10c0 2.083.811 4.039 2.282 5.511a7.743 7.743 0 0 0 5.511 2.282 7.748 7.748 0 0 0 5.511-2.282 1.073 1.073 0 1 1 1.519 1.519 9.908 9.908 0 0 1-7.03 2.908z"/></symbol><symbol viewBox="0 0 22 22" id="doppler-icon-magnifierGlass"><path fill-rule="evenodd" clip-rule="evenodd" fill="#fff" d="M9.77 3.5C6.31 3.5 3.5 6.31 3.5 9.76c0 3.461 2.81 6.27 6.27 6.27 3.451 0 6.259-2.809 6.259-6.27 0-3.45-2.808-6.26-6.259-6.26zm10.68 16.95a1.891 1.891 0 0 1-2.66 0l-3.31-3.31a8.741 8.741 0 0 1-4.71 1.389c-4.85 0-8.77-3.92-8.77-8.77C1 4.92 4.92 1 9.77 1a8.757 8.757 0 0 1 8.759 8.76c0 1.74-.52 3.36-1.399 4.721l3.32 3.31c.73.738.73 1.93 0 2.659z"/></symbol><symbol viewBox="0 0 13.28 24" id="doppler-icon-mobile"><g fill="#E68123"><path d="M12.357 0H.923A.923.923 0 0 0 0 .923v22.154c0 .51.413.923.923.923h11.435c.51 0 .923-.413.923-.923V.923A.924.924 0 0 0 12.357 0zM1.847 6.511h9.588v10.251H1.847V6.511zm9.588-4.664V5.28H1.847V1.847h9.588zM1.847 22.154v-4.161h9.588v4.161H1.847z"/><path d="M5.212 4.196h2.856a.615.615 0 1 0 0-1.23H5.212a.615.615 0 1 0 0 1.23z"/><circle cx="6.641" cy="20.318" r="1.333"/></g></symbol><symbol viewBox="0 0 248.407 171.3" id="doppler-icon-no-templates"><path fill-rule="evenodd" clip-rule="evenodd" fill="#F4C497" d="M86.827 149.343h50.519v20.839H86.827z"/><path fill="#E78323" d="M138.293 171.128H85.88v-22.731h52.413v22.731zm-50.52-1.894h48.625V150.29H87.773v18.944z"/><path fill-rule="evenodd" clip-rule="evenodd" fill="#FCEEE1" d="M221.509.632H7.582C3.96.632.631 3.972.631 7.577v135.249c0 3.604 3.334 6.201 6.951 6.201h213.927c3.62 0 6.453-2.741 6.453-6.347V7.432c0-3.606-2.838-6.8-6.453-6.8z"/><path fill="#E78323" d="M221.509 149.658H7.582C3.4 149.658 0 146.593 0 142.826V7.577C0 3.611 3.613 0 7.582 0h213.927c3.841 0 7.085 3.403 7.085 7.432v135.249c0 3.913-3.112 6.977-7.085 6.977zM7.582 1.263c-3.248 0-6.32 3.068-6.32 6.314v135.249c0 3.071 2.835 5.57 6.32 5.57h213.927c3.319 0 5.822-2.458 5.822-5.716V7.432c0-3.345-2.666-6.169-5.822-6.169H7.582z"/><path fill-rule="evenodd" clip-rule="evenodd" fill="#FEFCF9" d="M10.42 14.208h204.598v109.877H10.42z"/><path fill="#E78323" d="M215.018 124.4H10.42a.316.316 0 0 1-.315-.315V14.208c0-.174.142-.316.315-.316h204.598c.174 0 .316.143.316.316v109.877a.316.316 0 0 1-.316.315zm-204.282-.631h203.965V14.524H10.736v109.245z"/><circle fill-rule="evenodd" clip-rule="evenodd" fill="#E88629" cx="114.199" cy="135.789" r="3.504"/><path fill-rule="evenodd" clip-rule="evenodd" fill="#E58223" d="M20.208 22.732h42.94v4.421h-42.94z"/><path fill-rule="evenodd" clip-rule="evenodd" fill="#F3C396" d="M25.891 32.836h77.671v4.421H25.891zm0 10.104h47.991v4.42H25.891zm0 10.736h47.991v4.42H25.891zm0 20.838h47.991v4.421H25.891zm0 10.734h36.626v4.421H25.891zm0 21.471h55.568v4.42H25.891z"/><path fill-rule="evenodd" clip-rule="evenodd" fill="#E58223" d="M54.938 65.041h37.259v4.421H54.938zm-34.73 0h30.31v4.421h-30.31zm0 32.206h42.309v3.788H20.208zm47.991-74.515h37.888v4.421H68.199z"/><path fill-rule="evenodd" clip-rule="evenodd" fill="#FCEEE1" d="M70.725 167.341h87.145v3.156H70.725z"/><path fill="#E78323" d="M157.869 171.128H70.725a.63.63 0 0 1-.631-.631v-3.156a.63.63 0 0 1 .631-.632h87.145a.63.63 0 0 1 .631.632v3.156a.631.631 0 0 1-.632.631zm-86.514-1.262h85.883v-1.895H71.355v1.895z"/><path fill-rule="evenodd" clip-rule="evenodd" fill="#EA9B4F" d="M79.565 53.676h13.893v4.42H79.565zm6.315 53.043h13.894v4.42H85.88zM66.937 85.248h13.891v4.421H66.937zM79.565 42.94h13.893v4.42H79.565zM107.982 32.836h13.892v4.421h-13.892zM78.935 74.514h13.892v4.421H78.935z"/><path fill-rule="evenodd" clip-rule="evenodd" fill="#F0B072" d="M248.635 169.935v-16.451c0-27.573-28.043-49.93-62.629-49.93-34.587 0-62.628 22.356-62.628 49.93v16.451h125.257z"/><path fill="#E88629" d="M250 171.3H122.013v-17.816c0-28.283 28.708-51.295 63.993-51.295 35.286 0 63.994 23.012 63.994 51.295V171.3zm-125.257-2.731H247.27v-15.086c0-26.778-27.482-48.564-61.264-48.564s-61.263 21.786-61.263 48.564v15.086z"/><path fill-rule="evenodd" clip-rule="evenodd" fill="#FCEEE0" d="M210.588 107.55c-7.547-2.57-15.855-3.996-24.582-3.996-9.928 0-19.313 1.845-27.652 5.123 5.663 8.132 15.08 13.456 25.743 13.456 11.146 0 20.93-5.818 26.491-14.583z"/><path fill="#E88629" d="M184.097 123.157a32.42 32.42 0 0 1-26.584-13.896 1.027 1.027 0 0 1 .465-1.538c8.768-3.446 18.197-5.194 28.027-5.194 8.638 0 17.019 1.363 24.912 4.052a1.025 1.025 0 0 1 .535 1.518c-5.98 9.428-16.207 15.058-27.355 15.058zm-24.128-14.002a30.368 30.368 0 0 0 24.128 11.953c10.003 0 19.212-4.838 24.896-13.008-7.309-2.338-15.035-3.523-22.986-3.523-9.111 0-17.862 1.539-26.038 4.578z"/><path fill-rule="evenodd" clip-rule="evenodd" fill="#FCEEE0" d="M234.537 63.64c-.102 0-.199.011-.301.015.07-1.079.116-2.162.116-3.26 0-27.98-22.683-50.663-50.663-50.663-27.979 0-50.662 22.683-50.662 50.663 0 1.098.046 2.181.116 3.258-.094-.002-.185-.013-.279-.013a6.658 6.658 0 1 0 0 13.315c.981 0 1.908-.216 2.744-.597 6.689 20.156 25.681 34.7 48.081 34.7 22.404 0 41.398-14.549 48.084-34.709a6.614 6.614 0 0 0 2.764.605 6.656 6.656 0 1 0 0-13.314z"/><path fill="#E88629" d="M183.689 112.083a51.602 51.602 0 0 1-48.71-34.402 7.6 7.6 0 0 1-2.115.299c-4.235 0-7.683-3.445-7.683-7.681 0-3.966 3.02-7.239 6.88-7.642a46.69 46.69 0 0 1-.058-2.263c0-28.5 23.186-51.687 51.686-51.687 28.501 0 51.688 23.187 51.688 51.687 0 .71-.02 1.455-.059 2.261 3.871.393 6.9 3.671 6.9 7.644 0 4.235-3.445 7.681-7.682 7.681a7.606 7.606 0 0 1-2.136-.305 51.596 51.596 0 0 1-48.711 34.408zm-48.081-36.748a1.022 1.022 0 0 1 .972.701 49.56 49.56 0 0 0 47.108 33.999A49.558 49.558 0 0 0 230.8 76.028a1.021 1.021 0 0 1 1.397-.609c.742.34 1.529.512 2.338.512a5.64 5.64 0 0 0 5.634-5.632 5.642 5.642 0 0 0-5.634-5.636l-.261.014a.964.964 0 0 1-.772-.308 1.019 1.019 0 0 1-.289-.781c.076-1.181.113-2.225.113-3.193 0-27.37-22.268-49.639-49.639-49.639s-49.638 22.269-49.638 49.639c0 .969.037 2.013.114 3.191.018.286-.084.567-.282.774a.997.997 0 0 1-.763.315l-.17-.009h-.009c-3.188 0-5.712 2.527-5.712 5.632s2.527 5.632 5.634 5.632a5.57 5.57 0 0 0 2.32-.504c.139-.06.283-.091.427-.091z"/><path fill-rule="evenodd" clip-rule="evenodd" fill="#E78426" d="M205.463 33.956s29.074 10.8 29.074 29.684c1.398-31.157-22.867-54.236-50.848-54.236-27.979 0-52.166 23.008-50.546 55.284.001 0 40.509 14.8 72.32-30.732"/><path fill="#E78426" d="M204.125 74.399a7.12 7.12 0 0 1-7.114-7.113 1.023 1.023 0 0 1 2.045 0 5.072 5.072 0 0 0 5.068 5.067 5.072 5.072 0 0 0 5.067-5.067 1.023 1.023 0 0 1 2.045 0c.002 3.922-3.189 7.113-7.111 7.113z"/><g><path fill-rule="evenodd" clip-rule="evenodd" fill="#E78426" d="M179.918 94.194a6.09 6.09 0 1 1 12.18 0h-12.18z"/></g><g><path fill="#E78426" d="M170.007 74.399a7.12 7.12 0 0 1-7.113-7.113 1.023 1.023 0 0 1 2.045 0c0 2.795 2.273 5.067 5.067 5.067s5.067-2.272 5.067-5.067a1.024 1.024 0 0 1 2.045 0c.002 3.922-3.189 7.113-7.111 7.113z"/></g><g><circle fill-rule="evenodd" clip-rule="evenodd" fill="#E78426" cx="221.085" cy="40.714" r="27.322"/></g></symbol><symbol viewBox="0 0 19.606 22" id="doppler-icon-relay-iso"><path d="M1.533 7.44c.19.63.684 1.123 1.313 1.313l4.707 1.42a1.967 1.967 0 0 0 2.449-1.313 1.965 1.965 0 0 0-1.314-2.448l-.805-.242c.746-.629 2.024-1.309 3.757-.756 2.866.964 2.715 3.933 2.715 3.933.023 2.044 2.731 3.162 4.233 1.881.994-.844.974-1.679.989-2.077 0 0-.093-6.645-6.308-8.681l-.01-.002-.007-.003c-4.262-1.396-7.486.66-9.091 2.088l-.288-.955A1.963 1.963 0 0 0 .112 2.732L1.533 7.44zm17.989 11.827l-1.42-4.708a1.968 1.968 0 0 0-1.314-1.312l-4.706-1.42a1.965 1.965 0 0 0-2.449 1.312 1.963 1.963 0 0 0 1.313 2.447l.764.231c-.744.631-2.028 1.324-3.774.767-2.865-.964-2.713-3.933-2.713-3.933C5.2 10.608 2.491 9.49.989 10.77c-.994.845-.975 1.68-.988 2.076 0 0 .092 6.645 6.306 8.68l.01.005c.003 0 .003.002.009.002 4.304 1.411 7.547-.697 9.137-2.127l.3.995a1.963 1.963 0 0 0 3.759-1.134z" fill="#E78325"/></symbol><symbol viewBox="0 0 19 21" id="doppler-icon-relayiconGrey"><path d="M1.546 7.077c.182.6.651 1.071 1.252 1.251l4.489 1.354a1.874 1.874 0 0 0 1.082-3.585l-.75-.226c.71-.601 1.935-1.254 3.592-.726 2.733.919 2.588 3.75 2.588 3.75.022 1.949 2.605 3.015 4.038 1.793.947-.805.928-1.6.942-1.979 0 0-.088-6.336-6.014-8.278l-.01-.002-.007-.003c-4.084-1.337-7.167.646-8.69 2.009l-.28-.93A1.873 1.873 0 0 0 .193 2.587l1.353 4.49zm15.8 6.788a1.879 1.879 0 0 0-1.252-1.252l-4.489-1.354a1.874 1.874 0 0 0-1.083 3.586l.751.227c-.71.602-1.934 1.254-3.592.727-2.733-.921-2.589-3.752-2.589-3.752-.023-1.948-2.605-3.014-4.037-1.793-.948.806-.93 1.601-.943 1.979 0 0 .089 6.337 6.014 8.278.004 0 .007 0 .01.002l.007.004c4.083 1.337 7.167-.647 8.692-2.01l.28.928a1.873 1.873 0 1 0 3.585-1.079l-1.354-4.491z" fill="#817A72"/></symbol><symbol viewBox="0 0 24 24" id="doppler-icon-subir-01"><path fill="#E78224" d="M19.265 19.909h-3.329a.914.914 0 1 1 0-1.827h3.329a2.66 2.66 0 0 0 2.659-2.657v-.204c0-1.373-1.062-2.543-2.416-2.663a.914.914 0 0 1-.833-.91v-.405c0-3.544-2.851-6.395-6.354-6.395-3.048 0-5.603 2.043-6.253 4.969a.912.912 0 0 1-.815.712c-1.921.163-3.426 1.777-3.426 3.678v.162A3.677 3.677 0 0 0 5.5 18.042h3.127a.913.913 0 1 1 0 1.827H5.5a5.506 5.506 0 0 1-5.5-5.5v-.162c0-2.622 1.906-4.88 4.446-5.404 1.043-3.434 4.179-5.781 7.834-5.781 4.446 0 8.052 3.501 8.217 7.868a4.47 4.47 0 0 1 3.253 4.332v.204a4.49 4.49 0 0 1-4.485 4.483z"/><path fill="#E78224" d="M15.002 16.805a.607.607 0 0 1-.438-.186l-2.266-2.345-2.311 2.273a.609.609 0 1 1-.855-.868l2.436-2.396c.277-.274.71-.347 1.102-.19a.967.967 0 0 1 .403.231l2.366 2.447a.608.608 0 0 1-.016.861.598.598 0 0 1-.421.173z"/><path fill="#E78224" d="M12.28 22a.609.609 0 0 1-.609-.608v-7.633a.609.609 0 0 1 1.218 0v7.633a.607.607 0 0 1-.609.608z"/></symbol></svg>