<?xml version="1.0" encoding="utf-8"?>
<!-- Generator: Adobe Illustrator 19.0.0, SVG Export Plug-In . SVG Version: 6.00 Build 0)  -->
<svg version="1.0" id="Layer_1" xmlns="http://www.w3.org/2000/svg" xmlns:xlink="http://www.w3.org/1999/xlink" x="0px" y="0px"
	 width="20px" height="20px" viewBox="0 0 20 20" style="enable-background:new 0 0 20 20;" xml:space="preserve">
<g>
	<g>
		<path id="XMLID_2_" style="fill:#EC9941 ;" d="M10,20C4.5,20,0,15.5,0,10C0,4.5,4.5,0,10,0c5.5,0,10,4.5,10,10
			C20,15.5,15.5,20,10,20z M10,2c-4.4,0-8,3.6-8,8s3.6,8,8,8s8-3.6,8-8S14.4,2,10,2z"/>
	</g>
	<g>
		<g>
			<path style="fill-rule:evenodd;clip-rule:evenodd;fill:#EC9941;" d="M9.1,13.9c0,0.5,0.4,0.9,0.9,0.9s0.9-0.4,0.9-0.9
				c0-0.5-0.4-0.9-0.9-0.9S9.1,13.4,9.1,13.9z M10.9,6.3c0-0.7-0.3-1.2-0.9-1.2S9.1,5.6,9.1,6.3v4.9c0,0.7,0.3,1.2,0.9,1.2
				s0.9-0.6,0.9-1.2V6.3z"/>
		</g>
	</g>
</g>
</svg>
