<?xml version="1.0" encoding="utf-8"?>
<!-- Generator: Adobe Illustrator 19.0.0, SVG Export Plug-In . SVG Version: 6.00 Build 0)  -->
<svg version="1.1" id="Layer_1" xmlns="http://www.w3.org/2000/svg" xmlns:xlink="http://www.w3.org/1999/xlink" x="0px" y="0px"
	 width="55px" height="55px" viewBox="0 0 55 55" enable-background="new 0 0 55 55" xml:space="preserve">
<g>
	<path fill="#0378A7" d="M54.1,35.3c0,1.3-0.8,1.9-2.3,1.9h-2.9v-1.3h2.9c0.3,0,0.5,0,0.6-0.1c0.1-0.1,0.2-0.2,0.2-0.4
		c0-0.2-0.1-0.4-0.2-0.4c-0.1-0.1-0.3-0.1-0.5-0.1c-1.4,0-3.1,0-3.1-1.9c0-0.9,0.6-1.9,2.1-1.9h3v1.3H51c-0.3,0-0.4,0-0.6,0.1
		c-0.1,0.1-0.2,0.3-0.2,0.5s0.1,0.4,0.3,0.4c0.2,0,0.4,0.1,0.6,0.1h0.8c0.8,0,1.4,0.2,1.7,0.5C53.9,34.3,54.1,34.7,54.1,35.3z
		 M47.8,34c-0.4-0.3-0.9-0.5-1.7-0.5h-0.8c-0.2,0-0.4,0-0.6-0.1c-0.2-0.1-0.3-0.2-0.3-0.4s0-0.4,0.2-0.5c0.1-0.1,0.3-0.1,0.6-0.1H48
		v-1.3h-3c-1.6,0-2.1,1-2.1,1.9c0,1.9,1.7,1.9,3.1,1.9c0.3,0,0.4,0,0.5,0.1c0.1,0.1,0.2,0.3,0.2,0.4c0,0.2-0.1,0.3-0.2,0.4
		c-0.1,0.1-0.3,0.1-0.6,0.1h-2.9v1.3h2.9c1.5,0,2.3-0.6,2.3-1.9C48.3,34.7,48.1,34.3,47.8,34L47.8,34z M42.2,36h-3.5v-1.2h3.4v-1.2
		h-3.4v-1.2h3.5v-1.3h-5v6.2h5L42.2,36L42.2,36z M35.6,31.4c-0.5-0.3-1.1-0.3-1.8-0.3h-3.4v6.2h1.5V35h1.6c0.5,0,0.8,0,1.1,0.3
		c0.3,0.3,0.3,0.8,0.3,1.2v0.8h1.5v-1.2c0-0.6,0-0.8-0.2-1.2c-0.1-0.2-0.4-0.4-0.8-0.5c0.4-0.1,1.1-0.7,1.1-1.6
		C36.4,32.1,36.1,31.7,35.6,31.4z M27.2,31.1h-4.7l-1.9,2l-1.8-2h-6v6.2h5.9l1.9-2l1.8,2h2.9v-2.1h1.9c1.3,0,2.6-0.4,2.6-2.1
		C29.7,31.4,28.4,31.1,27.2,31.1L27.2,31.1z M34.4,33.6c-0.2,0.1-0.4,0.1-0.7,0.1l-1.8,0v-1.4h1.8c0.3,0,0.5,0,0.7,0.1
		c0.2,0.1,0.3,0.3,0.3,0.5S34.6,33.5,34.4,33.6z M27.2,34h-1.9v-1.6h1.9c0.5,0,0.9,0.2,0.9,0.8C28.1,33.6,27.7,34,27.2,34z
		 M21.5,34.2l2.3-2.4v5L21.5,34.2z M17.9,36h-3.7v-1.2h3.3v-1.2h-3.3v-1.2H18l1.6,1.8L17.9,36L17.9,36z M50,26.6h-2.1L45,22v4.6h-3
		l-0.6-1.4h-3.1l-0.6,1.4h-1.7c-0.7,0-1.6-0.2-2.2-0.7c-0.5-0.5-0.8-1.2-0.8-2.3c0-0.9,0.1-1.8,0.8-2.4c0.4-0.5,1.2-0.7,2.3-0.7h1.4
		v1.3h-1.4c-0.5,0-0.8,0.1-1.2,0.4c-0.3,0.3-0.4,0.8-0.4,1.4s0.1,1.2,0.4,1.5c0.2,0.2,0.6,0.3,1,0.3h0.7l2.1-4.9h2.2l2.5,5.8v-5.8
		h2.3l2.6,4.3v-4.3H50L50,26.6L50,26.6L50,26.6z M32.4,20.4h-1.5v6.2h1.5V20.4L32.4,20.4z M29.2,20.7c-0.5-0.3-1-0.3-1.8-0.3h-3.4
		v6.2h1.5v-2.3h1.6c0.5,0,0.9,0,1.1,0.3c0.3,0.3,0.2,0.8,0.2,1.2v0.8H30v-1.2c0-0.5,0-0.8-0.3-1.1c-0.1-0.2-0.4-0.4-0.7-0.5
		c0.4-0.2,1.1-0.7,1.1-1.6C30,21.4,29.7,21,29.2,20.7L29.2,20.7z M23,25.3h-3.5v-1.2H23v-1.3h-3.4v-1.1H23v-1.3h-5v6.2h5L23,25.3
		L23,25.3z M16.9,20.4h-2.4l-1.8,4.2l-1.9-4.2H8.4v5.8l-2.5-5.8H3.6L1,26.6h1.6l0.6-1.4h3.1l0.6,1.4h3v-4.9l2.2,4.9h1.3l2.2-4.9v4.9
		h1.5L16.9,20.4L16.9,20.4L16.9,20.4z M40.9,23.9l-1-2.4l-1,2.4H40.9z M28.1,22.9c-0.2,0.1-0.4,0.1-0.8,0.1h-1.8v-1.4h1.8
		c0.3,0,0.6,0,0.8,0.1c0.2,0.1,0.3,0.3,0.3,0.6S28.3,22.9,28.1,22.9z M3.7,23.9l1-2.4l1,2.4H3.7z M53.7,1H0.9v22.3l1.8-4.1h3.8
		l0.5,1v-1h4.5l1,2.2l1-2.2H28c0.7,0,1.2,0.1,1.7,0.5v-0.5h3.9v0.5c0.7-0.4,1.5-0.5,2.5-0.5h5.7l0.5,1v-1h4.2l0.6,1v-1h4.1v8.7h-4.2
		l-0.8-1.3v1.3h-5.2l-0.6-1.4h-1.3l-0.6,1.4H36c-1.1,0-1.9-0.3-2.4-0.5v0.5h-6.4v-2c0-0.3,0-0.3-0.2-0.3h-0.2v2.3H14.4v-1.1
		l-0.4,1.1h-2.6l-0.4-1.1v1.1h-5l-0.5-1.4H4.1l-0.6,1.4H0.9V54h52.8V38.1c-0.6,0.3-1.4,0.4-2.2,0.4h-3.8V38c-0.4,0.4-1.2,0.5-2,0.5
		H33.6v-2c0-0.3,0-0.3-0.3-0.3h-0.2v2.3h-4v-2.3c-0.7,0.3-1.4,0.3-2.1,0.3h-0.4v2h-4.9l-1.2-1.3l-1.3,1.3h-7.8v-8.7h8l1.2,1.3
		l1.2-1.3h5.4c0.6,0,1.6,0.1,2.1,0.5v-0.5H34c0.5,0,1.4,0.1,2,0.5v-0.5h7.2v0.5c0.4-0.4,1.2-0.5,1.8-0.5h4v0.5
		c0.4-0.3,1.1-0.5,1.9-0.5h2.7V1L53.7,1z"/>
</g>
</svg>
