<?xml version="1.0" encoding="utf-8"?>
<!-- Generator: Adobe Illustrator 19.0.0, SVG Export Plug-In . SVG Version: 6.00 Build 0)  -->
<svg version="1.1" id="Layer_1" xmlns="http://www.w3.org/2000/svg" xmlns:xlink="http://www.w3.org/1999/xlink" x="0px" y="0px"
	 width="82.5px" height="46.8px" viewBox="-161 122 82.5 46.8" style="enable-background:new -161 122 82.5 46.8;"
	 xml:space="preserve">
<style type="text/css">
	.st0{fill:#7F7972;}
</style>
<title>Group 5</title>
<desc>Created with Sketch.</desc>
<g id="Page-1" transform="translate(13.723772, 16.916255) scale(1, -1) rotate(-55.000000) translate(-13.723772, -16.916255) translate(-3.776228, 12.416255)">
	<g id="Clip-2">
	</g>
	<g id="Clip-5">
	</g>
</g>
<g>
	<path class="st0" d="M-123.9,151.7c-0.1-0.2-0.2-0.3-0.3-0.4c-0.4-0.5-0.8-1.4-1.3-2.6l-0.1-0.2c0.7-0.2,1.2-0.5,1.3-0.8
		c0-0.1,0-0.1,0-0.2c0-0.1,0-0.2-0.1-0.3c-0.2-0.2-0.4-0.3-0.7-0.3c-0.1,0-0.3,0-0.5,0.1c-0.1,0-0.2,0-0.3,0c0,0-0.1,0-0.1,0
		c-0.1,0-0.2,0-0.2-0.1c-0.1-0.1-0.1-0.2-0.2-0.4c0-0.1-0.1-0.2-0.1-0.3c-0.3-1-0.6-2.2-0.8-3.5c-0.2-1.1-0.7-1.7-1.7-1.7
		c-0.9,0-1.5,1.3-2.1,3c-0.1,0.3-0.1,0.4-0.2,0.5c-0.7,1.9-1.4,2.9-2.1,3.1c-0.7,0.2-1.1,0.5-1.3,1.1c0,0.1-0.1,0.2-0.1,0.2
		c0,0.1,0,0.1,0,0.2c0.1,0.1,0.2,0.1,0.3,0.1c0.1,0,0.2,0,0.3,0c0.2,0,0.3,0,0.3,0c0.1,0,0.2,0,0.2,0.1v0c0,0.1-0.2,0.5-0.5,1.2
		c-0.5,1-0.8,1.7-0.8,2c0,0.1,0,0.1,0,0.2c0.1,0.3,0.3,0.3,0.5,0.3c0.3,0,0.7-0.3,1.1-0.8c0.3-0.3,0.9-1.4,2-3.2
		c1-0.2,1.7-0.3,2.2-0.3c0.1,0,0.1,0,0.3,0c0.2,0,0.3,0,0.4,0c1,0,1,0.5,1.6,1.7c0.2,0.5,0.4,1,0.6,1.2c0.3,0.6,1.6,2.4,2.3,2.4
		c0.4,0,0.6-0.5,0.6-0.8c0-0.2-0.1-0.4-0.2-0.6C-123.3,152.4-123.5,152.1-123.9,151.7z M-129.3,147c-0.4,0.1-0.7,0.2-0.9,0.2
		c0.1-0.2,0.2-0.4,0.3-0.9c0.5-1.3,0.8-2.2,1.1-2.6c0.2,0.3,0.4,1.1,0.7,2.4c0.1,0.3,0.1,0.5,0.1,0.6
		C-128.3,146.8-128.8,146.9-129.3,147z"/>
	<path class="st0" d="M-118.4,149.5L-118.4,149.5c0,1.6,0.5,3.4,1.4,4.2c0.2,0.2,0.3,0.2,0.5,0.2c0.3,0,0.6-0.4,0.8-1.2
		c0.5-2.2,1.8-3.9,3.5-4.7c0-0.1,0-0.1,0-0.2c0-0.4-0.6-0.8-1.1-0.8h0c-1.3,0-2.9,1.9-3.2,3.2c-0.1-1-0.5-1.5-1-1.5h0
		C-118,148.7-118.4,149.1-118.4,149.5z"/>
	<path class="st0" d="M-117.7,148.1c0.1-0.1,0.1-0.2,0.1-0.3c0-0.4-0.7-0.7-1.2-0.7c-0.1,0-0.1,0-0.2,0c-1.3,0.2-2.2,1-2.3,2.2
		c0-0.4-0.2-0.7-0.4-0.9c-0.1-0.1-0.2-0.1-0.3-0.1c-0.1,0-0.2,0-0.3,0.1c-0.4,0.2-0.7,0.8-0.7,1.3c0,0,0,0.1,0,0.1l0,1
		c0,1,0,2.8,0.9,3.2c0.1,0,0.2,0.1,0.3,0.1c0.5,0,0.8-0.7,0.9-1.7c0-0.8,0.1-1.3,0.2-1.5c0.3-1.1,0.7-1.4,2-2
		C-118.2,148.5-117.9,148.3-117.7,148.1z"/>
	<path class="st0" d="M-111.2,153.9c0.1,0,0.3,0,0.4-0.1c1.3-0.4,1.8-1.1,2.4-2l0.5-0.9c0.3,0.2,0.5,0.7,0.7,1.4
		c0.2,0.7,0.5,1.2,0.7,1.4c0.1,0.1,0.3,0.2,0.4,0.2c0.4,0,0.9-0.3,0.9-0.7c0-0.3-0.1-0.6-0.4-1c-0.2-0.2-0.3-0.4-0.3-0.5
		c-0.1-0.3-0.2-0.7-0.4-1.3c0-0.2-0.1-0.3-0.1-0.3l-0.1-0.5c-0.2-1.5-0.4-2.4-0.9-2.4h-0.1c-0.7,0-1.8,0.6-3.4,1.8
		c-1.2,1.4-1.8,2.5-1.8,3.4C-112.5,153.4-111.9,153.9-111.2,153.9z M-109.3,149.5c0.2-0.3,0.5-0.4,0.7-0.4c0.1,0,0.2,0,0.2,0.1
		c0,1.1-1.4,3.1-2.3,3.1C-110.8,151.8-110,150.2-109.3,149.5z"/>
	<path class="st0" d="M-100.3,152.1c-0.3,0.3-1.2,0.4-1.7,0.4c-0.5,0-1-0.1-1.6-0.4c-0.1-0.1-0.3-0.1-0.4-0.1
		c-0.4,0-0.5,0.5-0.5,0.8c0,0.2,0,0.4,0.2,0.7c0.2,0.5,1.2,0.6,1.6,0.6c0.3,0,0.7,0,1.1-0.1c1.3-0.2,2.6-0.7,2.8-1.2
		c0.1-0.3,0.2-0.5,0.2-0.7c0-0.2-0.1-0.5-0.3-0.7c-0.2-0.3-0.7-0.6-1.4-0.8c-1.8-0.7-2.8-1-3-1.1l-0.1,0c0,0,0-0.1,0-0.1
		c0-0.3,0.2-0.3,1.7-0.5c0.3-0.1,0.5-0.2,0.6-0.4c0.1-0.1,0.1-0.2,0.1-0.3c0-0.1,0-0.1,0-0.2c-0.1-0.3-0.6-0.6-1.1-0.6h-0.1
		c-1.3,0-2.9,0.8-2.9,2c0,0.1,0,0.2,0,0.3C-105,150.6-102.2,151.2-100.3,152.1z"/>
	<path class="st0" d="M-98.2,149.3c0.1,0,0.1,0,0.2,0h0.1c0.9,0,1.1,0.3,1.1,1c0,0.1,0,0.1,0,0.2c0,0.4,0,0.8,0,1.2
		c0,1.2,0.2,2,0.5,2.3c0.1,0.1,0.2,0.1,0.8,0.1c0.2,0,0.2,0,0.3,0h0c0.1,0,0.2-0.6,0.2-1.5v-0.3c0-0.7,0-1.3-0.1-1.7v-0.2
		c0-0.2,0-0.5,0-0.8c0-0.1,0-0.2,0-0.3h0.1l0.3,0c1.2-0.1,2.1-0.2,2.6-0.4c0,0.1-0.1,0.2-0.1,0.3c0,1.7,0.4,4,1.3,4.8
		c0.2,0.2,0.3,0.2,0.5,0.2c0.3,0,0.6-0.4,0.8-1.2c0.5-2.2,1.8-3.9,3.5-4.7c0,0,0-0.1,0-0.1c0-0.4-0.6-0.8-1.1-0.8h0
		c-1.3,0-2.9,1.9-3.2,3.2c-0.1-1-0.3-1.7-0.8-2c-0.1-0.1-0.2-0.1-0.3-0.1c0,0,0,0,0,0c0-0.1,0-0.2,0-0.2c0-0.1,0-0.3-0.1-0.4
		c-0.1-0.2-0.3-0.3-0.5-0.3c-0.2,0-0.4,0-0.8,0.1l-0.2,0.1h0c-0.6,0.1-1.1,0.2-1.5,0.2h0c-0.1,0-0.1,0-0.2,0c-0.3,0-0.5-0.1-0.5-0.1
		v-0.8c0-0.5,0-0.6,0.1-1.4c0.1-0.7,0.1-1.2,0.1-1.7c0-0.8-0.1-1.3-0.2-1.4c-0.1-0.1-0.1-0.1-0.2-0.1h-0.1c-0.2,0-0.4,0.1-0.6,0.3
		c-0.3,0.4-0.6,1.2-0.7,2.5c0,0.4,0,0.8,0,1.2c0,0.5,0,1.1,0.1,1.6H-97c-0.1,0-0.3,0.1-0.5,0.1c-0.1,0-0.2,0-0.2,0
		c-0.1,0-0.2,0-0.4,0c-0.6,0-1,0.1-1.2,0.4c-0.1,0.1-0.1,0.2-0.1,0.4v0h0C-99.2,149.2-98.8,149.3-98.2,149.3z"/>
	<path class="st0" d="M-80.1,152.2c-0.2-0.2-0.3-0.4-0.3-0.5c-0.1-0.3-0.2-0.7-0.4-1.3c0-0.2-0.1-0.3-0.1-0.3l-0.1-0.5
		c-0.2-1.5-0.4-2.4-0.9-2.4h-0.1c-0.7,0-1.8,0.6-3.4,1.8c-1.2,1.4-1.8,2.5-1.8,3.4c0.1,0.9,0.6,1.4,1.4,1.4c0.1,0,0.3,0,0.4-0.1
		c1.3-0.4,1.8-1.1,2.4-2l0.5-0.9c0.3,0.2,0.5,0.7,0.7,1.4c0.2,0.7,0.5,1.2,0.7,1.4c0.1,0.1,0.3,0.2,0.4,0.2c0.4,0,0.9-0.3,0.9-0.7
		C-79.6,152.9-79.8,152.6-80.1,152.2z M-85.3,152.2c0-0.4,0.8-2,1.5-2.8c0.2-0.3,0.5-0.4,0.7-0.4c0.1,0,0.2,0,0.2,0.1
		C-83,150.2-84.4,152.2-85.3,152.2z"/>
	<path class="st0" d="M-126.5,160.7c0-0.3,0-0.6,0-1c0,0,0-0.2,0-0.5c0.1-0.8,0.1-1.5,0.1-2c0-1.1-0.1-1.8-0.4-2.1
		c-0.1-0.1-0.2-0.2-0.3-0.2c-0.3,0-0.5,0.1-0.9,0.3l0,0h0v0.1c-0.2,1.5-0.2,3.1-0.2,4.8v0.4c0,0.7,0,1.4,0.1,2.1c0,0.1,0,0.3,0,0.6
		c0,0,0,0,0,0c-0.2,0.1-0.6,0.6-1.2,1.4c-0.5,0.6-1,0.9-1.5,1c-0.1,0-0.2,0-0.3,0c-0.4,0-0.7-0.2-1-0.5c-0.1-0.2-0.2-0.3-0.2-0.4v0
		c0-0.1,0.1-0.2,0.5-0.3c0.2-0.1,0.3-0.1,0.4-0.2c0.6-0.4,0.9-0.9,0.9-1.6c0-0.2,0-0.5-0.1-0.7c-0.5-1.1-1.3-1.7-2.1-1.7
		c-0.1,0-0.3,0-0.4,0.1c-1.1,0.2-1.7,0.7-1.8,1.5c-0.1,0.4-0.1,0.8-0.1,1.2c0,0.8,0.2,1.5,0.5,2c1,1.4,2.2,2.1,3.4,2.1
		c0.2,0,0.5,0,0.7-0.1c0.9-0.3,1.8-1.1,2.5-2.1c0.2,1.1,0.4,1.7,0.7,1.9c0.2,0.2,0.4,0.2,0.5,0.2c0.1,0,0.2,0,0.4-0.2
		c0.2-0.2,0.3-0.5,0.3-0.9c0-0.2,0-0.4-0.1-0.7C-126.3,163.6-126.5,162.1-126.5,160.7z M-133,163.7c-0.3-0.2-0.4-0.6-0.4-1.2
		c0-0.5,0.2-0.8,0.5-0.8h0.1c0.5,0.1,0.7,0.5,0.7,0.9c0,0,0,0.1,0,0.1C-132.1,163.3-132.5,163.7-133,163.7z"/>
	<path class="st0" d="M-107.9,163.1c-0.1-1.6-0.3-2.7-1.2-2.7c-0.4,0-0.6,0.4-0.7,1.3c-0.2,1.5-0.5,2.6-1.7,3.3c0,0-0.1,0-0.1,0
		c0,0,0-0.1,0-0.1c0-0.2,0.1-0.7,0.2-1.4c0.2-0.9,0.3-1.6,0.3-2.1c0-0.7-0.2-0.9-0.6-0.9c-0.8,0-1.3,1.8-1.6,3.2c0,0-0.1,0-0.1,0
		c-0.1,0-0.2,0-0.2,0c-0.3,0.1-1.1,0.3-1.9,0.8c-0.8,0.6-1.4,0.8-1.8,0.8c-0.1,0-0.2,0-0.2,0c-0.5,0-0.8-0.4-0.9-0.8
		c-0.1-0.2-0.1-0.4-0.1-0.6c0-0.7,0.3-1.3,1.6-2.2c0.3-0.2,0.5-0.4,0.5-0.7c0-0.1,0-0.2-0.1-0.3c-0.1-0.4-0.3-0.4-0.8-0.4h0
		c-0.5,0-1,0.2-1.4,0.6c-0.8,0.8-1.3,2.1-1.3,3.2v0.1c0,1.3,0.8,2.6,2.4,2.6c0.5,0,1.1-0.1,1.8-0.4c1.2-0.5,2.1-0.9,2.6-1.4
		c0.1,1.2,0.5,1.8,1.2,1.8c0.9,0,2.2-1.1,2.8-2.2c0,0.1,0.1,0.3,0.1,0.6c0.2,0.9,0.4,1.5,0.8,1.8c0.2,0.2,0.5,0.3,0.7,0.3
		c0.4,0,0.6-0.2,0.6-0.7c0-0.4-0.1-0.9-0.4-1.7C-107.8,164-107.8,163.9-107.9,163.1z"/>
	<path class="st0" d="M-101,160.9c0-0.4-0.6-0.8-1.1-0.8h0c-1.3,0-2.9,1.9-3.2,3.2c-0.1-1-0.3-1.7-0.8-2c-0.1-0.1-0.2-0.1-0.3-0.1
		c-0.1,0-0.2,0-0.3,0.1c-0.2,0.1-0.3,0.4-0.4,0.7c0,1.7,0.4,4,1.3,4.8c0.2,0.2,0.3,0.2,0.5,0.2c0.3,0,0.6-0.4,0.8-1.2
		c0.5-2.2,1.8-3.9,3.5-4.7C-101,161-101,160.9-101,160.9z"/>
	<path class="st0" d="M-96.2,163.5c-1.8-0.7-2.8-1-3-1.1l-0.1,0c0,0,0-0.1,0-0.1c0-0.3,0.2-0.3,1.7-0.5c0.3-0.1,0.5-0.2,0.6-0.4
		c0.1-0.1,0.1-0.2,0.1-0.3c0-0.1,0-0.1,0-0.2c-0.1-0.3-0.6-0.6-1.1-0.6h-0.1c-1.3,0-2.9,0.8-2.9,2c0,0.1,0,0.2,0,0.3
		c0,1,2.8,1.6,4.7,2.5c-0.3,0.3-1.2,0.4-1.7,0.4c-0.5,0-1-0.1-1.6-0.4c-0.1-0.1-0.3-0.1-0.4-0.1c-0.4,0-0.5,0.5-0.5,0.8
		c0,0.2,0,0.4,0.2,0.7c0.2,0.5,1.2,0.6,1.6,0.6c0.3,0,0.7,0,1.1-0.1c1.3-0.2,2.6-0.7,2.8-1.2c0.1-0.3,0.2-0.5,0.2-0.7
		c0-0.2-0.1-0.5-0.3-0.7C-95.1,164-95.5,163.8-96.2,163.5z"/>
	<path class="st0" d="M-90.9,160.3H-91c-1.7,0-2.9,1.2-3.1,3c0,0.2,0,0.4,0,0.5c0,1.3,0.5,2.8,1.9,3.1c0.2,0,0.4,0.1,0.5,0.1
		c1.8,0,3-1.9,3-3.9C-88.7,161.4-89.5,160.3-90.9,160.3z M-90.3,163.5c-0.1,1.1-0.8,1.9-1.3,1.9c-0.4,0-0.8-0.6-0.9-1.5v-0.1
		c0-0.4,0.1-0.7,0.2-1c0.1-0.4,0.7-1,1.1-1c0.2,0,0.4,0.1,0.5,0.3c0.2,0.4,0.3,0.7,0.3,1.2C-90.3,163.3-90.3,163.4-90.3,163.5z"/>
	<path class="st0" d="M-83,160.1L-83,160.1c-1.3,0-2.9,1.9-3.3,3.2c-0.1-1-0.3-1.7-0.8-2c-0.1-0.1-0.2-0.1-0.3-0.1
		c-0.1,0-0.2,0-0.3,0.1c-0.2,0.1-0.3,0.4-0.4,0.7c0,1.7,0.4,4,1.3,4.8c0.2,0.2,0.3,0.2,0.5,0.2c0.3,0,0.6-0.4,0.8-1.2
		c0.5-2.2,1.8-3.9,3.5-4.7c0,0,0-0.1,0-0.1C-82,160.5-82.6,160.1-83,160.1z"/>
	<path class="st0" d="M-139.6,148.9c-10.4-3.6-15.1-14.7-17.4-24.2c0.3,0.3,0.7,0.6,1.2,1c1.7,1.3,2.6,2,2.7,2l0,0
		c0.5-0.1,0.7-0.6,0.5-1.3c0,0-0.3-0.3-0.8-0.7c-1.8-1.3-3-2.3-3.7-3c-0.5-0.6-0.9-0.8-1.4-0.7l-0.2,0.1c-0.3,0.1-0.5,0.5-0.7,1.2
		c-0.3,1.6-0.6,3.1-0.8,4.7c0.3,0.3,0.6,0.4,1,0.3c0.1,0,0.3-0.1,0.3-0.1c0.1,0,0.2-0.3,0.3-0.8c0.1-0.7,0.2-1.3,0.3-1.8
		c0.6,2.4,1.4,4.7,2.4,6.9c2.3,5.5,5.6,11,10.6,14.5c1.7,1.2,3.7,2.1,5.7,2.7C-139.1,149.9-139.1,149.1-139.6,148.9z"/>
</g>
</svg>
