<?xml version="1.0" encoding="utf-8"?>
<!-- Generator: Adobe Illustrator 16.0.0, SVG Export Plug-In . SVG Version: 6.00 Build 0)  -->
<!DOCTYPE svg PUBLIC "-//W3C//DTD SVG 1.1//EN" "http://www.w3.org/Graphics/SVG/1.1/DTD/svg11.dtd">
<svg version="1.1" id="Layer_1" xmlns="http://www.w3.org/2000/svg" xmlns:xlink="http://www.w3.org/1999/xlink" x="0px" y="0px"
	 width="24px" height="24px" viewBox="0 0 24 24" enable-background="new 0 0 24 24" xml:space="preserve">
<g>
	<g>
		<path fill="#E78224" d="M20.546,23.945H3.705c-0.567,0-1.026-0.46-1.026-1.026V7.087C2.199,7,1.836,6.581,1.836,6.077V2.71
			c0-0.567,0.459-1.026,1.026-1.026h4.869V1.026C7.731,0.459,8.191,0,8.758,0h6.314c0.567,0,1.026,0.459,1.026,1.026v0.657h5.289
			c0.566,0,1.026,0.459,1.026,1.026v3.37c0,0.504-0.363,0.923-0.842,1.01v15.829C21.572,23.485,21.112,23.945,20.546,23.945z
			 M4.731,21.893H19.52V6.08c0-0.504,0.363-0.922,0.842-1.01V3.736h-5.289c-0.566,0-1.025-0.459-1.025-1.026V2.052H9.784V2.71
			c0,0.567-0.459,1.026-1.026,1.026H3.889v1.332c0.479,0.086,0.842,0.506,0.842,1.01V21.893z"/>
	</g>
	<g>
		<path fill="#E78224" d="M15.222,3.736H8.609c-0.567,0-1.026-0.459-1.026-1.026s0.459-1.026,1.026-1.026h6.612
			c0.566,0,1.026,0.459,1.026,1.026S15.788,3.736,15.222,3.736z"/>
	</g>
	<g>
		<g>
			<path fill="#E78224" d="M16.589,23.557c-0.378,0-0.685-0.306-0.685-0.685V6.08c0-0.378,0.307-0.684,0.685-0.684
				s0.684,0.306,0.684,0.684v16.792C17.272,23.251,16.967,23.557,16.589,23.557z"/>
		</g>
		<g>
			<path fill="#E78224" d="M12.125,23.555c-0.378,0-0.684-0.307-0.684-0.685V6.08c0-0.378,0.306-0.684,0.684-0.684
				S12.81,5.702,12.81,6.08v16.79C12.81,23.248,12.503,23.555,12.125,23.555z"/>
		</g>
		<g>
			<path fill="#E78224" d="M7.662,23.555c-0.378,0-0.685-0.307-0.685-0.685V6.08c0-0.378,0.307-0.684,0.685-0.684
				S8.346,5.702,8.346,6.08v16.79C8.346,23.248,8.04,23.555,7.662,23.555z"/>
		</g>
	</g>
	<g>
		<path fill="#E78224" d="M20.546,6.764H3.705c-0.378,0-0.684-0.306-0.684-0.684s0.306-0.684,0.684-0.684h16.841
			c0.378,0,0.685,0.306,0.685,0.684S20.924,6.764,20.546,6.764z"/>
	</g>
</g>
</svg>
