<?xml version="1.0" encoding="utf-8"?>
<!-- Generator: Adobe Illustrator 16.0.0, SVG Export Plug-In . SVG Version: 6.00 Build 0)  -->
<!DOCTYPE svg PUBLIC "-//W3C//DTD SVG 1.1//EN" "http://www.w3.org/Graphics/SVG/1.1/DTD/svg11.dtd">
<svg version="1.1" id="Layer_1" xmlns="http://www.w3.org/2000/svg" xmlns:xlink="http://www.w3.org/1999/xlink" x="0px" y="0px"
	 width="24px" height="21.486px" viewBox="0 0 24 21.486" enable-background="new 0 0 24 21.486" xml:space="preserve">
<g>
	<g>
		<g>
			<path fill="#E68123" d="M16.585,21.486H7.797c-0.51,0-0.923-0.413-0.923-0.923s0.413-0.923,0.923-0.923h3.28v-3.659H2.831
				C1.243,15.981,0,14.636,0,12.917V2.99C0,1.285,1.217,0,2.831,0h18.338C22.783,0,24,1.285,24,2.99v9.927
				c0,1.719-1.243,3.064-2.831,3.064h-7.482v3.659h2.898c0.51,0,0.923,0.413,0.923,0.923S17.095,21.486,16.585,21.486z M2.831,1.847
				c-0.681,0-0.984,0.574-0.984,1.144v9.927c0,0.605,0.338,1.218,0.984,1.218h18.338c0.646,0,0.984-0.612,0.984-1.218V2.99
				c0-0.569-0.304-1.144-0.984-1.144H2.831z"/>
		</g>
	</g>
	<g>
		<g>
			<path fill="#E68123" d="M3.784,5.933c-0.159,0-0.319-0.062-0.439-0.186c-0.238-0.243-0.234-0.633,0.01-0.87l1.987-1.944
				c0.242-0.238,0.632-0.234,0.87,0.01c0.238,0.242,0.233,0.631-0.01,0.869L4.215,5.757C4.095,5.874,3.94,5.933,3.784,5.933z"/>
		</g>
	</g>
	<g>
		<g>
			<path fill="#E68123" d="M4.129,9.181c-0.158,0-0.316-0.061-0.437-0.182c-0.24-0.24-0.238-0.631,0.004-0.869L8.28,3.581
				c0.242-0.239,0.632-0.237,0.87,0.004c0.24,0.241,0.238,0.631-0.003,0.87L4.562,9.003C4.442,9.122,4.286,9.181,4.129,9.181z"/>
		</g>
	</g>
</g>
</svg>