<?xml version="1.0" encoding="utf-8"?>
<!-- Generator: Adobe Illustrator 16.0.0, SVG Export Plug-In . SVG Version: 6.00 Build 0)  -->
<!DOCTYPE svg PUBLIC "-//W3C//DTD SVG 1.1//EN" "http://www.w3.org/Graphics/SVG/1.1/DTD/svg11.dtd">
<svg version="1.1" id="Layer_1" xmlns="http://www.w3.org/2000/svg" xmlns:xlink="http://www.w3.org/1999/xlink" x="0px" y="0px"
	 width="24px" height="24px" viewBox="0 0 24 24" enable-background="new 0 0 24 24" xml:space="preserve">
<g>
	<path fill="#E78224" d="M12,0C5.383,0,0,5.384,0,12s5.383,12,12,12c6.616,0,12-5.384,12-12S18.616,0,12,0z M12,21.942
		c-5.482,0-9.943-4.46-9.943-9.942c0-5.481,4.46-9.942,9.943-9.942S21.942,6.519,21.942,12C21.942,17.482,17.482,21.942,12,21.942z"
		/>
	<path fill="#E78224" d="M18.735,7.322c-0.242-0.242-0.564-0.376-0.906-0.376c-0.343,0-0.664,0.134-0.906,0.376l-6.637,6.637
		l-3.208-3.208c-0.242-0.242-0.564-0.375-0.906-0.375s-0.664,0.133-0.906,0.375c-0.5,0.5-0.5,1.312,0,1.812l4.114,4.114
		c0.243,0.242,0.564,0.376,0.906,0.376s0.664-0.134,0.906-0.376l7.543-7.543C19.234,8.636,19.234,7.822,18.735,7.322z"/>
</g>
</svg>