<?xml version="1.0" encoding="utf-8"?>
<!-- Generator: Adobe Illustrator 19.0.0, SVG Export Plug-In . SVG Version: 6.00 Build 0)  -->
<svg version="1.0" id="Layer_1" xmlns="http://www.w3.org/2000/svg" xmlns:xlink="http://www.w3.org/1999/xlink" x="0px" y="0px"
	 width="20.3px" height="23.9px" viewBox="0 0 20.3 23.9" style="enable-background:new 0 0 20.3 23.9;" xml:space="preserve">
<g id="XMLID_21_">
	<g id="XMLID_22_">
		<g id="XMLID_33_">
			<path id="XMLID_42_" style="fill:inherit;" d="M18.5,23.9H1.8c-0.6,0-1-0.4-1-1V7C0.4,7,0,6.6,0,6.1V2.7c0-0.6,0.4-1,1-1h4.8V1
				c0-0.6,0.4-1,1-1h6.3c0.6,0,1,0.4,1,1v0.7h5.2c0.6,0,1,0.4,1,1v3.4c0,0.5-0.4,0.9-0.8,1v15.9C19.5,23.5,19.1,23.9,18.5,23.9z
				 M2.8,21.9h14.7V6.1c0-0.5,0.4-0.9,0.8-1V3.7h-5.2c-0.6,0-1-0.4-1-1V2H7.8v0.7c0,0.6-0.4,1-1,1H2v1.4c0.5,0.1,0.8,0.5,0.8,1V21.9
				z"/>
		</g>
		<g id="XMLID_32_">
			<path id="XMLID_41_" style="fill:inherit;" d="M13.2,3.7H6.7c-0.6,0-1-0.4-1-1s0.4-1,1-1h6.5c0.6,0,1,0.4,1,1S13.8,3.7,13.2,3.7z
				"/>
		</g>
		<g id="XMLID_25_">
			<g id="XMLID_31_">
				<path id="XMLID_40_" style="fill:inherit;" d="M14.6,23.4c-0.3,0-0.5-0.2-0.5-0.5V6.1c0-0.3,0.2-0.5,0.5-0.5s0.5,0.2,0.5,0.5
					v16.8C15.1,23.2,14.9,23.4,14.6,23.4z"/>
			</g>
			<g id="XMLID_27_">
				<path id="XMLID_39_" style="fill:inherit;" d="M10.2,23.4c-0.3,0-0.5-0.2-0.5-0.5V6.1c0-0.3,0.2-0.5,0.5-0.5
					c0.3,0,0.5,0.2,0.5,0.5v16.8C10.7,23.2,10.4,23.4,10.2,23.4z"/>
			</g>
			<g id="XMLID_26_">
				<path id="XMLID_38_" style="fill:inherit;" d="M5.8,23.4c-0.3,0-0.5-0.2-0.5-0.5V6.1c0-0.3,0.2-0.5,0.5-0.5s0.5,0.2,0.5,0.5
					v16.8C6.2,23.2,6,23.4,5.8,23.4z"/>
			</g>
		</g>
		<g id="XMLID_24_">
			<path id="XMLID_37_" style="fill:inherit;" d="M18.5,6.6H1.8c-0.3,0-0.5-0.2-0.5-0.5s0.2-0.5,0.5-0.5h16.7c0.3,0,0.5,0.2,0.5,0.5
				S18.8,6.6,18.5,6.6z"/>
		</g>
	</g>
</g>
</svg>
