<?xml version="1.0" encoding="utf-8"?>
<!-- Generator: Adobe Illustrator 16.0.0, SVG Export Plug-In . SVG Version: 6.00 Build 0)  -->
<!DOCTYPE svg PUBLIC "-//W3C//DTD SVG 1.1//EN" "http://www.w3.org/Graphics/SVG/1.1/DTD/svg11.dtd">
<svg version="1.1" id="Layer_1" xmlns="http://www.w3.org/2000/svg" xmlns:xlink="http://www.w3.org/1999/xlink" x="0px" y="0px"
	 width="24px" height="24px" viewBox="0 0 24 24" enable-background="new 0 0 24 24" xml:space="preserve">
<g>
	<path fill="#E78224" d="M12,0C5.383,0,0,5.384,0,12s5.383,12,12,12c6.616,0,12-5.384,12-12S18.616,0,12,0z M12,21.941
		c-5.482,0-9.943-4.459-9.943-9.941c0-5.481,4.46-9.942,9.943-9.942c5.482,0,9.941,4.461,9.941,9.942
		C21.941,17.482,17.482,21.941,12,21.941z"/>
</g>
<g>
	<g>
		<path fill="#E78224" d="M12,17.261c-0.432,0-0.783-0.35-0.783-0.782v-8.61c0-0.432,0.351-0.783,0.783-0.783
			c0.432,0,0.783,0.351,0.783,0.783v8.61C12.783,16.911,12.432,17.261,12,17.261z"/>
	</g>
	<g>
		<path fill="#E78224" d="M12,17.607c-0.208,0-0.407-0.083-0.553-0.229l-4.846-4.847c-0.306-0.306-0.306-0.802,0-1.107
			s0.801-0.306,1.106,0L12,15.718l4.293-4.294c0.306-0.306,0.801-0.306,1.106,0s0.306,0.801,0,1.107l-4.847,4.847
			C12.406,17.524,12.207,17.607,12,17.607z"/>
	</g>
</g>
</svg>
