<?xml version="1.0" encoding="UTF-8"?>
<svg width="339px" height="95px" viewBox="0 0 339 95" version="1.1" xmlns="http://www.w3.org/2000/svg" xmlns:xlink="http://www.w3.org/1999/xlink">
    <!-- Generator: Sketch 51.1 (57501) - http://www.bohemiancoding.com/sketch -->
    <title>editor-drag-drop</title>
    <desc>Created with Sketch.</desc>
    <defs>
        <path d="M42,28 L333,28 L333,61 L42,61 L42,28 Z" id="path-1"></path>
        <mask id="mask-2" maskContentUnits="userSpaceOnUse" maskUnits="objectBoundingBox" x="0" y="0" width="291" height="33" fill="white">
            <use xlink:href="#path-1"></use>
        </mask>
        <rect id="path-3" x="0" y="0" width="122" height="83" rx="3"></rect>
        <filter x="-7.4%" y="-10.8%" width="114.8%" height="121.7%" filterUnits="objectBoundingBox" id="filter-4">
            <feOffset dx="0" dy="0" in="SourceAlpha" result="shadowOffsetOuter1"></feOffset>
            <feGaussianBlur stdDeviation="3" in="shadowOffsetOuter1" result="shadowBlurOuter1"></feGaussianBlur>
            <feComposite in="shadowBlurOuter1" in2="SourceAlpha" operator="out" result="shadowBlurOuter1"></feComposite>
            <feColorMatrix values="0 0 0 0 0   0 0 0 0 0   0 0 0 0 0  0 0 0 0.295289855 0" type="matrix" in="shadowBlurOuter1"></feColorMatrix>
        </filter>
    </defs>
    <g id="Editor" stroke="none" stroke-width="1" fill="none" fill-rule="evenodd">
        <g id="templates-creation-completed-copy" transform="translate(-227.000000, -563.000000)">
            <g id="editor-drag-drop" transform="translate(233.000000, 569.000000)">
                <path d="M152.369,49 L151.039,49 L150.213,46.914 L145.565,46.914 L144.739,49 L143.409,49 L147.175,39.662 L148.617,39.662 L152.369,49 Z M149.877,45.892 L147.889,40.852 L145.915,45.892 L149.877,45.892 Z M154.595,49 L153.545,49 L153.545,42.238 L154.595,42.238 L154.595,43.316 C155.141,42.616 155.925,42.084 156.849,42.084 L156.849,43.162 C156.723,43.148 156.597,43.134 156.443,43.134 C155.785,43.134 154.903,43.666 154.595,44.212 L154.595,49 Z M159.215,49 L158.165,49 L158.165,42.238 L159.215,42.238 L159.215,43.316 C159.761,42.616 160.545,42.084 161.469,42.084 L161.469,43.162 C161.343,43.148 161.217,43.134 161.063,43.134 C160.405,43.134 159.523,43.666 159.215,44.212 L159.215,49 Z M168.063,49 L167.013,49 L167.013,48.23 C166.467,48.846 165.683,49.168 164.773,49.168 C163.639,49.168 162.421,48.398 162.421,46.928 C162.421,45.402 163.625,44.702 164.773,44.702 C165.697,44.702 166.467,44.996 167.013,45.612 L167.013,44.394 C167.013,43.498 166.285,42.98 165.305,42.98 C164.493,42.98 163.835,43.26 163.233,43.918 L162.743,43.19 C163.471,42.434 164.339,42.07 165.445,42.07 C166.887,42.07 168.063,42.714 168.063,44.352 L168.063,49 Z M165.165,48.412 C165.893,48.412 166.607,48.132 167.013,47.572 L167.013,46.284 C166.607,45.738 165.893,45.458 165.165,45.458 C164.171,45.458 163.485,46.074 163.485,46.928 C163.485,47.796 164.171,48.412 165.165,48.412 Z M172.333,49.168 C171.213,49.168 170.289,48.818 169.603,48.104 L170.135,47.348 C170.583,47.866 171.437,48.314 172.361,48.314 C173.397,48.314 173.971,47.824 173.971,47.152 C173.971,45.514 169.785,46.522 169.785,44.016 C169.785,42.952 170.681,42.07 172.291,42.07 C173.453,42.07 174.265,42.504 174.797,43.05 L174.307,43.778 C173.901,43.288 173.173,42.924 172.291,42.924 C171.367,42.924 170.793,43.386 170.793,43.988 C170.793,45.458 174.979,44.492 174.979,47.124 C174.979,48.258 174.069,49.168 172.333,49.168 Z M178.409,49.168 C177.401,49.168 176.897,48.594 176.897,47.586 L176.897,43.162 L175.777,43.162 L175.777,42.238 L176.897,42.238 L176.897,40.39 L177.961,40.39 L177.961,42.238 L179.333,42.238 L179.333,43.162 L177.961,43.162 L177.961,47.362 C177.961,47.866 178.185,48.23 178.633,48.23 C178.941,48.23 179.207,48.09 179.347,47.936 L179.655,48.734 C179.389,48.986 179.011,49.168 178.409,49.168 Z M181.853,49 L180.803,49 L180.803,42.238 L181.853,42.238 L181.853,43.316 C182.399,42.616 183.183,42.084 184.107,42.084 L184.107,43.162 C183.981,43.148 183.855,43.134 183.701,43.134 C183.043,43.134 182.161,43.666 181.853,44.212 L181.853,49 Z M190.701,49 L189.651,49 L189.651,48.23 C189.105,48.846 188.321,49.168 187.411,49.168 C186.277,49.168 185.059,48.398 185.059,46.928 C185.059,45.402 186.263,44.702 187.411,44.702 C188.335,44.702 189.105,44.996 189.651,45.612 L189.651,44.394 C189.651,43.498 188.923,42.98 187.943,42.98 C187.131,42.98 186.473,43.26 185.871,43.918 L185.381,43.19 C186.109,42.434 186.977,42.07 188.083,42.07 C189.525,42.07 190.701,42.714 190.701,44.352 L190.701,49 Z M187.803,48.412 C188.531,48.412 189.245,48.132 189.651,47.572 L189.651,46.284 C189.245,45.738 188.531,45.458 187.803,45.458 C186.809,45.458 186.123,46.074 186.123,46.928 C186.123,47.796 186.809,48.412 187.803,48.412 Z M198.163,49.168 C197.155,49.168 196.651,48.594 196.651,47.586 L196.651,43.162 L195.531,43.162 L195.531,42.238 L196.651,42.238 L196.651,40.39 L197.715,40.39 L197.715,42.238 L199.087,42.238 L199.087,43.162 L197.715,43.162 L197.715,47.362 C197.715,47.866 197.939,48.23 198.387,48.23 C198.695,48.23 198.961,48.09 199.101,47.936 L199.409,48.734 C199.143,48.986 198.765,49.168 198.163,49.168 Z M206.171,49 L205.121,49 L205.121,48.048 C204.603,48.636 203.721,49.168 202.713,49.168 C201.299,49.168 200.557,48.468 200.557,47.012 L200.557,42.238 L201.607,42.238 L201.607,46.69 C201.607,47.88 202.209,48.23 203.133,48.23 C203.945,48.23 204.729,47.754 205.121,47.208 L205.121,42.238 L206.171,42.238 L206.171,49 Z M210.427,49.168 C209.307,49.168 208.383,48.818 207.697,48.104 L208.229,47.348 C208.677,47.866 209.531,48.314 210.455,48.314 C211.491,48.314 212.065,47.824 212.065,47.152 C212.065,45.514 207.879,46.522 207.879,44.016 C207.879,42.952 208.775,42.07 210.385,42.07 C211.547,42.07 212.359,42.504 212.891,43.05 L212.401,43.778 C211.995,43.288 211.267,42.924 210.385,42.924 C209.461,42.924 208.887,43.386 208.887,43.988 C208.887,45.458 213.073,44.492 213.073,47.124 C213.073,48.258 212.163,49.168 210.427,49.168 Z M221.473,49.168 C219.457,49.168 218.015,47.726 218.015,45.612 C218.015,43.652 219.415,42.07 221.347,42.07 C223.391,42.07 224.595,43.666 224.595,45.696 L224.595,45.962 L219.135,45.962 C219.219,47.236 220.101,48.3 221.557,48.3 C222.341,48.3 223.111,47.992 223.657,47.432 L224.161,48.118 C223.475,48.79 222.565,49.168 221.473,49.168 Z M223.559,45.178 C223.545,44.184 222.873,42.938 221.333,42.938 C219.891,42.938 219.177,44.156 219.121,45.178 L223.559,45.178 Z M227.339,49 L226.289,49 L226.289,39.662 L227.339,39.662 L227.339,49 Z M232.505,49.168 C230.489,49.168 229.047,47.726 229.047,45.612 C229.047,43.652 230.447,42.07 232.379,42.07 C234.423,42.07 235.627,43.666 235.627,45.696 L235.627,45.962 L230.167,45.962 C230.251,47.236 231.133,48.3 232.589,48.3 C233.373,48.3 234.143,47.992 234.689,47.432 L235.193,48.118 C234.507,48.79 233.597,49.168 232.505,49.168 Z M234.591,45.178 C234.577,44.184 233.905,42.938 232.365,42.938 C230.923,42.938 230.209,44.156 230.153,45.178 L234.591,45.178 Z M246.533,49 L245.483,49 L245.483,44.408 C245.483,43.554 245.119,43.008 244.237,43.008 C243.537,43.008 242.795,43.498 242.445,44.044 L242.445,49 L241.395,49 L241.395,44.408 C241.395,43.554 241.045,43.008 240.149,43.008 C239.463,43.008 238.735,43.512 238.371,44.058 L238.371,49 L237.321,49 L237.321,42.238 L238.371,42.238 L238.371,43.218 C238.665,42.784 239.561,42.07 240.569,42.07 C241.591,42.07 242.179,42.63 242.375,43.33 C242.753,42.714 243.663,42.07 244.643,42.07 C245.875,42.07 246.533,42.756 246.533,44.114 L246.533,49 Z M251.699,49.168 C249.683,49.168 248.241,47.726 248.241,45.612 C248.241,43.652 249.641,42.07 251.573,42.07 C253.617,42.07 254.821,43.666 254.821,45.696 L254.821,45.962 L249.361,45.962 C249.445,47.236 250.327,48.3 251.783,48.3 C252.567,48.3 253.337,47.992 253.883,47.432 L254.387,48.118 C253.701,48.79 252.791,49.168 251.699,49.168 Z M253.785,45.178 C253.771,44.184 253.099,42.938 251.559,42.938 C250.117,42.938 249.403,44.156 249.347,45.178 L253.785,45.178 Z M262.129,49 L261.093,49 L261.093,44.576 C261.093,43.372 260.477,43.008 259.567,43.008 C258.741,43.008 257.971,43.512 257.565,44.058 L257.565,49 L256.515,49 L256.515,42.238 L257.565,42.238 L257.565,43.218 C258.041,42.644 258.965,42.07 259.987,42.07 C261.387,42.07 262.129,42.784 262.129,44.254 L262.129,49 Z M265.965,49.168 C264.957,49.168 264.453,48.594 264.453,47.586 L264.453,43.162 L263.333,43.162 L263.333,42.238 L264.453,42.238 L264.453,40.39 L265.517,40.39 L265.517,42.238 L266.889,42.238 L266.889,43.162 L265.517,43.162 L265.517,47.362 C265.517,47.866 265.741,48.23 266.189,48.23 C266.497,48.23 266.763,48.09 266.903,47.936 L267.211,48.734 C266.945,48.986 266.567,49.168 265.965,49.168 Z M271.313,49.168 C269.255,49.168 267.967,47.572 267.967,45.612 C267.967,43.652 269.255,42.07 271.313,42.07 C273.371,42.07 274.659,43.652 274.659,45.612 C274.659,47.572 273.371,49.168 271.313,49.168 Z M271.313,48.23 C272.755,48.23 273.553,46.998 273.553,45.612 C273.553,44.24 272.755,43.008 271.313,43.008 C269.871,43.008 269.073,44.24 269.073,45.612 C269.073,46.998 269.871,48.23 271.313,48.23 Z M278.523,49.168 C277.403,49.168 276.479,48.818 275.793,48.104 L276.325,47.348 C276.773,47.866 277.627,48.314 278.551,48.314 C279.587,48.314 280.161,47.824 280.161,47.152 C280.161,45.514 275.975,46.522 275.975,44.016 C275.975,42.952 276.871,42.07 278.481,42.07 C279.643,42.07 280.455,42.504 280.987,43.05 L280.497,43.778 C280.091,43.288 279.363,42.924 278.481,42.924 C277.557,42.924 276.983,43.386 276.983,43.988 C276.983,45.458 281.169,44.492 281.169,47.124 C281.169,48.258 280.259,49.168 278.523,49.168 Z M291.781,49 L290.731,49 L290.731,48.23 C290.185,48.846 289.401,49.168 288.491,49.168 C287.357,49.168 286.139,48.398 286.139,46.928 C286.139,45.402 287.343,44.702 288.491,44.702 C289.415,44.702 290.185,44.996 290.731,45.612 L290.731,44.394 C290.731,43.498 290.003,42.98 289.023,42.98 C288.211,42.98 287.553,43.26 286.951,43.918 L286.461,43.19 C287.189,42.434 288.057,42.07 289.163,42.07 C290.605,42.07 291.781,42.714 291.781,44.352 L291.781,49 Z M288.883,48.412 C289.611,48.412 290.325,48.132 290.731,47.572 L290.731,46.284 C290.325,45.738 289.611,45.458 288.883,45.458 C287.889,45.458 287.203,46.074 287.203,46.928 C287.203,47.796 287.889,48.412 288.883,48.412 Z M296.737,48.23 C297.563,48.23 298.389,47.726 298.753,47.138 L298.753,44.086 C298.389,43.498 297.563,43.008 296.737,43.008 C295.379,43.008 294.567,44.114 294.567,45.612 C294.567,47.11 295.379,48.23 296.737,48.23 Z M296.471,49.168 C294.693,49.168 293.461,47.796 293.461,45.612 C293.461,43.414 294.693,42.07 296.471,42.07 C297.423,42.07 298.263,42.56 298.753,43.246 L298.753,42.238 L299.803,42.238 L299.803,51.576 L298.753,51.576 L298.753,47.978 C298.193,48.72 297.395,49.168 296.471,49.168 Z M307.517,49 L306.467,49 L306.467,48.048 C305.949,48.636 305.067,49.168 304.059,49.168 C302.645,49.168 301.903,48.468 301.903,47.012 L301.903,42.238 L302.953,42.238 L302.953,46.69 C302.953,47.88 303.555,48.23 304.479,48.23 C305.291,48.23 306.075,47.754 306.467,47.208 L306.467,42.238 L307.517,42.238 L307.517,49 Z M312.389,39.2 L310.023,41.216 L309.225,41.216 L311.297,39.2 L312.389,39.2 Z M310.667,49 L309.617,49 L309.617,42.238 L310.667,42.238 L310.667,49 Z" id="Arrastra-tus-element" fill="#999999"></path>
                <use id="Rectangle-4" stroke="#999999" mask="url(#mask-2)" stroke-width="2" stroke-dasharray="3,3" xlink:href="#path-1"></use>
                <g id="Group-3">
                    <g id="Mask">
                        <use fill="black" fill-opacity="1" filter="url(#filter-4)" xlink:href="#path-3"></use>
                        <rect stroke="#CCCCCC" stroke-width="1" stroke-linejoin="square" fill="#FFFFFF" fill-rule="evenodd" x="0.5" y="0.5" width="121" height="82" rx="3"></rect>
                    </g>
                    <path d="M50.376,69.2391304 L48.66,69.2391304 L48.66,62.7351304 L46.32,62.7351304 L46.32,61.2351304 L52.704,61.2351304 L52.704,62.7351304 L50.376,62.7351304 L50.376,69.2391304 Z M56.556,60.8391304 L54.612,62.5671304 L53.544,62.5671304 L55.152,60.8391304 L56.556,60.8391304 Z M55.284,69.2391304 L53.76,69.2391304 L53.76,63.4431304 L55.284,63.4431304 L55.284,69.2391304 Z M58.74,69.3831304 C57.672,69.3831304 57.108,68.8311304 57.108,67.7871304 L57.108,64.7751304 L56.148,64.7751304 L56.148,63.4431304 L57.108,63.4431304 L57.108,61.8591304 L58.632,61.8591304 L58.632,63.4431304 L59.808,63.4431304 L59.808,64.7751304 L58.632,64.7751304 L58.632,67.3791304 C58.632,67.7511304 58.824,68.0271304 59.16,68.0271304 C59.388,68.0271304 59.604,67.9431304 59.688,67.8471304 L60.012,69.0111304 C59.784,69.2151304 59.376,69.3831304 58.74,69.3831304 Z M66.288,69.2391304 L64.764,69.2391304 L64.764,68.5071304 C64.368,68.9391304 63.672,69.3831304 62.724,69.3831304 C61.452,69.3831304 60.852,68.6871304 60.852,67.5591304 L60.852,63.4431304 L62.376,63.4431304 L62.376,66.9591304 C62.376,67.7631304 62.796,68.0271304 63.444,68.0271304 C64.032,68.0271304 64.5,67.7031304 64.764,67.3671304 L64.764,63.4431304 L66.288,63.4431304 L66.288,69.2391304 Z M69.324,69.2391304 L67.8,69.2391304 L67.8,61.2351304 L69.324,61.2351304 L69.324,69.2391304 Z M73.524,69.3831304 C71.616,69.3831304 70.464,67.9791304 70.464,66.3351304 C70.464,64.6911304 71.616,63.2991304 73.524,63.2991304 C75.444,63.2991304 76.596,64.6911304 76.596,66.3351304 C76.596,67.9791304 75.444,69.3831304 73.524,69.3831304 Z M73.524,68.0271304 C74.484,68.0271304 75.012,67.2471304 75.012,66.3351304 C75.012,65.4351304 74.484,64.6551304 73.524,64.6551304 C72.576,64.6551304 72.048,65.4351304 72.048,66.3351304 C72.048,67.2471304 72.576,68.0271304 73.524,68.0271304 Z" id="Título" fill="#444444"></path>
                    <path d="M64.129,46.2676235 L57.367,46.2676235 L55.603,41.5216235 L43.591,41.5216235 L41.827,46.2676235 L35.065,46.2676235 L45.859,18.2536235 L53.335,18.2536235 L64.129,46.2676235 Z M53.965,36.2716235 L49.597,24.2176235 L45.229,36.2716235 L53.965,36.2716235 Z M84.163,46.2676235 L78.787,46.2676235 L78.787,44.1256235 C77.401,45.8056235 75.007,46.7716235 72.361,46.7716235 C69.127,46.7716235 65.347,44.5876235 65.347,40.0516235 C65.347,35.2636235 69.127,33.4996235 72.361,33.4996235 C75.091,33.4996235 77.443,34.3816235 78.787,35.9776235 L78.787,33.4156235 C78.787,31.3576235 77.023,30.0136235 74.335,30.0136235 C72.193,30.0136235 70.177,30.8536235 68.497,32.4076235 L66.397,28.6696235 C68.875,26.4436235 72.067,25.4776235 75.259,25.4776235 C79.921,25.4776235 84.163,27.3256235 84.163,33.1636235 L84.163,46.2676235 Z M74.503,43.1596235 C76.225,43.1596235 77.905,42.5716235 78.787,41.3956235 L78.787,38.8756235 C77.905,37.6996235 76.225,37.0696235 74.503,37.0696235 C72.403,37.0696235 70.681,38.2036235 70.681,40.1356235 C70.681,42.0676235 72.403,43.1596235 74.503,43.1596235 Z" id="Aa" fill="#444444"></path>
                    <path d="M81.7087311,58.709453 C80.2654812,58.709453 79.2648984,57.2696157 78.6699521,56.0260762 C78.2253956,55.0971411 78,54.0263821 78,52.9393049 L78,45.822189 C78,44.5215359 78.8301663,43.4668551 79.8543656,43.4668551 C80.8785648,43.4668551 81.7087311,44.5215359 81.7087311,45.822189 L81.7087311,49.1006986 L81.7087311,40.7825184 C81.7087311,39.4816253 82.5388975,38.4271845 83.5630967,38.4271845 C84.587296,38.4271845 85.4174623,39.4816253 85.4174623,40.7825184 L85.4174623,44.061028 L85.4174623,40.7825184 C85.4174623,39.4816253 86.2476286,38.4271845 87.2718279,38.4271845 C88.2960271,38.4271845 89.1261934,39.4816253 89.1261934,40.7825184 L89.1261934,44.061028 L89.1261934,40.7825184 C89.1261934,39.4816253 89.9565487,38.4271845 90.980559,38.4271845 C92.0047583,38.4271845 92.8349246,39.4816253 92.8349246,40.7825184 L92.8349246,44.061028 L92.8349246,40.7825184 C92.8349246,39.4816253 93.6652798,38.4271845 94.6892902,38.4271845 C95.7134894,38.4271845 96.5436557,39.4816253 96.5436557,40.7825184 L96.5436557,44.061028 L96.5436557,53.3599774 C96.5436557,56.3145236 94.6581164,58.709453 92.3321771,58.709453 L81.7087311,58.709453 Z" id="Page-1" stroke="#333333" stroke-width="2" fill="#FFFFFF" stroke-linecap="round" stroke-linejoin="round"></path>
                </g>
            </g>
        </g>
    </g>
</svg>