<?xml version="1.0" encoding="utf-8"?>
<!-- Generator: Adobe Illustrator 16.0.0, SVG Export Plug-In . SVG Version: 6.00 Build 0)  -->
<!DOCTYPE svg PUBLIC "-//W3C//DTD SVG 1.1//EN" "http://www.w3.org/Graphics/SVG/1.1/DTD/svg11.dtd">
<svg version="1.1" id="Layer_1" xmlns="http://www.w3.org/2000/svg" xmlns:xlink="http://www.w3.org/1999/xlink" x="0px" y="0px"
	 width="200px" height="28px" viewBox="0 0 200 28" enable-background="new 0 0 200 28" xml:space="preserve">
<g>
	<g>
		<path fill="#E78224" d="M3.565,8.957c0.166,0.55,0.597,0.98,1.147,1.147l4.113,1.241c0.166,0.05,0.332,0.073,0.497,0.073
			c0.736,0,1.418-0.478,1.642-1.22c0.274-0.908-0.24-1.865-1.148-2.139L9.112,7.847c0.652-0.549,1.769-1.143,3.283-0.66
			c2.503,0.842,2.371,3.436,2.371,3.436c0.021,1.786,2.386,2.762,3.699,1.644c0.869-0.738,0.851-1.467,0.864-1.814
			c0,0-0.082-5.806-5.511-7.584c-0.003-0.001-0.005-0.001-0.008-0.002c-0.002,0-0.003-0.001-0.007-0.002
			C10.08,1.642,7.263,3.438,5.861,4.687L5.609,3.853c-0.273-0.907-1.23-1.421-2.138-1.147C2.564,2.979,2.05,3.937,2.324,4.843
			L3.565,8.957z"/>
		<path fill="#E78224" d="M19.281,19.289l-1.241-4.112c-0.167-0.551-0.597-0.981-1.147-1.147l-4.113-1.241
			c-0.166-0.05-0.333-0.073-0.497-0.073c-0.737,0-1.418,0.478-1.643,1.22c-0.273,0.908,0.24,1.865,1.147,2.138l0.668,0.201
			c-0.65,0.553-1.772,1.158-3.297,0.672c-2.504-0.843-2.372-3.437-2.372-3.437c-0.021-1.785-2.386-2.762-3.699-1.643
			c-0.869,0.738-0.852,1.467-0.864,1.814c0,0,0.08,5.805,5.51,7.584c0.003,0.002,0.005,0.002,0.008,0.003
			c0.003,0.001,0.003,0.001,0.008,0.002c3.762,1.232,6.595-0.61,7.982-1.859l0.263,0.87c0.273,0.906,1.23,1.42,2.138,1.147
			C19.041,21.153,19.555,20.196,19.281,19.289z"/>
	</g>
	<path fill="#312416" d="M27.912,3.833c0-1.286,0.895-2.152,2.152-2.152h4.64c6.261,0,9.839,4.025,9.839,10.229
		c0,5.87-3.801,9.67-9.559,9.67H30.12c-0.921,0-2.208-0.502-2.208-2.096V3.833z M32.104,17.725h2.824
		c3.604,0,5.254-2.655,5.254-6.009c0-3.578-1.677-6.177-5.535-6.177h-2.543V17.725z"/>
	<path fill="#312416" d="M60.278,14.175c0,4.192-2.879,7.742-7.212,7.742c-4.332,0-7.211-3.55-7.211-7.742
		c0-4.081,2.963-7.798,7.211-7.798C57.315,6.376,60.278,10.094,60.278,14.175z M49.88,14.175c0,1.929,1.006,4.053,3.186,4.053
		c2.181,0,3.187-2.124,3.187-4.053s-0.979-4.108-3.187-4.108C50.859,10.066,49.88,12.246,49.88,14.175z"/>
	<path fill="#312416" d="M61.982,8.78c0-1.341,0.838-2.235,2.012-2.235c1.118,0,1.76,0.614,2.013,1.676
		c0.753-1.23,2.319-1.845,3.828-1.845c4.333,0,6.484,4.053,6.484,7.966c0,3.802-2.571,7.575-6.624,7.575
		c-1.258,0-2.627-0.476-3.689-1.397v4.919c0,1.342-0.839,2.236-2.013,2.236c-1.174,0-2.012-0.895-2.012-2.236V8.78z M69.165,18.228
		c2.097,0,3.131-2.18,3.131-4.053c0-1.9-1.034-4.108-3.131-4.108c-2.151,0-3.157,2.012-3.157,3.969
		C66.008,15.991,66.958,18.228,69.165,18.228z"/>
	<path fill="#312416" d="M78.025,8.78c0-1.341,0.839-2.235,2.012-2.235c1.118,0,1.76,0.614,2.013,1.676
		c0.754-1.23,2.319-1.845,3.829-1.845c4.332,0,6.485,4.053,6.485,7.966c0,3.802-2.572,7.575-6.625,7.575
		c-1.257,0-2.627-0.476-3.688-1.397v4.919c0,1.342-0.839,2.236-2.013,2.236c-1.173,0-2.012-0.895-2.012-2.236V8.78z M85.208,18.228
		c2.096,0,3.13-2.18,3.13-4.053c0-1.9-1.034-4.108-3.13-4.108c-2.153,0-3.158,2.012-3.158,3.969
		C82.05,15.991,83,18.228,85.208,18.228z"/>
	<path fill="#312416" d="M94.011,2.296c0-1.342,0.838-2.236,2.012-2.236s2.012,0.895,2.012,2.236v17.218
		c0,1.342-0.838,2.235-2.012,2.235s-2.012-0.894-2.012-2.235V2.296z"/>
	<path fill="#312416" d="M103.515,15.488c0.279,1.984,1.928,2.907,3.801,2.907c2.068,0,3.493-1.621,4.556-1.621
		c0.866,0,1.649,0.866,1.649,1.732c0,1.733-3.578,3.41-6.569,3.41c-4.527,0-7.546-3.298-7.546-7.742
		c0-4.081,2.963-7.798,7.211-7.798c4.359,0,7.238,3.969,7.238,7.323c0,1.201-0.53,1.789-1.761,1.789H103.515z M109.831,12.805
		c-0.225-1.761-1.343-3.075-3.215-3.075c-1.789,0-2.99,1.37-3.187,3.075H109.831z"/>
	<path fill="#312416" d="M115.224,8.557c0-1.342,1.062-2.012,2.068-2.012c1.063,0,1.956,0.391,1.956,1.676h0.056
		c0.756-1.118,1.565-1.676,2.824-1.676c0.979,0,1.955,0.698,1.955,2.152c0,1.314-1.201,1.397-2.402,1.956
		c-1.202,0.559-2.433,1.091-2.433,2.684v6.177c0,1.342-0.839,2.235-2.013,2.235c-1.173,0-2.012-0.894-2.012-2.235V8.557z"/>
	<path fill="#312416" d="M132.189,3.861c0-1.342,0.754-2.18,2.151-2.18h4.919c4.305,0,6.959,1.929,6.959,6.317
		c0,3.074-2.319,4.835-5.17,5.282l4.751,5.087c0.393,0.42,0.56,0.839,0.56,1.23c0,1.09-0.867,2.151-2.096,2.151
		c-0.504,0-1.175-0.195-1.622-0.727l-6.205-7.519h-0.056v6.064c0,1.398-0.895,2.181-2.096,2.181c-1.203,0-2.096-0.782-2.096-2.181
		V3.861z M136.381,10.485h2.879c1.537,0,2.6-0.922,2.6-2.487c0-1.593-1.062-2.46-2.6-2.46h-2.879V10.485z"/>
	<path fill="#E78224" d="M157.092,12.805c-0.279-1.985-1.93-2.907-3.801-2.907c-2.068,0-3.495,1.621-4.556,1.621
		c-0.867,0-1.649-0.866-1.649-1.733c0-1.733,3.577-3.41,6.567-3.41c4.527,0,7.547,3.298,7.547,7.743c0,4.08-2.963,7.798-7.211,7.798
		c-4.36,0-7.24-3.969-7.24-7.323c0-1.202,0.532-1.789,1.762-1.789H157.092z M150.775,15.488c0.223,1.761,1.34,3.074,3.214,3.074
		c1.789,0,2.991-1.368,3.186-3.074H150.775z"/>
	<path fill="#312416" d="M162.569,2.296c0-1.342,0.838-2.236,2.012-2.236s2.012,0.895,2.012,2.236v17.218
		c0,1.342-0.838,2.235-2.012,2.235s-2.012-0.894-2.012-2.235V2.296z"/>
	<path fill="#312416" d="M182.58,19.122c0,1.034,0,2.627-1.929,2.627c-1.173,0-1.648-0.643-1.928-1.705
		c-1.034,1.231-2.293,1.873-3.83,1.873c-3.773,0-6.651-3.215-6.651-7.742c0-4.416,2.962-7.798,6.651-7.798
		c1.481,0,2.935,0.587,3.83,1.845c0.111-0.978,0.95-1.676,1.928-1.676c1.929,0,1.929,1.593,1.929,2.627V19.122z M175.454,18.228
		c2.096,0,3.101-2.124,3.101-4.053s-0.978-4.108-3.101-4.108c-2.208,0-3.188,2.18-3.188,4.108S173.272,18.228,175.454,18.228z"/>
	<path fill="#312416" d="M183.865,9.311c-0.113-0.307-0.196-0.614-0.196-1.034c0-1.006,1.062-1.732,1.9-1.732
		c0.979,0,1.679,0.531,2.012,1.425l2.769,7.574l2.964-7.574c0.335-0.894,1.034-1.425,2.012-1.425c0.839,0,1.9,0.726,1.9,1.732
		c0,0.419-0.057,0.727-0.196,1.034l-6.735,16.771c-0.336,0.838-0.951,1.593-1.901,1.593c-1.369,0-2.097-0.867-2.097-1.733
		c0-0.391,0.112-0.811,0.252-1.174l1.762-4.36L183.865,9.311z"/>
</g>
</svg>
