<?xml version="1.0" encoding="utf-8"?>
<!-- Generator: Adobe Illustrator 14.0.0, SVG Export Plug-In . SVG Version: 6.00 Build 43363)  -->
<!DOCTYPE svg PUBLIC "-//W3C//DTD SVG 1.1//EN" "http://www.w3.org/Graphics/SVG/1.1/DTD/svg11.dtd">
<svg version="1.1" id="Layer_1" xmlns="http://www.w3.org/2000/svg" xmlns:xlink="http://www.w3.org/1999/xlink" x="0px" y="0px"
	 width="50px" height="50px" viewBox="0 0 50 50" enable-background="new 0 0 50 50" xml:space="preserve">
<g>
	<path fill-rule="evenodd" clip-rule="evenodd" fill="#E88225" d="M0,25C0,11.19,11.19,0,25,0c13.811,0,25,11.19,25,25
		c0,13.811-11.189,25-25,25C11.19,50,0,38.811,0,25z"/>
	<g>
		<path fill="#FFFFFF" d="M15.22,21.05c0.2,0.69,0.74,1.23,1.42,1.44l5.07,1.56c0.21,0.06,0.41,0.09,0.62,0.09
			c0.91,0,1.75-0.6,2.02-1.53c0.34-1.14-0.29-2.34-1.41-2.69l-0.85-0.26c0.8-0.69,2.19-1.44,4.061-0.83
			c3.09,1.06,2.93,4.31,2.93,4.31c0.02,2.24,2.949,3.469,4.57,2.07c1.07-0.93,1.05-1.85,1.06-2.28c0,0-0.101-7.29-6.8-9.52
			L27.9,13.4h-0.01c-4.621-1.54-8.111,0.74-9.831,2.31l-0.32-1.07c-0.33-1.14-1.52-1.78-2.64-1.44c-1.12,0.34-1.75,1.55-1.41,2.69
			L15.22,21.05z"/>
		<path fill="#FFFFFF" d="M33.09,28.859c-0.21-0.689-0.74-1.229-1.42-1.439l-5.07-1.56c-0.209-0.06-0.41-0.09-0.62-0.09
			c-0.91,0-1.75,0.6-2.02,1.53c-0.34,1.14,0.29,2.341,1.41,2.69l0.851,0.26c-0.801,0.689-2.191,1.439-4.061,0.83
			c-3.09-1.061-2.93-4.311-2.93-4.311c-0.03-2.25-2.95-3.47-4.57-2.069c-1.07,0.93-1.05,1.84-1.06,2.28c0,0,0.1,7.289,6.8,9.52
			l0.01,0.01h0.01c4.62,1.54,8.109-0.74,9.83-2.31l0.32,1.069c0.33,1.141,1.52,1.78,2.64,1.44c1.12-0.351,1.75-1.55,1.41-2.69
			L33.09,28.859z"/>
	</g>
</g>
<path fill-rule="evenodd" clip-rule="evenodd" fill="#E88225" d="M0,25C0,11.19,11.19,0,25,0c13.811,0,25,11.19,25,25
	c0,13.811-11.189,25-25,25C11.19,50,0,38.811,0,25z"/>
<path fill="#FFFFFF" d="M15.22,21.05c0.2,0.69,0.74,1.23,1.42,1.44l5.07,1.56c0.21,0.06,0.41,0.09,0.62,0.09
	c0.91,0,1.75-0.6,2.02-1.53c0.34-1.14-0.29-2.34-1.41-2.69l-0.85-0.26c0.8-0.69,2.19-1.44,4.061-0.83c3.09,1.06,2.93,4.31,2.93,4.31
	c0.02,2.24,2.949,3.469,4.57,2.07c1.07-0.93,1.05-1.85,1.06-2.28c0,0-0.101-7.29-6.8-9.52L27.9,13.4h-0.01
	c-4.621-1.54-8.111,0.74-9.831,2.31l-0.32-1.07c-0.33-1.14-1.52-1.78-2.64-1.44c-1.12,0.34-1.75,1.55-1.41,2.69L15.22,21.05z"/>
<path fill="#FFFFFF" d="M33.09,28.859c-0.21-0.689-0.74-1.229-1.42-1.439l-5.07-1.56c-0.209-0.06-0.41-0.09-0.62-0.09
	c-0.91,0-1.75,0.6-2.02,1.53c-0.34,1.14,0.29,2.341,1.41,2.69l0.851,0.26c-0.801,0.689-2.191,1.439-4.061,0.83
	c-3.09-1.061-2.93-4.311-2.93-4.311c-0.03-2.25-2.95-3.47-4.57-2.069c-1.07,0.93-1.05,1.84-1.06,2.28c0,0,0.1,7.289,6.8,9.52
	l0.01,0.01h0.01c4.62,1.54,8.109-0.74,9.83-2.31l0.32,1.069c0.33,1.141,1.52,1.78,2.64,1.44c1.12-0.351,1.75-1.55,1.41-2.69
	L33.09,28.859z"/>
</svg>
