<?xml version="1.0" standalone="no"?><!-- Generator: Adobe Fireworks CS6, Export SVG Extension by Aaron Beall (http://fireworks.abeall.com) . Version: 0.6.1  --><!DOCTYPE svg PUBLIC "-//W3C//DTD SVG 1.1//EN" "http://www.w3.org/Graphics/SVG/1.1/DTD/svg11.dtd"><svg id="Untitled-Page%201" viewBox="0 0 285 185" version="1.1"	xmlns="http://www.w3.org/2000/svg" xmlns:xlink="http://www.w3.org/1999/xlink" xml:space="preserve"	x="0px" y="0px" width="285px" height="185px">	<g>		<path d="M 206.1309 89.9873 C 206.1309 87.8457 207.8672 86.1094 210.0088 86.1094 C 212.1509 86.1094 213.8867 87.8457 213.8867 89.9873 C 213.8867 92.1289 212.1509 93.8652 210.0088 93.8652 C 207.8672 93.8652 206.1309 92.1289 206.1309 89.9873 Z" fill="#e58223"/>		<path d="M 188.1309 89.9873 C 188.1309 87.8457 189.8672 86.1094 192.0088 86.1094 C 194.1509 86.1094 195.8867 87.8457 195.8867 89.9873 C 195.8867 92.1289 194.1509 93.8652 192.0088 93.8652 C 189.8672 93.8652 188.1309 92.1289 188.1309 89.9873 Z" fill="#e58223"/>		<path d="M 170.1309 89.9873 C 170.1309 87.8457 171.8672 86.1094 174.0088 86.1094 C 176.1509 86.1094 177.8867 87.8457 177.8867 89.9873 C 177.8867 92.1289 176.1509 93.8652 174.0088 93.8652 C 171.8672 93.8652 170.1309 92.1289 170.1309 89.9873 Z" fill="#e58223"/>		<path d="M 164.1201 84 L 215.9551 84 L 215.9551 83.8584 " stroke="#e68222" stroke-width="2" fill="none"/>		<g>			<path d="M 239.0481 1 L 8.4901 1 C 4.5866 1 1 4.5894 1 8.4648 L 1 10.4502 L 1 151.6721 L 1 153.6039 C 1 157.4784 4.5925 160 8.4901 160 L 239.0481 160 C 242.9515 160 246 157.3229 246 153.4485 L 246 151.6721 L 246 10.4502 L 246 8.3084 C 246 4.4339 242.9457 1 239.0481 1 Z" stroke="#e68222" stroke-width="2" fill="#fbede0"/>			<path d="M 11.5 15.5 L 231.5 15.5 L 231.5 133.5 L 11.5 133.5 L 11.5 15.5 Z" stroke="#e68222" stroke-width="1" fill="#fdfbf8"/>			<path d="M 148.5 183.5 L 94.5 183.5 L 94.5 160.5 L 148.5 160.5 L 148.5 183.5 Z" stroke="#e68222" stroke-width="3" fill="#f3c396"/>			<path d="M 127.1735 146.2527 C 127.1735 148.332 125.4826 150.0181 123.397 150.0181 C 121.3113 150.0181 119.6208 148.332 119.6208 146.2527 C 119.6208 144.1734 121.3113 142.4872 123.397 142.4872 C 125.4826 142.4872 127.1735 144.1734 127.1735 146.2527 Z" fill="#e78528"/>			<path d="M 171 180 L 76 180 L 76 184 L 171 184 L 171 180 Z" stroke="#e68222" stroke-width="2" fill="#fbede0"/>			<path d="M 149.2189 97.8533 C 146.221 97.8533 143.5555 99.2669 141.8521 101.4615 L 147.5472 107.1409 L 141.8525 112.8194 C 143.556 115.0131 146.221 116.4267 149.2189 116.4267 C 154.3625 116.4267 158.532 112.269 158.532 107.14 C 158.532 102.011 154.3625 97.8533 149.2189 97.8533 Z" stroke="#e68222" stroke-width="2" fill="#fbede0"/>			<path d="M 20.2697 98 L 56.3618 98 L 56.3618 97.8533 " stroke="#e68222" stroke-width="2" fill="none"/>			<path d="M 56 97.8533 L 56 120.5585 L 56.3618 120.5585 " stroke="#e68222" stroke-width="2" fill="none"/>			<path d="M 56.3618 121 L 221.6835 121 L 221.6835 120.5585 " stroke="#e68222" stroke-width="2" fill="none"/>			<path d="M 83.2867 106.8004 C 83.2867 104.8409 84.88 103.2521 86.8452 103.2521 C 88.8107 103.2521 90.4036 104.8409 90.4036 106.8004 C 90.4036 108.76 88.8107 110.3488 86.8452 110.3488 C 84.88 110.3488 83.2867 108.76 83.2867 106.8004 Z" fill="#e58223"/>			<path d="M 99.8036 106.8004 C 99.8036 104.8409 101.3969 103.2521 103.362 103.2521 C 105.3276 103.2521 106.9204 104.8409 106.9204 106.8004 C 106.9204 108.76 105.3276 110.3488 103.362 110.3488 C 101.3969 110.3488 99.8036 108.76 99.8036 106.8004 Z" fill="#e58223"/>			<path d="M 66.7699 106.8004 C 66.7699 104.8409 68.3632 103.2521 70.3283 103.2521 C 72.2939 103.2521 73.8867 104.8409 73.8867 106.8004 C 73.8867 108.76 72.2939 110.3488 70.3283 110.3488 C 68.3632 110.3488 66.7699 108.76 66.7699 106.8004 Z" fill="#e58223"/>			<path d="M 66.7699 68.3705 C 66.7699 66.4109 68.3632 64.8221 70.3283 64.8221 C 72.2939 64.8221 73.8867 66.4109 73.8867 68.3705 C 73.8867 70.33 72.2939 71.9188 70.3283 71.9188 C 68.3632 71.9188 66.7699 70.33 66.7699 68.3705 Z" fill="#e58223"/>			<path d="M 159.3376 71.9178 C 157.3724 71.9178 155.7792 70.3291 155.7792 68.3705 C 155.7792 66.41 157.3724 64.8213 159.3376 64.8213 C 161.3027 64.8213 162.896 66.41 162.896 68.3705 C 162.896 70.3291 161.3027 71.9178 159.3376 71.9178 Z" fill="#e58223"/>			<path d="M 159.3376 55.4479 C 157.3724 55.4479 155.7792 53.8591 155.7792 51.9005 C 155.7792 49.94 157.3724 48.3513 159.3376 48.3513 C 161.3027 48.3513 162.896 49.94 162.896 51.9005 C 162.896 53.8591 161.3027 55.4479 159.3376 55.4479 Z" fill="#e58223"/>			<path d="M 159.3376 38.0629 C 157.3724 38.0629 155.7792 36.4741 155.7792 34.5154 C 155.7792 32.555 157.3724 30.9662 159.3376 30.9662 C 161.3027 30.9662 162.896 32.555 162.896 34.5154 C 162.896 36.4741 161.3027 38.0629 159.3376 38.0629 Z" fill="#e58223"/>			<path d="M 159.3376 22.5079 C 157.3724 22.5079 155.7792 20.9191 155.7792 18.9604 C 155.7792 17 162.896 17 162.896 18.9604 C 162.896 20.9191 161.3027 22.5079 159.3376 22.5079 Z" fill="#e58223"/>			<path d="M 159.3376 89.3029 C 157.3724 89.3029 155.7792 87.7141 155.7792 85.7555 C 155.7792 83.795 157.3724 82.2062 159.3376 82.2062 C 161.3027 82.2062 162.896 83.795 162.896 85.7555 C 162.896 87.7141 161.3027 89.3029 159.3376 89.3029 Z" fill="#e58223"/>			<path d="M 66.7699 85.7555 C 66.7699 83.7959 68.3632 82.2072 70.3283 82.2072 C 72.2939 82.2072 73.8867 83.7959 73.8867 85.7555 C 73.8867 87.715 72.2939 89.3037 70.3283 89.3037 C 68.3632 89.3037 66.7699 87.715 66.7699 85.7555 Z" fill="#e58223"/>			<path d="M 66.7699 51.9005 C 66.7699 49.9409 68.3632 48.3521 70.3283 48.3521 C 72.2939 48.3521 73.8867 49.9409 73.8867 51.9005 C 73.8867 53.86 72.2939 55.4488 70.3283 55.4488 C 68.3632 55.4488 66.7699 53.86 66.7699 51.9005 Z" fill="#e58223"/>			<path d="M 66.7699 34.5154 C 66.7699 32.5559 68.3632 30.9671 70.3283 30.9671 C 72.2939 30.9671 73.8867 32.5559 73.8867 34.5154 C 73.8867 36.475 72.2939 38.0638 70.3283 38.0638 C 68.3632 38.0638 66.7699 36.475 66.7699 34.5154 Z" fill="#e58223"/>			<path d="M 66.7699 18.9604 C 66.7699 17.0009 73.8867 17.0009 73.8867 18.9604 C 73.8867 20.92 72.2939 22.5088 70.3283 22.5088 C 68.3632 22.5088 66.7699 20.92 66.7699 18.9604 Z" fill="#e58223"/>			<path d="M 51.1707 85.7555 C 51.1707 83.7959 52.7639 82.2072 54.7291 82.2072 C 56.6946 82.2072 58.2875 83.7959 58.2875 85.7555 C 58.2875 87.715 56.6946 89.3037 54.7291 89.3037 C 52.7639 89.3037 51.1707 87.715 51.1707 85.7555 Z" fill="#e58223"/>			<path d="M 17.2194 85.7555 C 17.2194 83.7959 18.8126 82.2072 20.7778 82.2072 C 22.7433 82.2072 24.3361 83.7959 24.3361 85.7555 C 24.3361 87.715 22.7433 89.3037 20.7778 89.3037 C 18.8126 89.3037 17.2194 87.715 17.2194 85.7555 Z" fill="#e58223"/>			<path d="M 35.5714 85.7555 C 35.5714 83.7959 37.1647 82.2072 39.1298 82.2072 C 41.0954 82.2072 42.6882 83.7959 42.6882 85.7555 C 42.6882 87.715 41.0954 89.3037 39.1298 89.3037 C 37.1647 89.3037 35.5714 87.715 35.5714 85.7555 Z" fill="#e58223"/>			<path d="M 19.9722 71 L 56.6297 71 L 56.6297 71.1503 " stroke="#e68222" stroke-width="2" fill="none"/>			<path d="M 57 71.1271 L 57 21.7171 L 56.5562 21.7171 " stroke="#e68222" stroke-width="2" fill="none"/>			<path d="M 84 72.0421 L 84 22.6321 L 84.0843 22.6321 " stroke="#e68222" stroke-width="2" fill="none"/>			<path d="M 84 71.1503 L 84 92.0425 L 84.1578 92.0425 " stroke="#e68222" stroke-width="2" fill="none"/>			<path d="M 84.9607 92 L 145.5225 92 L 145.5225 92.0425 " stroke="#e68222" stroke-width="2" fill="none"/>			<path d="M 146 21.5875 L 146 92.0425 L 145.5229 92.0425 " stroke="#e68222" stroke-width="2" fill="none"/>			<path d="M 173 21.5875 L 173 92.0425 L 173.202 92.0425 " stroke="#e68222" stroke-width="2" fill="none"/>			<path d="M 126.5559 97.2582 C 121.9312 97.2582 118 100.9959 118 105.6067 L 118 113.9569 C 118 113.9569 118 116.3427 119.1959 116.3427 C 120.3922 116.3427 120.4631 113.9569 121.6594 113.9569 C 122.8557 113.9569 122.8557 116.3427 124.052 116.3427 C 125.2479 116.3427 125.2479 113.9569 126.4442 113.9569 C 127.6404 113.9569 127.6404 116.3427 128.8362 116.3427 C 130.0325 116.3427 130.0325 113.9569 131.2288 113.9569 C 132.4251 113.9569 132.6079 116.3427 133.8042 116.3427 C 135 116.3427 135 113.9569 135 113.9569 L 135 105.6067 C 135 100.9959 131.1807 97.2582 126.5559 97.2582 Z" fill="#e68222"/>			<path d="M 121.3628 106.0856 C 120.3717 106.0856 119.5684 105.285 119.5684 104.2976 C 119.5684 103.3084 120.3717 102.5078 121.3628 102.5078 C 122.3539 102.5078 123.1572 103.3084 123.1572 104.2976 C 123.1572 105.285 122.3539 106.0856 121.3628 106.0856 Z" fill="#ffffff"/>			<path d="M 126.0064 106.0856 C 125.0148 106.0856 124.212 105.285 124.212 104.2976 C 124.212 103.3084 125.0148 102.5078 126.0064 102.5078 C 126.997 102.5078 127.8004 103.3084 127.8004 104.2976 C 127.8004 105.285 126.997 106.0856 126.0064 106.0856 Z" fill="#ffffff"/>		</g>		<path d="M 283.5 183.5 L 283.5 167.4355 C 283.5 140.5098 256.4297 119.0449 222.6563 119.0449 C 188.8818 119.0449 161.5 140.876 161.5 167.8018 L 161.5 183.5 L 283.5 183.5 Z" stroke="#e78528" stroke-width="3" fill="#efaf71"/>		<path d="M 246.668 122.9473 C 239.2979 120.4375 231.1846 119.0449 222.6631 119.0449 C 212.9688 119.0449 203.8037 120.8467 195.6602 124.0479 C 201.1904 131.9883 210.3857 137.1875 220.7988 137.1875 C 231.6836 137.1875 241.2383 131.5068 246.668 122.9473 Z" stroke="#e78528" stroke-width="2" fill="#fbeddf"/>		<path d="M 270.0537 80.0684 C 269.9551 80.0684 269.8594 80.0791 269.7607 80.083 C 269.8291 79.0293 269.874 77.9717 269.874 76.9004 C 269.874 49.5771 247.7246 27.4277 220.4014 27.4277 C 193.0791 27.4277 170.9297 49.5771 170.9297 76.9004 C 170.9297 77.9717 170.9746 79.0293 171.043 80.0811 C 170.9512 80.0791 170.8633 80.0684 170.7705 80.0684 C 167.1797 80.0684 164.2686 82.9795 164.2686 86.5713 C 164.2686 90.1621 167.1797 93.0713 170.7705 93.0713 C 171.7285 93.0713 172.6338 92.8604 173.4502 92.4893 C 179.9824 112.1709 198.5273 126.374 220.4014 126.374 C 242.2793 126.374 260.8271 112.167 267.3555 92.4805 C 268.1787 92.8574 269.0898 93.0713 270.0537 93.0713 C 273.6445 93.0713 276.5557 90.1621 276.5557 86.5713 C 276.5557 82.9795 273.6445 80.0684 270.0537 80.0684 Z" stroke="#e78528" stroke-width="2" fill="#fbeddf"/>		<path d="M 193 65.6895 C 197.5742 65.3828 202.6191 65.1484 208 65.0049 L 208 55.0342 C 202.6191 55.4443 197.5742 56.1084 193 56.9795 L 193 65.6895 Z" fill="#e68325"/>		<path d="M 172.043 68.3936 C 175.3975 67.4766 180.9365 66.6768 188 66.0693 L 188 58.0596 C 181.5869 59.625 176.4326 61.6416 173.0234 63.9482 C 172.6299 65.4043 172.3037 66.8877 172.043 68.3936 Z" fill="#e68325"/>		<path d="M 233 64.9912 C 238.3672 65.1279 243.417 65.3525 248 65.6504 L 248 56.8701 C 243.417 56.0215 238.3672 55.3848 233 54.9951 L 233 64.9912 Z" fill="#e68325"/>		<path d="M 228 54.71 C 225.6387 54.6104 223.6006 54.5557 221.1504 54.5557 C 218.5059 54.5557 215.5391 54.6162 213 54.7314 L 213 64.8975 C 215.5391 64.8574 218.5059 64.8359 221.1504 64.8359 C 223.6006 64.8359 225.6387 64.8555 228 64.8896 L 228 54.71 Z" fill="#e68325"/>		<path d="M 268.5137 63.9307 C 265.0049 61.5654 259.6553 59.5059 253 57.9258 L 253 66.0225 C 260.3154 66.6338 266.0527 67.4492 269.498 68.3877 C 269.2363 66.877 268.9092 65.3896 268.5137 63.9307 Z" fill="#e68325"/>		<path d="M 246.3037 83.6299 C 246.3037 86.9141 243.6406 89.5771 240.3564 89.5771 C 237.0723 89.5771 234.4082 86.9141 234.4082 83.6299 L 234.4082 83.6299 " stroke="#e68325" stroke-width="2" fill="none"/>		<path d="M 228.6104 104 C 228.6104 107.2842 225.9482 109.9893 222.6631 109.9893 C 219.3789 109.9893 216.7168 107.2842 216.7168 104 L 228.6104 104 Z" fill="#e68325"/>		<path d="M 212.9873 83.6299 C 212.9873 86.9141 210.3252 89.5771 207.04 89.5771 C 203.7549 89.5771 201.0928 86.9141 201.0928 83.6299 L 201.0928 83.6299 " stroke="#e68325" stroke-width="2" fill="none"/>		<path d="M 220.4121 57.3857 C 241.8887 57.3857 260.4629 60.7803 269.4092 65.7168 C 264.625 43.043 244.5098 26.0234 220.4131 26.0234 C 196.3164 26.0234 176.2002 43.043 171.416 65.7168 C 180.3623 60.7803 198.9365 57.3857 220.4121 57.3857 Z" fill="#e68325"/>	</g></svg>