<?xml version="1.0" encoding="utf-8"?>
<!-- Generator: Adobe Illustrator 19.0.0, SVG Export Plug-In . SVG Version: 6.00 Build 0)  -->
<svg version="1.1" id="Layer_1" xmlns="http://www.w3.org/2000/svg" xmlns:xlink="http://www.w3.org/1999/xlink" x="0px" y="0px" viewBox="-601 182 76 38" style="enable-background:new -601 182 76 38;" xml:space="preserve">
<style type="text/css">
	.st0{fill:#7F7972;}
</style>
<title>Group 5</title>
<desc>Created with Sketch.</desc>
<g id="Page-1" transform="translate(13.723772, 16.916255) scale(1, -1) rotate(-55.000000) translate(-13.723772, -16.916255) translate(-3.776228, 12.416255)">
	<g id="Clip-2">
	</g>
	<g id="Clip-5">
	</g>
</g>
<g>
	<path class="st0" d="M-564.9,205.7l-0.5-0.3c-1.6-0.9-2.8-1.4-3.7-1.7c-0.5-0.2-1-0.4-1.3-0.6c-0.1-0.1-0.2-0.2-0.2-0.2
		c0,0,0-0.1,0-0.1c0-0.1,0-0.2,0-0.3v-0.1c0-0.7-0.4-1.1-0.8-1.1h0c-0.6,0-1.1,0.5-1.2,1.2l-0.1,0.1c-0.1,0-0.3-0.1-0.6-0.1
		c-0.6-0.2-1.1-0.3-1.4-0.3c-0.7,0-1,0.3-1.1,0.9v0.1c0,0.8,0.8,1,2.3,1.3c0.5,0.1,0.8,0.1,0.9,0.2c0.2,0.1,0.3,0.7,0.3,1.9
		c0,0.4,0,0.6,0,0.6c0.2,1.3,0.4,2.8,0.6,4.5l-0.1,0.1c0,0,0,0-0.1,0h-0.1c-0.3,0-0.6-0.1-0.7-0.1c-0.6,0-1,0.2-1.1,0.6
		c0,0.1-0.1,0.3-0.1,0.4c0,0.2,0,0.3,0.1,0.5c0.2,0.3,0.9,0.5,1.9,0.5c0.2,0,0.3,0,0.4,0c0.2,0,0.4,0.1,0.7,0.2
		c0.3,0.1,0.5,0.2,0.7,0.2c0.3,0,0.5-0.1,0.8-0.3c0.1,0,0.1-0.1,0.1-0.2v-0.2l0-0.1l0.3-0.1c0.4-0.1,0.7-0.2,0.8-0.2
		c1.8-0.5,3.2-1,4.2-1.7c0.7-0.4,1.1-1,1.4-1.5c0.2-0.4,0.3-0.7,0.3-1.1c0-0.3-0.1-0.6-0.2-0.9
		C-562.7,207.1-563.5,206.4-564.9,205.7z M-564.2,208.9c0,0.5-0.6,1-1.7,1.5l-0.2,0.1c-0.9,0.4-2.2,0.8-3.8,1.1
		c-0.2-0.2-0.4-0.9-0.5-2c0-0.2,0-0.3,0-0.4l-0.1-1c-0.2-1.3-0.2-2.3-0.2-2.9c0.1,0,0.2,0,0.3,0c0.7,0,1.7,0.4,3.1,1l0.5,0.2
		C-565.1,207.3-564.2,208.1-564.2,208.9L-564.2,208.9z"/>
	<path class="st0" d="M-556,207.9c0-0.4-0.6-0.8-1.1-0.8h0c-1.3,0-2.9,1.9-3.2,3.2c-0.1-1-0.3-1.7-0.8-2c-0.1-0.1-0.2-0.1-0.3-0.1
		c-0.1,0-0.2,0-0.3,0.1c-0.2,0.1-0.3,0.4-0.4,0.7c0,1.7,0.4,4,1.3,4.8c0.2,0.2,0.3,0.2,0.5,0.2c0.3,0,0.6-0.4,0.8-1.2
		c0.5-2.2,1.8-3.9,3.5-4.7C-556.1,208-556,207.9-556,207.9z"/>
	<path class="st0" d="M-550.2,211.7c-0.1-0.3-0.2-0.7-0.4-1.3c0-0.2-0.1-0.3-0.1-0.3l-0.1-0.5c-0.2-1.5-0.4-2.4-0.9-2.4h-0.1
		c-0.7,0-1.8,0.6-3.4,1.8c-1.2,1.4-1.8,2.5-1.8,3.4c0.1,0.9,0.6,1.4,1.4,1.4c0.1,0,0.3,0,0.4-0.1c1.3-0.4,1.8-1.1,2.4-2l0.5-0.9
		c0.3,0.2,0.5,0.7,0.7,1.4c0.2,0.7,0.5,1.2,0.7,1.4c0.1,0.1,0.3,0.2,0.4,0.2c0.4,0,0.9-0.3,0.9-0.7c0-0.3-0.1-0.6-0.4-1
		C-550,212-550.1,211.8-550.2,211.7z M-555.1,212.2c0-0.4,0.8-2,1.5-2.8c0.2-0.3,0.5-0.4,0.7-0.4c0.1,0,0.2,0,0.2,0.1
		C-552.8,210.2-554.2,212.2-555.1,212.2z"/>
	<path class="st0" d="M-545.3,207.3h-0.2c-2.3,0-3.8,1.9-3.8,3.7c0,0.2,0,0.4,0,0.6c0.1,0.9,0.9,1.7,1.7,1.7c0.1,0,0.3,0,0.4-0.1
		c0.5-0.2,1-0.6,1.5-1.5c0.2-0.4,0.4-0.6,0.5-0.8c0,0.1,0,0.2,0,0.4c0,0.4,0,0.8,0.1,1.4c0,0.4,0,0.8,0,1.1c0,1-0.1,1.7-0.3,2.3
		c-0.2,0.5-0.5,0.8-0.9,0.8c-0.6,0-1.3-0.6-1.7-1.3c-0.3-0.6-0.6-0.8-0.9-0.8c-0.1,0-0.1,0-0.2,0c-0.2,0.2-0.3,0.4-0.3,0.6
		c0,0.4,0.2,0.8,0.5,1.4c0.1,0.1,0.1,0.2,0.2,0.4c0.2,0.3,0.4,0.6,0.7,0.8c0.5,0.4,1.1,0.6,1.7,0.6c0.2,0,0.3,0,0.5-0.1
		c0.7-0.1,1.2-0.6,1.6-1.4c0.5-1,0.6-2.2,0.6-4.1c0-0.6,0-1.4,0-2.2l0-0.3c0-0.1,0-0.3-0.1-0.5c0-0.4-0.1-0.7-0.1-1
		c0-0.5,0.1-0.8,0.2-0.9l0,0v-0.1C-543.3,207.6-544.6,207.3-545.3,207.3z M-545.4,209.2c-1.1,1.6-1.8,2.5-2.1,2.5c0,0,0,0,0,0
		c-0.2-0.1-0.2-0.3-0.2-0.5c0-0.1,0-0.2,0-0.4c0.1-0.4,0.2-0.7,0.4-1c0.4-0.6,1.3-1,1.9-1c0.2,0,0.2,0,0.3,0.1
		C-545.2,208.8-545.3,208.9-545.4,209.2z"/>
	<path class="st0" d="M-536.6,207.3c-0.3,0.2-0.6,0.7-0.9,1.5c-0.4,1.2-0.6,1.9-0.6,2.1h-0.2c0-0.1-0.2-0.6-0.5-1.7
		c-0.2-0.8-0.4-1.3-0.7-1.5c-0.2-0.1-0.4-0.2-0.5-0.2c-0.4,0-0.6,0.2-0.9,0.7c-0.2,0.2-0.2,0.5-1.1,0.6c-0.3,0-0.4,0.1-0.4,0.3
		c0,0.2-0.1,0.4-0.2,0.6c-0.1,0.2-0.2,0.4-0.1,0.5l0.1,0.4c0.2,1.1,0,1.2-0.2,2.6c0,0.4,0,0.7,0.7,0.7c0.1,0,0.2,0,0.4-0.1
		c0.2-0.2,0.4-0.5,0.6-1.1c0.6-1.8,0.9-2.6,0.9-2.7c0,0,0.1,0,0.1,0c0.2,0,0.3,0.3,0.4,0.7c0,0,0.4,3.3,1.1,3.3h0
		c0.9,0,1.4-1.8,1.7-2.8c0.2-0.5,0.3-0.8,0.4-0.8c0.2,0,0.3,0.5,0.6,1.4c0.4,1.4,0.6,1.8,1.5,2.1c0.1,0,0.2,0.1,0.3,0.1
		c0.2,0,0.4-0.1,0.4-0.5c-0.1-0.3-0.3-0.8-0.5-1.6C-534.6,210-535.1,207.5-536.6,207.3z"/>
	<path class="st0" d="M-526.1,209.8c-0.2,0-0.4,0.1-0.7,0.3c-0.2,0.1-0.6,0.6-1.2,1.4c-0.5,0.6-1,0.9-1.5,1c-0.1,0-0.2,0-0.3,0
		c-0.4,0-0.7-0.2-1-0.5c-0.1-0.2-0.2-0.3-0.2-0.4v0c0-0.1,0.1-0.2,0.5-0.3c0.2-0.1,0.3-0.1,0.4-0.2c0.6-0.4,0.9-0.9,0.9-1.6
		c0-0.2,0-0.5-0.1-0.7c-0.5-1.1-1.3-1.7-2.1-1.7c-0.1,0-0.3,0-0.4,0.1c-1.1,0.2-1.7,0.7-1.8,1.5c-0.1,0.4-0.1,0.8-0.1,1.2
		c0,0.8,0.2,1.5,0.5,2c1,1.4,2.2,2.1,3.4,2.1c0.2,0,0.5,0,0.7-0.1c1.4-0.5,3.1-2.3,3.2-3.7C-525.9,209.9-525.9,209.8-526.1,209.8z
		 M-531.8,210.7c-0.3-0.2-0.4-0.6-0.4-1.2c0-0.5,0.2-0.8,0.5-0.8h0.1c0.5,0.1,0.7,0.5,0.7,0.9c0,0,0,0.1,0,0.1
		C-530.9,210.3-531.3,210.7-531.8,210.7z"/>
	<path class="st0" d="M-579.6,208.9c-10.4-3.6-15.1-14.7-17.4-24.2c0.3,0.3,0.7,0.6,1.2,1c1.7,1.3,2.6,2,2.7,2l0,0
		c0.5-0.1,0.7-0.6,0.5-1.3c0,0-0.3-0.3-0.8-0.7c-1.8-1.3-3-2.3-3.7-3c-0.5-0.6-0.9-0.8-1.4-0.7l-0.2,0.1c-0.3,0.1-0.5,0.5-0.7,1.2
		c-0.3,1.6-0.6,3.1-0.8,4.7c0.3,0.3,0.6,0.4,1,0.3c0.1,0,0.3-0.1,0.3-0.1c0.1,0,0.2-0.3,0.3-0.8c0.1-0.7,0.2-1.3,0.3-1.8
		c0.6,2.4,1.4,4.7,2.4,6.9c2.3,5.5,5.6,11,10.6,14.5c1.7,1.2,3.7,2.1,5.7,2.7C-579.1,209.9-579.1,209.1-579.6,208.9z"/>
</g>
</svg>
