<?xml version="1.0" encoding="utf-8"?>
<!-- Generator: Adobe Illustrator 19.0.0, SVG Export Plug-In . SVG Version: 6.00 Build 0)  -->
<svg version="1.1" id="Layer_1" xmlns="http://www.w3.org/2000/svg" xmlns:xlink="http://www.w3.org/1999/xlink" x="0px" y="0px"
	 width="79.8px" height="38px" viewBox="-921 482 79.8 38" style="enable-background:new -921 482 79.8 38;" xml:space="preserve">
<style type="text/css">
	.st0{fill:#7F7972;}
</style>
<title>Group 5</title>
<desc>Created with Sketch.</desc>
<g id="Page-1" transform="translate(13.723772, 16.916255) scale(1, -1) rotate(-55.000000) translate(-13.723772, -16.916255) translate(-3.776228, 12.416255)">
	<g id="Clip-2">
	</g>
	<g id="Clip-5">
	</g>
</g>
<g>
	<path class="st0" d="M-884.9,506.4l-0.5-0.3c-1.6-0.9-2.8-1.4-3.7-1.7c-0.5-0.2-1-0.4-1.3-0.6c-0.1-0.1-0.2-0.2-0.2-0.2v-0.1
		c0-0.1,0-0.2,0-0.3v-0.1c0-0.7-0.4-1.1-0.8-1.1l0,0c-0.6,0-1.1,0.5-1.2,1.2l-0.1,0.1c-0.1,0-0.3-0.1-0.6-0.1
		c-0.6-0.2-1.1-0.3-1.4-0.3c-0.7,0-1,0.3-1.1,0.9v0.1c0,0.8,0.8,1,2.3,1.3c0.5,0.1,0.8,0.1,0.9,0.2c0.2,0.1,0.3,0.7,0.3,1.9
		c0,0.4,0,0.6,0,0.6c0.2,1.3,0.4,2.8,0.6,4.5l-0.1,0.1c0,0,0,0-0.1,0h-0.1c-0.3,0-0.6-0.1-0.7-0.1c-0.6,0-1,0.2-1.1,0.6
		c0,0.1-0.1,0.3-0.1,0.4c0,0.2,0,0.3,0.1,0.5c0.2,0.3,0.9,0.5,1.9,0.5c0.2,0,0.3,0,0.4,0c0.2,0,0.4,0.1,0.7,0.2
		c0.3,0.1,0.5,0.2,0.7,0.2c0.3,0,0.5-0.1,0.8-0.3c0.1,0,0.1-0.1,0.1-0.2v-0.2V514l0.3-0.1c0.4-0.1,0.7-0.2,0.8-0.2
		c1.8-0.5,3.2-1,4.2-1.7c0.7-0.4,1.1-1,1.4-1.5c0.2-0.4,0.3-0.7,0.3-1.1c0-0.3-0.1-0.6-0.2-0.9
		C-882.7,507.8-883.5,507.1-884.9,506.4z M-884.2,509.6c0,0.5-0.6,1-1.7,1.5l-0.2,0.1c-0.9,0.4-2.2,0.8-3.8,1.1
		c-0.2-0.2-0.4-0.9-0.5-2c0-0.2,0-0.3,0-0.4l-0.1-1c-0.2-1.3-0.2-2.3-0.2-2.9c0.1,0,0.2,0,0.3,0c0.7,0,1.7,0.4,3.1,1l0.5,0.2
		C-885.1,508-884.2,508.8-884.2,509.6L-884.2,509.6z"/>
	<path class="st0" d="M-876,508.6c0-0.4-0.6-0.8-1.1-0.8l0,0c-1.3,0-2.9,1.9-3.2,3.2c-0.1-1-0.3-1.7-0.8-2c-0.1-0.1-0.2-0.1-0.3-0.1
		s-0.2,0-0.3,0.1c-0.2,0.1-0.3,0.4-0.4,0.7c0,1.7,0.4,4,1.3,4.8c0.2,0.2,0.3,0.2,0.5,0.2c0.3,0,0.6-0.4,0.8-1.2
		c0.5-2.2,1.8-3.9,3.5-4.7C-876.1,508.7-876,508.6-876,508.6z"/>
	<path class="st0" d="M-870.2,512.4c-0.1-0.3-0.2-0.7-0.4-1.3c0-0.2-0.1-0.3-0.1-0.3l-0.1-0.5c-0.2-1.5-0.4-2.4-0.9-2.4h-0.1
		c-0.7,0-1.8,0.6-3.4,1.8c-1.2,1.4-1.8,2.5-1.8,3.4c0.1,0.9,0.6,1.4,1.4,1.4c0.1,0,0.3,0,0.4-0.1c1.3-0.4,1.8-1.1,2.4-2l0.5-0.9
		c0.3,0.2,0.5,0.7,0.7,1.4c0.2,0.7,0.5,1.2,0.7,1.4c0.1,0.1,0.3,0.2,0.4,0.2c0.4,0,0.9-0.3,0.9-0.7c0-0.3-0.1-0.6-0.4-1
		C-870,512.7-870.1,512.5-870.2,512.4z M-875.1,512.9c0-0.4,0.8-2,1.5-2.8c0.2-0.3,0.5-0.4,0.7-0.4c0.1,0,0.2,0,0.2,0.1
		C-872.8,510.9-874.2,512.9-875.1,512.9z"/>
	<path class="st0" d="M-865.3,508h-0.2c-2.3,0-3.8,1.9-3.8,3.7c0,0.2,0,0.4,0,0.6c0.1,0.9,0.9,1.7,1.7,1.7c0.1,0,0.3,0,0.4-0.1
		c0.5-0.2,1-0.6,1.5-1.5c0.2-0.4,0.4-0.6,0.5-0.8c0,0.1,0,0.2,0,0.4c0,0.4,0,0.8,0.1,1.4c0,0.4,0,0.8,0,1.1c0,1-0.1,1.7-0.3,2.3
		c-0.2,0.5-0.5,0.8-0.9,0.8c-0.6,0-1.3-0.6-1.7-1.3c-0.3-0.6-0.6-0.8-0.9-0.8c-0.1,0-0.1,0-0.2,0c-0.2,0.2-0.3,0.4-0.3,0.6
		c0,0.4,0.2,0.8,0.5,1.4c0.1,0.1,0.1,0.2,0.2,0.4c0.2,0.3,0.4,0.6,0.7,0.8c0.5,0.4,1.1,0.6,1.7,0.6c0.2,0,0.3,0,0.5-0.1
		c0.7-0.1,1.2-0.6,1.6-1.4c0.5-1,0.6-2.2,0.6-4.1c0-0.6,0-1.4,0-2.2v-0.3c0-0.1,0-0.3-0.1-0.5c0-0.4-0.1-0.7-0.1-1
		c0-0.5,0.1-0.8,0.2-0.9l0,0v-0.1C-863.3,508.3-864.6,508-865.3,508z M-865.4,509.9c-1.1,1.6-1.8,2.5-2.1,2.5l0,0
		c-0.2-0.1-0.2-0.3-0.2-0.5c0-0.1,0-0.2,0-0.4c0.1-0.4,0.2-0.7,0.4-1c0.4-0.6,1.3-1,1.9-1c0.2,0,0.2,0,0.3,0.1
		C-865.2,509.5-865.3,509.6-865.4,509.9z"/>
	<path class="st0" d="M-852.6,508c-0.3,0.2-0.6,0.7-0.9,1.5c-0.4,1.2-0.6,1.9-0.6,2.1h-0.2c0-0.1-0.2-0.6-0.5-1.7
		c-0.2-0.8-0.4-1.3-0.7-1.5c-0.2-0.1-0.4-0.2-0.5-0.2c-0.4,0-0.6,0.2-0.9,0.7c-0.2,0.2-0.2,0.5-1.1,0.6c-0.3,0-0.4,0.1-0.4,0.3
		c0,0.2-0.1,0.4-0.2,0.6c-0.1,0.2-0.2,0.4-0.1,0.5l0.1,0.4c0.2,1.1,0,1.2-0.2,2.6c0,0.4,0,0.7,0.7,0.7c0.1,0,0.2,0,0.4-0.1
		c0.2-0.2,0.4-0.5,0.6-1.1c0.6-1.8,0.9-2.6,0.9-2.7h0.1c0.2,0,0.3,0.3,0.4,0.7c0,0,0.4,3.3,1.1,3.3l0,0c0.9,0,1.4-1.8,1.7-2.8
		c0.2-0.5,0.3-0.8,0.4-0.8c0.2,0,0.3,0.5,0.6,1.4c0.4,1.4,0.6,1.8,1.5,2.1c0.1,0,0.2,0.1,0.3,0.1c0.2,0,0.4-0.1,0.4-0.5
		c-0.1-0.3-0.3-0.8-0.5-1.6C-850.6,510.7-851.1,508.2-852.6,508z"/>
	<path class="st0" d="M-842.1,510.5c-0.2,0-0.4,0.1-0.7,0.3c-0.2,0.1-0.6,0.6-1.2,1.4c-0.5,0.6-1,0.9-1.5,1c-0.1,0-0.2,0-0.3,0
		c-0.4,0-0.7-0.2-1-0.5c-0.1-0.2-0.2-0.3-0.2-0.4l0,0c0-0.1,0.1-0.2,0.5-0.3c0.2-0.1,0.3-0.1,0.4-0.2c0.6-0.4,0.9-0.9,0.9-1.6
		c0-0.2,0-0.5-0.1-0.7c-0.5-1.1-1.3-1.7-2.1-1.7c-0.1,0-0.3,0-0.4,0.1c-1.1,0.2-1.7,0.7-1.8,1.5c-0.1,0.4-0.1,0.8-0.1,1.2
		c0,0.8,0.2,1.5,0.5,2c1,1.4,2.2,2.1,3.4,2.1c0.2,0,0.5,0,0.7-0.1c1.4-0.5,3.1-2.3,3.2-3.7C-841.9,510.6-841.9,510.5-842.1,510.5z
		 M-847.8,511.4c-0.3-0.2-0.4-0.6-0.4-1.2c0-0.5,0.2-0.8,0.5-0.8h0.1c0.5,0.1,0.7,0.5,0.7,0.9v0.1
		C-846.9,511-847.3,511.4-847.8,511.4z"/>
	<path class="st0" d="M-899.6,509.6c-10.4-3.6-15.1-14.7-17.4-24.2c0.3,0.3,0.7,0.6,1.2,1c1.7,1.3,2.6,2,2.7,2l0,0
		c0.5-0.1,0.7-0.6,0.5-1.3c0,0-0.3-0.3-0.8-0.7c-1.8-1.3-3-2.3-3.7-3c-0.5-0.6-0.9-0.8-1.4-0.7l-0.2,0.1c-0.3,0.1-0.5,0.5-0.7,1.2
		c-0.3,1.6-0.6,3.1-0.8,4.7c0.3,0.3,0.6,0.4,1,0.3c0.1,0,0.3-0.1,0.3-0.1c0.1,0,0.2-0.3,0.3-0.8c0.1-0.7,0.2-1.3,0.3-1.8
		c0.6,2.4,1.4,4.7,2.4,6.9c2.3,5.5,5.6,11,10.6,14.5c1.7,1.2,3.7,2.1,5.7,2.7C-899.1,510.6-899.1,509.8-899.6,509.6z"/>
</g>
</svg>
