<?xml version="1.0" encoding="utf-8"?>
<!-- Generator: Adobe Illustrator 19.0.0, SVG Export Plug-In . SVG Version: 6.00 Build 0)  -->
<svg version="1.0" id="Layer_1" xmlns="http://www.w3.org/2000/svg" xmlns:xlink="http://www.w3.org/1999/xlink" x="0px" y="0px"
	 width="21.3px" height="21.2px" viewBox="0 0 21.3 21.2" style="enable-background:new 0 0 21.3 21.2;" xml:space="preserve">
<g id="XMLID_21_">
	<g id="XMLID_26_">
		<path id="XMLID_24_" style="fill:#E68225;" d="M5,21.2H1c-0.6,0-1-0.4-1-1v-4c0-0.4,0.2-0.8,0.6-0.9c0.4-0.2,0.8-0.1,1.1,0.2l4,4
			c0.3,0.3,0.4,0.7,0.2,1.1S5.4,21.2,5,21.2z M2,19.2h0.6L2,18.7V19.2z"/>
	</g>
	<g id="XMLID_22_">
		<path id="XMLID_31_" style="fill:#E68225;" d="M9,19.2c-0.3,0-0.5-0.1-0.7-0.3l-6-6c-0.4-0.4-0.4-1,0-1.4L12.8,1c0,0,0,0,0,0l0,0
			c0,0,0,0,0,0l0.5-0.5c0.9-0.9,2.9-0.5,3.6,0.2l3.6,3.6c0.8,0.8,1,2.3,0.4,3.4c0,0,0,0,0,0C20.7,8,9.7,19,9.7,19
			C9.5,19.1,9.3,19.2,9,19.2z M4.4,12.2L9,16.8L18.8,7c0,0,0,0,0,0l0,0c0,0,0,0,0,0l0.4-0.4c0.1-0.3,0.1-0.7-0.1-0.9l-3.6-3.6
			c-0.2-0.2-0.6-0.2-0.9,0l0,0c0,0,0,0,0,0c0,0,0,0,0,0c-0.1,0.1-0.2,0.2-0.3,0.3c0,0,0,0,0,0c0,0,0,0,0,0L4.4,12.2z"/>
	</g>
</g>
</svg>
