<?xml version="1.0" encoding="utf-8"?>
<!-- Generator: Adobe Illustrator 19.0.0, SVG Export Plug-In . SVG Version: 6.00 Build 0)  -->
<svg version="1.1" id="Layer_1" xmlns="http://www.w3.org/2000/svg" xmlns:xlink="http://www.w3.org/1999/xlink" x="0px" y="0px"
	 width="1044.4px" height="372.8px" viewBox="0 0 1044.4 372.8" style="enable-background:new 0 0 1044.4 372.8;"
	 xml:space="preserve">
<path style="fill:#5F6062;" d="M37.4,286.8c19,19,112,44,113-22v-17.3c-7.1,11.7-21.3,27.9-55.4,27.9c-28.8,0-50.8-9.2-67.9-26.3
	c-15-15.4-27.1-37.9-27.1-70c0-31.7,11.7-57.9,27.5-74.2C38.8,93.3,60.4,78.3,95,78.3c33.8,0,48.8,17.9,55.4,27.9V84.6h60v174.6
	c0,78.1-82,134.6-204,72.6L37.4,286.8z M75.8,142.5c-9.2,8.8-14.2,23.3-14.2,34.6c0,12.1,4.6,24.6,12.9,33.3
	c8.3,8.8,19.6,13.3,33.8,13.3c15.8,0,26.3-6.2,32.5-12.1c9.2-8.8,14.6-21.7,14.6-35.4c0-14.6-6.3-26.7-14.2-34.2
	c-8.8-7.9-21.7-11.7-32.5-11.7C95.4,130.4,83.3,135.4,75.8,142.5z"/>
<path style="fill:#A2C654;" d="M261.3,0c19.6,0,35,15.4,35,35c0,19.6-15.4,35-35,35c-19.6,0-35-15.4-35-35C226.3,15.4,241.7,0,261.3,0z"/>
<rect x="231.3" y="86.2" style="fill:#5F6062;" width="60" height="185.9"/>
<path style="fill:#5F6062;" d="M304.6,86.4h60v29.2c5.4-10.4,13.8-20,23.3-25.8c10-6.3,20.4-7.9,32.1-7.9c7.5,0,12.9,0.8,19.6,2.9l-3.3,56.3
	c-7.9-4.2-16.7-6.7-27.1-6.7c-12.9,0-22.5,4.6-30,12.5c-13.3,14.2-14.6,34.2-14.6,50v75.4h-60V86.4z"/>
<path style="fill:#5F6062;" d="M612.8,239.9c-8.5,11.6-21.3,18.8-28.3,23c-17.9,10.8-37.9,13.8-58.8,13.8c-27.9,0-52.5-5-74.2-26.7
	c-16.3-16.3-28.9-40.8-28.9-71.7c0-26.7,11.7-91.5,100.6-98c20.8-1.5,50.8,1.8,73.8,25.9c22.1,23.3,26.3,52.5,26.3,75.4v14.3H482.6
	c4.1,29.4,34.9,35.3,44.1,35.3c8.8,0,25.7-0.5,43.1-20.8L612.8,239.9z M563.9,157.1c-0.4-1.8-3.3-14.5-12.1-23.5
	c-6.7-6.8-16.3-11.3-28.3-11.3c-15.4,0-24.6,6.8-30.4,13.1c-4.6,5.4-8.8,12.6-10.4,21.7H563.9z"/>
<g>
	<g>
		<path style="fill:#5F6062;" d="M627.2,101.8c-10.2,0-18.5-8.3-18.5-18.5s8.3-18.5,18.5-18.5s18.5,8.3,18.5,18.5S637.4,101.8,627.2,101.8z
			 M627.2,68.8c-8,0-14.5,6.5-14.5,14.5s6.5,14.5,14.5,14.5s14.5-6.5,14.5-14.5S635.2,68.8,627.2,68.8z"/>
	</g>
</g>
<path style="fill:#A2C654;" d="M822.8,350.4c-80.5-14.9-141.5-85.5-141.4-170.4c0.2-95.7,77.3-172.7,173-172.7c95.5,0,173,77.5,173,173v43
	h-96.5v-42c0-42-33.4-77-75.5-77.5c-43.2-0.6-78.4,34.7-77.5,78.1c0.8,41,34.4,74.3,75.4,74.9c19.1,0.3,36.7-6.5,50.2-17.8
	l133.6,0.3c6.1,0,9.5,7,5.8,11.8l-79.7,103.2c-9,11.7-22.9,18.5-37.7,18.5H802.9L822.8,350.4z"/>
<g>
	<path style="fill:#5F6062;" d="M620.5,73.1h7.9c2.2,0,3.9,0.7,5,2c1,1.1,1.5,2.6,1.5,4.5v0.1c0,1.6-0.3,2.9-1,3.9c-0.7,1-1.6,1.7-2.7,2.2
		l4.2,7H631l-3.7-6.3h0h-2.9v6.3h-3.8V73.1z M628.1,82.6c0.9,0,1.7-0.3,2.2-0.8c0.5-0.5,0.8-1.2,0.8-2v-0.1c0-0.9-0.3-1.6-0.8-2.1
		c-0.5-0.5-1.3-0.7-2.2-0.7h-3.8v5.6H628.1z"/>
</g>
<g>
	<path style="fill:#A2C654;" d="M255.7,363.7c-4.1,0-7.8-0.7-11.2-2c-3.4-1.3-6.6-3.4-9.7-6.2l3.6-4.2c2.7,2.4,5.4,4.2,8.1,5.4
		c2.7,1.2,5.9,1.8,9.4,1.8c3.5,0,6.2-0.8,8.3-2.4c2.1-1.6,3.1-3.7,3.1-6.2v-0.1c0-1.2-0.2-2.2-0.6-3.2s-1.1-1.8-2-2.6
		c-1-0.8-2.3-1.5-4.1-2.1c-1.7-0.6-3.9-1.2-6.6-1.8c-2.9-0.6-5.5-1.4-7.6-2.2c-2.2-0.8-4-1.8-5.4-3c-1.4-1.2-2.5-2.5-3.1-4.1
		c-0.7-1.6-1-3.4-1-5.5v-0.1c0-2,0.4-3.8,1.2-5.5c0.8-1.7,2-3.2,3.5-4.4c1.5-1.2,3.3-2.2,5.3-2.9c2-0.7,4.3-1.1,6.7-1.1
		c3.7,0,7,0.5,9.8,1.6c2.8,1,5.5,2.6,8.1,4.7l-3.4,4.4c-2.4-1.9-4.8-3.4-7.2-4.2s-4.9-1.3-7.5-1.3c-3.4,0-6,0.8-7.9,2.4
		c-1.9,1.6-2.9,3.5-2.9,5.9v0.1c0,1.2,0.2,2.3,0.6,3.2c0.4,0.9,1.1,1.8,2.1,2.6c1,0.8,2.4,1.5,4.2,2.2c1.8,0.7,4.1,1.3,6.9,1.9
		c5.7,1.3,9.9,3,12.6,5.3c2.7,2.2,4,5.3,4,9.2v0.1c0,2.2-0.4,4.2-1.3,5.9c-0.9,1.8-2.1,3.3-3.6,4.6c-1.5,1.3-3.3,2.2-5.5,2.9
		C260.6,363.3,258.2,363.7,255.7,363.7z"/>
	<path style="fill:#A2C654;" d="M301.1,363.8c-2.8,0-5.4-0.5-7.8-1.6c-2.4-1-4.4-2.5-6.2-4.2c-1.8-1.8-3.1-3.8-4.1-6.2c-1-2.4-1.5-4.9-1.5-7.5
		v-0.1c0-2.7,0.5-5.2,1.5-7.6c1-2.4,2.3-4.5,4.1-6.3c1.8-1.8,3.8-3.2,6.2-4.3c2.4-1,5-1.6,7.9-1.6c2.8,0,5.4,0.5,7.8,1.6
		c2.4,1,4.5,2.5,6.2,4.2c1.8,1.8,3.1,3.8,4.1,6.2c1,2.4,1.5,4.9,1.5,7.5v0.1c0,2.7-0.5,5.2-1.5,7.6c-1,2.4-2.4,4.5-4.1,6.3
		c-1.8,1.8-3.8,3.2-6.3,4.3C306.5,363.3,303.9,363.8,301.1,363.8z M301.2,358.8c2,0,3.9-0.4,5.6-1.2c1.7-0.8,3.2-1.8,4.4-3.1
		c1.2-1.3,2.2-2.8,2.8-4.6c0.7-1.8,1-3.6,1-5.6v-0.1c0-2-0.4-3.9-1.1-5.7c-0.7-1.8-1.7-3.3-3-4.7c-1.3-1.3-2.7-2.4-4.4-3.2
		c-1.7-0.8-3.5-1.2-5.5-1.2c-2,0-3.9,0.4-5.6,1.2c-1.7,0.8-3.1,1.8-4.3,3.1c-1.2,1.3-2.1,2.9-2.8,4.6c-0.7,1.8-1,3.7-1,5.7v0.1
		c0,2,0.4,4,1.1,5.7c0.7,1.8,1.7,3.3,2.9,4.6c1.2,1.3,2.7,2.4,4.4,3.1C297.4,358.4,299.2,358.8,301.2,358.8z"/>
	<path style="fill:#A2C654;" d="M331.5,309.7h5.6v53.2h-5.6V309.7z"/>
	<path style="fill:#A2C654;" d="M364,363.7c-2.3,0-4.3-0.4-6.1-1.1c-1.8-0.7-3.3-1.8-4.5-3.1c-1.2-1.3-2.2-2.9-2.8-4.8c-0.7-1.8-1-3.9-1-6.1
		v-23.4h5.6v22c0,3.5,0.9,6.3,2.7,8.3c1.8,2,4.4,3.1,7.7,3.1c1.6,0,3.1-0.3,4.5-0.8s2.6-1.4,3.6-2.4c1-1,1.8-2.3,2.4-3.7
		s0.9-3.1,0.9-4.8v-21.5h5.5v37.7h-5.5v-6.6c-1.3,2-2.9,3.8-5,5.2C369.9,363,367.3,363.7,364,363.7z"/>
	<path style="fill:#A2C654;" d="M412.1,363.8c-2.8,0-5.3-0.5-7.7-1.6c-2.4-1-4.4-2.5-6.1-4.2c-1.7-1.8-3.1-3.9-4-6.2c-1-2.4-1.5-4.9-1.5-7.5
		v-0.1c0-2.7,0.5-5.2,1.5-7.6c1-2.4,2.3-4.5,4-6.3c1.7-1.8,3.8-3.2,6.1-4.3c2.4-1,4.9-1.6,7.7-1.6c1.8,0,3.4,0.2,4.9,0.5
		c1.5,0.3,2.8,0.8,4,1.4c1.2,0.6,2.3,1.3,3.4,2.2c1,0.8,2,1.7,2.8,2.6l-3.7,3.9c-1.5-1.6-3.1-2.9-4.9-4c-1.8-1.1-4-1.7-6.5-1.7
		c-1.9,0-3.7,0.4-5.3,1.1c-1.7,0.8-3.1,1.8-4.3,3.1c-1.2,1.3-2.2,2.9-2.8,4.6c-0.7,1.8-1,3.7-1,5.7v0.1c0,2,0.4,4,1.1,5.7
		c0.7,1.8,1.7,3.3,2.9,4.7c1.2,1.3,2.7,2.4,4.4,3.1c1.7,0.8,3.5,1.1,5.5,1.1c2.4,0,4.6-0.5,6.5-1.6c1.9-1.1,3.6-2.4,5.1-4l3.6,3.4
		c-1.9,2.1-4,3.9-6.5,5.3C418.6,363.1,415.6,363.8,412.1,363.8z"/>
	<path style="fill:#A2C654;" d="M436.9,310.8h6.4v6.2h-6.4V310.8z M437.2,325.2h5.6v37.7h-5.6V325.2z"/>
	<path style="fill:#A2C654;" d="M473.1,363.8c-2.8,0-5.4-0.5-7.8-1.6c-2.4-1-4.4-2.5-6.2-4.2c-1.8-1.8-3.1-3.8-4.1-6.2c-1-2.4-1.5-4.9-1.5-7.5
		v-0.1c0-2.7,0.5-5.2,1.5-7.6c1-2.4,2.3-4.5,4.1-6.3c1.8-1.8,3.8-3.2,6.2-4.3c2.4-1,5-1.6,7.9-1.6c2.8,0,5.4,0.5,7.8,1.6
		c2.4,1,4.5,2.5,6.2,4.2c1.8,1.8,3.1,3.8,4.1,6.2c1,2.4,1.5,4.9,1.5,7.5v0.1c0,2.7-0.5,5.2-1.5,7.6c-1,2.4-2.4,4.5-4.1,6.3
		c-1.8,1.8-3.8,3.2-6.3,4.3C478.6,363.3,475.9,363.8,473.1,363.8z M473.3,358.8c2,0,3.9-0.4,5.6-1.2c1.7-0.8,3.2-1.8,4.4-3.1
		c1.2-1.3,2.2-2.8,2.8-4.6c0.7-1.8,1-3.6,1-5.6v-0.1c0-2-0.4-3.9-1.1-5.7c-0.7-1.8-1.7-3.3-3-4.7c-1.3-1.3-2.7-2.4-4.4-3.2
		c-1.7-0.8-3.5-1.2-5.5-1.2c-2,0-3.9,0.4-5.6,1.2c-1.7,0.8-3.1,1.8-4.3,3.1c-1.2,1.3-2.1,2.9-2.8,4.6c-0.7,1.8-1,3.7-1,5.7v0.1
		c0,2,0.4,4,1.1,5.7c0.7,1.8,1.7,3.3,2.9,4.6c1.2,1.3,2.7,2.4,4.4,3.1C469.4,358.4,471.3,358.8,473.3,358.8z"/>
	<path style="fill:#A2C654;" d="M503,325.2h5.6v6.6c1.3-2,2.9-3.8,5-5.2c2-1.4,4.7-2.2,7.9-2.2c2.3,0,4.3,0.4,6.1,1.1c1.8,0.7,3.3,1.8,4.5,3.1
		c1.2,1.3,2.2,2.9,2.8,4.8c0.7,1.8,1,3.9,1,6.1v23.4h-5.6v-22c0-3.5-0.9-6.3-2.7-8.3c-1.8-2-4.4-3.1-7.7-3.1c-1.6,0-3.1,0.3-4.5,0.8
		c-1.4,0.6-2.6,1.4-3.6,2.4c-1,1-1.8,2.3-2.4,3.7c-0.6,1.5-0.8,3.1-0.8,4.8v21.5H503V325.2z"/>
	<path style="fill:#A2C654;" d="M551.3,346.4c0.2,2,0.7,3.8,1.5,5.3c0.8,1.6,1.8,2.9,3,3.9c1.2,1.1,2.6,1.9,4.1,2.4c1.5,0.6,3.1,0.8,4.7,0.8
		c2.6,0,4.9-0.5,6.7-1.5c1.9-1,3.6-2.3,5.1-3.9l3.5,3.1c-1.9,2.1-4.1,3.9-6.5,5.1c-2.4,1.3-5.4,1.9-9,1.9c-2.6,0-5-0.5-7.3-1.4
		c-2.3-0.9-4.3-2.3-6-4c-1.7-1.7-3.1-3.8-4-6.2c-1-2.4-1.5-5.1-1.5-8c0-2.7,0.4-5.3,1.3-7.7c0.9-2.4,2.2-4.5,3.8-6.3
		c1.6-1.8,3.5-3.2,5.7-4.2c2.2-1,4.6-1.5,7.3-1.5c2.8,0,5.2,0.5,7.4,1.6c2.2,1,4,2.5,5.5,4.3c1.5,1.8,2.6,3.9,3.4,6.3
		c0.8,2.4,1.2,5,1.2,7.8c0,0.2,0,0.5,0,0.8s0,0.7-0.1,1.1H551.3z M575.6,341.8c-0.1-1.7-0.5-3.3-1.1-4.8c-0.6-1.5-1.4-2.9-2.4-4
		c-1-1.2-2.2-2.1-3.6-2.8c-1.4-0.7-3.1-1-4.9-1c-1.6,0-3.1,0.3-4.5,0.9c-1.4,0.6-2.7,1.5-3.7,2.6c-1.1,1.1-2,2.5-2.7,4
		c-0.7,1.5-1.2,3.2-1.3,5H575.6z"/>
	<path style="fill:#A2C654;" d="M603.6,363.7c-2.7,0-5.5-0.5-8.2-1.5c-2.8-1-5.2-2.3-7.4-4l2.8-4c2,1.6,4.2,2.7,6.4,3.6
		c2.2,0.8,4.4,1.2,6.7,1.2c2.3,0,4.2-0.5,5.6-1.6s2.2-2.5,2.2-4.4v-0.1c0-0.9-0.3-1.7-0.8-2.4c-0.5-0.7-1.2-1.3-2.1-1.8
		s-1.9-1-3-1.3c-1.1-0.4-2.3-0.8-3.5-1.1c-1.5-0.4-2.9-0.9-4.4-1.4c-1.5-0.5-2.8-1.2-4-1.9c-1.2-0.8-2.2-1.8-2.9-2.9
		c-0.8-1.2-1.1-2.6-1.1-4.4v-0.1c0-1.6,0.3-3.1,0.9-4.4c0.6-1.3,1.5-2.5,2.7-3.4c1.1-0.9,2.5-1.7,4.1-2.2c1.6-0.5,3.3-0.8,5.1-0.8
		c2.3,0,4.7,0.4,7.1,1.1c2.4,0.8,4.5,1.8,6.5,3l-2.6,4.2c-1.8-1.1-3.6-2-5.5-2.7c-1.9-0.7-3.8-1-5.7-1c-2.2,0-4,0.5-5.3,1.6
		c-1.3,1-2,2.3-2,3.9v0.1c0,0.9,0.3,1.6,0.8,2.3c0.5,0.7,1.3,1.2,2.2,1.7c0.9,0.5,1.9,0.9,3.1,1.3c1.2,0.4,2.4,0.8,3.6,1.2
		c1.5,0.4,2.9,0.9,4.3,1.5c1.4,0.5,2.7,1.2,3.9,2c1.2,0.8,2.1,1.8,2.8,3c0.7,1.2,1.1,2.6,1.1,4.3v0.1c0,1.8-0.4,3.4-1.1,4.8
		c-0.7,1.4-1.7,2.6-2.8,3.5c-1.2,1-2.6,1.7-4.2,2.2C607.2,363.4,605.5,363.7,603.6,363.7z"/>
</g>
<path style="opacity:0.3;fill:#5F6062;" d="M788,339.8c17.4,7.8,27.2,9.2,34.8,10.6l91.1-103.1l-1,0.5L788,339.8z"/>
</svg>
