<?xml version="1.0" encoding="utf-8"?>
<!-- Generator: Adobe Illustrator 16.0.0, SVG Export Plug-In . SVG Version: 6.00 Build 0)  -->
<!DOCTYPE svg PUBLIC "-//W3C//DTD SVG 1.1//EN" "http://www.w3.org/Graphics/SVG/1.1/DTD/svg11.dtd">
<svg version="1.1" id="Layer_1" xmlns="http://www.w3.org/2000/svg" xmlns:xlink="http://www.w3.org/1999/xlink" x="0px" y="0px"
	 width="20px" height="20px" viewBox="0 0 20 20" enable-background="new 0 0 20 20" xml:space="preserve">
<g>
	<g>
		<path fill="#E78224" d="M17.934,18.933c-0.455,0-0.878-0.292-1.023-0.749l-0.646-2.029l-2.088-0.405
			c-0.583-0.114-0.963-0.677-0.851-1.26c0.113-0.583,0.678-0.963,1.26-0.85l2.715,0.527c0.385,0.075,0.699,0.354,0.817,0.729
			l0.84,2.636c0.181,0.565-0.132,1.17-0.697,1.35C18.151,18.916,18.042,18.933,17.934,18.933z"/>
	</g>
	<g>
		<path fill="#E78224" d="M9.999,19.938c-2.546,0-5.092-0.969-7.03-2.907C1.091,15.153,0.057,12.656,0.057,10
			c0-2.656,1.034-5.152,2.912-7.03c3.876-3.876,10.185-3.876,14.06,0c2.204,2.203,3.233,5.24,2.827,8.333
			c-0.077,0.589-0.619,1.004-1.205,0.925c-0.589-0.077-1.002-0.617-0.926-1.205c0.319-2.425-0.488-4.807-2.215-6.533
			c-3.039-3.039-7.983-3.039-11.022,0C3.016,5.961,2.206,7.918,2.206,10c0,2.083,0.811,4.039,2.282,5.511
			c1.472,1.472,3.43,2.282,5.511,2.282c2.082,0,4.038-0.811,5.511-2.282c0.419-0.42,1.1-0.42,1.519,0c0.42,0.419,0.42,1.1,0,1.519
			C15.091,18.969,12.545,19.938,9.999,19.938z"/>
	</g>
</g>
</svg>
