<?xml version="1.0" encoding="utf-8"?>
<!-- Generator: Adobe Illustrator 14.0.0, SVG Export Plug-In . SVG Version: 6.00 Build 43363)  -->
<!DOCTYPE svg PUBLIC "-//W3C//DTD SVG 1.1//EN" "http://www.w3.org/Graphics/SVG/1.1/DTD/svg11.dtd">
<svg version="1.1" id="Layer_1" xmlns="http://www.w3.org/2000/svg" xmlns:xlink="http://www.w3.org/1999/xlink" x="0px" y="0px"
	 width="22px" height="22px" viewBox="0 0 22 22" enable-background="new 0 0 22 22" xml:space="preserve">
<path fill-rule="evenodd" clip-rule="evenodd" fill="#ffffff" d="M9.77,3.5C6.31,3.5,3.5,6.31,3.5,9.76c0,3.461,2.81,6.27,6.27,6.27
	c3.451,0,6.259-2.809,6.259-6.27C16.029,6.31,13.221,3.5,9.77,3.5z M20.45,20.45c-0.729,0.729-1.921,0.729-2.66,0l-3.31-3.31
	c-1.36,0.869-2.98,1.389-4.71,1.389c-4.85,0-8.77-3.92-8.77-8.77C1,4.92,4.92,1,9.77,1c4.839,0,8.759,3.92,8.759,8.76
	c0,1.74-0.52,3.36-1.399,4.721l3.32,3.31C21.18,18.529,21.18,19.721,20.45,20.45L20.45,20.45z"/>
</svg>
