<?xml version="1.0" encoding="utf-8"?>
<!-- Generator: Adobe Illustrator 19.0.0, SVG Export Plug-In . SVG Version: 6.00 Build 0)  -->
<svg version="1.1" id="Layer_1" xmlns="http://www.w3.org/2000/svg" xmlns:xlink="http://www.w3.org/1999/xlink" x="0px" y="0px"
	 width="70px" height="55px" viewBox="0 0 70 55" enable-background="new 0 0 70 55" xml:space="preserve">
<g id="Page-3">
	<g id="mc_x5F_brandmark_x5F_guidelines_x5F_v8_x2C_1" transform="translate(-606.000000, -113.000000)">
		<g id="Group-116" transform="translate(183.000000, 103.000000)">
			<g id="Group" transform="translate(423.000000, 10.000000)">
				<path id="Fill-112" fill="#0D0E0D" d="M15.6,51.1c0-1,0.6-1.8,1.7-1.8c1,0,1.7,0.8,1.7,1.8c0,1-0.7,1.8-1.7,1.8
					C16.2,52.9,15.6,52,15.6,51.1L15.6,51.1z M20.1,51.1v-2.8h-1.2v0.7c-0.4-0.5-1-0.8-1.8-0.8c-1.6,0-2.8,1.2-2.8,2.9
					c0,1.7,1.2,2.9,2.8,2.9c0.8,0,1.4-0.3,1.8-0.8v0.7h1.2V51.1z M61.3,51.1c0-1,0.6-1.8,1.7-1.8c1,0,1.7,0.8,1.7,1.8
					c0,1-0.7,1.8-1.7,1.8C62,52.9,61.3,52,61.3,51.1L61.3,51.1z M65.9,51.1V46h-1.2v2.9c-0.4-0.5-1-0.8-1.8-0.8
					c-1.6,0-2.8,1.2-2.8,2.9c0,1.7,1.2,2.9,2.8,2.9c0.8,0,1.4-0.3,1.8-0.8v0.7h1.2V51.1z M35.3,49.2c0.8,0,1.3,0.5,1.4,1.4h-2.9
					C33.9,49.8,34.4,49.2,35.3,49.2L35.3,49.2z M35.3,48.1c-1.6,0-2.8,1.2-2.8,2.9c0,1.8,1.2,2.9,2.9,2.9c0.8,0,1.6-0.2,2.3-0.8
					l-0.6-0.9c-0.5,0.4-1.1,0.6-1.6,0.6c-0.8,0-1.5-0.4-1.7-1.4h4.2c0-0.2,0-0.3,0-0.5C37.9,49.3,36.9,48.1,35.3,48.1L35.3,48.1z
					 M50,51.1c0-1,0.6-1.8,1.7-1.8c1,0,1.7,0.8,1.7,1.8c0,1-0.7,1.8-1.7,1.8C50.7,52.9,50,52,50,51.1L50,51.1z M54.6,51.1v-2.8h-1.2
					v0.7c-0.4-0.5-1-0.8-1.8-0.8c-1.6,0-2.8,1.2-2.8,2.9c0,1.7,1.2,2.9,2.8,2.9c0.8,0,1.4-0.3,1.8-0.8v0.7h1.2V51.1z M43.1,51.1
					c0,1.7,1.2,2.9,3,2.9c0.8,0,1.4-0.2,2-0.7l-0.6-1c-0.5,0.3-0.9,0.5-1.5,0.5c-1,0-1.7-0.7-1.7-1.8c0-1.1,0.7-1.8,1.7-1.8
					c0.5,0,1,0.2,1.5,0.5l0.6-1c-0.6-0.5-1.2-0.7-2-0.7C44.3,48.1,43.1,49.4,43.1,51.1L43.1,51.1z M58.8,48.1
					c-0.7,0-1.2,0.3-1.5,0.8v-0.7h-1.2v5.6h1.2v-3.1c0-0.9,0.4-1.4,1.2-1.4c0.2,0,0.5,0,0.8,0.1l0.4-1.1
					C59.4,48.2,59.1,48.1,58.8,48.1L58.8,48.1z M26.2,48.7c-0.6-0.4-1.4-0.6-2.3-0.6c-1.4,0-2.3,0.7-2.3,1.8c0,0.9,0.7,1.5,1.9,1.7
					l0.6,0.1c0.7,0.1,1,0.3,1,0.6c0,0.4-0.4,0.7-1.3,0.7c-0.8,0-1.5-0.3-1.9-0.6l-0.6,1c0.7,0.5,1.5,0.7,2.4,0.7
					c1.6,0,2.6-0.8,2.6-1.8c0-1-0.7-1.5-2-1.7l-0.6-0.1c-0.5-0.1-1-0.2-1-0.6c0-0.4,0.4-0.7,1.1-0.7c0.7,0,1.4,0.3,1.7,0.5
					L26.2,48.7z M41.9,48.1c-0.7,0-1.2,0.3-1.5,0.8v-0.7h-1.2v5.6h1.2v-3.1c0-0.9,0.4-1.4,1.2-1.4c0.2,0,0.5,0,0.8,0.1l0.4-1.1
					C42.5,48.2,42.1,48.1,41.9,48.1L41.9,48.1z M31.5,48.3h-2v-1.7h-1.2v1.7h-1.1v1.1h1.1v2.6c0,1.3,0.5,2.1,1.9,2.1
					c0.5,0,1.1-0.2,1.5-0.4l-0.4-1c-0.4,0.2-0.8,0.3-1.1,0.3c-0.6,0-0.8-0.4-0.8-0.9v-2.5h2V48.3z M13.3,53.9v-3.5
					c0-1.3-0.8-2.2-2.2-2.2c-0.7,0-1.5,0.2-2,1c-0.4-0.6-1-1-1.9-1c-0.6,0-1.2,0.2-1.6,0.8v-0.7H4.4v5.6h1.2v-3.1
					c0-1,0.5-1.5,1.4-1.5c0.8,0,1.2,0.5,1.2,1.5v3.1h1.2v-3.1c0-1,0.6-1.5,1.4-1.5c0.8,0,1.2,0.5,1.2,1.5v3.1H13.3z"/>
				<polygon id="Fill-113" fill="#E25E28" points="25.8,38.7 44.2,38.7 44.2,5.5 25.8,5.5 				"/>
				<path id="Fill-114" fill="#D3232B" d="M26.9,22.1c0-6.7,3.2-12.7,8.1-16.6C31.4,2.7,26.9,1,21.9,1C10.3,1,0.8,10.5,0.8,22.1
					s9.5,21.1,21.1,21.1c4.9,0,9.5-1.7,13.1-4.5C30.1,34.9,26.9,28.9,26.9,22.1"/>
				<path id="Fill-115" fill="#EE982B" d="M69.2,22.1c0,11.7-9.5,21.1-21.1,21.1c-4.9,0-9.5-1.7-13.1-4.5c4.9-3.9,8.1-9.9,8.1-16.6
					S39.9,9.4,35,5.5C38.6,2.7,43.1,1,48.1,1C59.7,1,69.2,10.5,69.2,22.1L69.2,22.1z"/>
			</g>
		</g>
	</g>
</g>
</svg>
