<?xml version="1.0" encoding="utf-8"?>
<!-- Generator: Adobe Illustrator 16.0.0, SVG Export Plug-In . SVG Version: 6.00 Build 0)  -->
<!DOCTYPE svg PUBLIC "-//W3C//DTD SVG 1.1//EN" "http://www.w3.org/Graphics/SVG/1.1/DTD/svg11.dtd">
<svg version="1.1" id="Layer_1" xmlns="http://www.w3.org/2000/svg" xmlns:xlink="http://www.w3.org/1999/xlink" x="0px" y="0px"
	 width="13.28px" height="24px" viewBox="0 0 13.28 24" enable-background="new 0 0 13.28 24" xml:space="preserve">
<g>
	<path fill="#E68123" d="M12.357,0H0.923C0.413,0,0,0.413,0,0.923v22.154C0,23.587,0.413,24,0.923,24h11.435
		c0.51,0,0.923-0.413,0.923-0.923V0.923C13.28,0.413,12.867,0,12.357,0z M1.847,6.511h9.588v10.251H1.847V6.511z M11.435,1.847V5.28
		H1.847V1.847H11.435z M1.847,22.154v-4.161h9.588v4.161H1.847z"/>
	<path fill="#E68123" d="M5.212,4.196h2.856c0.34,0,0.615-0.275,0.615-0.615S8.408,2.966,8.068,2.966H5.212
		c-0.34,0-0.615,0.275-0.615,0.615S4.872,4.196,5.212,4.196z"/>
	<circle fill="#E68123" cx="6.641" cy="20.318" r="1.333"/>
</g>
</svg>
