<?xml version="1.0" encoding="utf-8"?>
<!-- Generator: Adobe Illustrator 16.0.0, SVG Export Plug-In . SVG Version: 6.00 Build 0)  -->
<!DOCTYPE svg PUBLIC "-//W3C//DTD SVG 1.1//EN" "http://www.w3.org/Graphics/SVG/1.1/DTD/svg11.dtd">
<svg version="1.1" id="Layer_1" xmlns="http://www.w3.org/2000/svg" xmlns:xlink="http://www.w3.org/1999/xlink" x="0px" y="0px"
	 width="248.407px" height="171.3px" viewBox="0 0 248.407 171.3" enable-background="new 0 0 248.407 171.3" xml:space="preserve">
<g>
	<g>
		<g>
			<rect x="86.827" y="149.343" fill-rule="evenodd" clip-rule="evenodd" fill="#F4C497" width="50.519" height="20.839"/>
			<path fill="#E78323" d="M138.293,171.128H85.88v-22.731h52.413V171.128z M87.773,169.234h48.625V150.29H87.773V169.234z"/>
		</g>
		<g>
			<path fill-rule="evenodd" clip-rule="evenodd" fill="#FCEEE1" d="M221.509,0.632H7.582c-3.622,0-6.951,3.34-6.951,6.945v1.848
				v131.407v1.994c0,3.604,3.334,6.201,6.951,6.201h213.927c3.62,0,6.453-2.741,6.453-6.347v-1.849V9.425V7.432
				C227.962,3.826,225.124,0.632,221.509,0.632z"/>
			<path fill="#E78323" d="M221.509,149.658H7.582C3.4,149.658,0,146.593,0,142.826V7.577C0,3.611,3.613,0,7.582,0h213.927
				c3.841,0,7.085,3.403,7.085,7.432v135.249C228.594,146.594,225.482,149.658,221.509,149.658z M7.582,1.263
				c-3.248,0-6.32,3.068-6.32,6.314v135.249c0,3.071,2.835,5.57,6.32,5.57h213.927c3.319,0,5.822-2.458,5.822-5.716V7.432
				c0-3.345-2.666-6.169-5.822-6.169H7.582z"/>
		</g>
		<g>
			<rect x="10.42" y="14.208" fill-rule="evenodd" clip-rule="evenodd" fill="#FEFCF9" width="204.598" height="109.877"/>
			<path fill="#E78323" d="M215.018,124.4H10.42c-0.174,0-0.315-0.142-0.315-0.315V14.208c0-0.174,0.142-0.316,0.315-0.316h204.598
				c0.174,0,0.316,0.143,0.316,0.316v109.877C215.334,124.259,215.191,124.4,215.018,124.4z M10.736,123.769h203.965V14.524H10.736
				V123.769z"/>
		</g>
		<g>
			<circle fill-rule="evenodd" clip-rule="evenodd" fill="#E88629" cx="114.199" cy="135.789" r="3.504"/>
		</g>
		<g>
			<rect x="20.208" y="22.732" fill-rule="evenodd" clip-rule="evenodd" fill="#E58223" width="42.94" height="4.421"/>
		</g>
		<g>
			<rect x="25.891" y="32.836" fill-rule="evenodd" clip-rule="evenodd" fill="#F3C396" width="77.671" height="4.421"/>
		</g>
		<g>
			<rect x="25.891" y="42.94" fill-rule="evenodd" clip-rule="evenodd" fill="#F3C396" width="47.991" height="4.42"/>
		</g>
		<g>
			<rect x="25.891" y="53.676" fill-rule="evenodd" clip-rule="evenodd" fill="#F3C396" width="47.991" height="4.42"/>
		</g>
		<g>
			<rect x="25.891" y="74.514" fill-rule="evenodd" clip-rule="evenodd" fill="#F3C396" width="47.991" height="4.421"/>
		</g>
		<g>
			<rect x="25.891" y="85.248" fill-rule="evenodd" clip-rule="evenodd" fill="#F3C396" width="36.626" height="4.421"/>
		</g>
		<g>
			<rect x="25.891" y="106.719" fill-rule="evenodd" clip-rule="evenodd" fill="#F3C396" width="55.568" height="4.42"/>
		</g>
		<g>
			<rect x="54.938" y="65.041" fill-rule="evenodd" clip-rule="evenodd" fill="#E58223" width="37.259" height="4.421"/>
		</g>
		<g>
			<rect x="20.208" y="65.041" fill-rule="evenodd" clip-rule="evenodd" fill="#E58223" width="30.31" height="4.421"/>
		</g>
		<g>
			<rect x="20.208" y="97.247" fill-rule="evenodd" clip-rule="evenodd" fill="#E58223" width="42.309" height="3.788"/>
		</g>
		<g>
			<rect x="68.199" y="22.732" fill-rule="evenodd" clip-rule="evenodd" fill="#E58223" width="37.888" height="4.421"/>
		</g>
		<g>
			<rect x="70.725" y="167.341" fill-rule="evenodd" clip-rule="evenodd" fill="#FCEEE1" width="87.145" height="3.156"/>
			<path fill="#E78323" d="M157.869,171.128H70.725c-0.349,0-0.631-0.281-0.631-0.631v-3.156c0-0.35,0.282-0.632,0.631-0.632h87.145
				c0.349,0,0.631,0.282,0.631,0.632v3.156C158.5,170.847,158.218,171.128,157.869,171.128z M71.355,169.866h85.883v-1.895H71.355
				V169.866z"/>
		</g>
		<g>
			<rect x="79.565" y="53.676" fill-rule="evenodd" clip-rule="evenodd" fill="#EA9B4F" width="13.893" height="4.42"/>
		</g>
		<g>
			<rect x="85.88" y="106.719" fill-rule="evenodd" clip-rule="evenodd" fill="#EA9B4F" width="13.894" height="4.42"/>
		</g>
		<g>
			<rect x="66.937" y="85.248" fill-rule="evenodd" clip-rule="evenodd" fill="#EA9B4F" width="13.891" height="4.421"/>
		</g>
		<g>
			<rect x="79.565" y="42.94" fill-rule="evenodd" clip-rule="evenodd" fill="#EA9B4F" width="13.893" height="4.42"/>
		</g>
		<g>
			<rect x="107.982" y="32.836" fill-rule="evenodd" clip-rule="evenodd" fill="#EA9B4F" width="13.892" height="4.421"/>
		</g>
		<g>
			<rect x="78.935" y="74.514" fill-rule="evenodd" clip-rule="evenodd" fill="#EA9B4F" width="13.892" height="4.421"/>
		</g>
	</g>
	<g>
		<path fill-rule="evenodd" clip-rule="evenodd" fill="#F0B072" d="M248.635,169.935v-16.451c0-27.573-28.043-49.93-62.629-49.93
			c-34.587,0-62.628,22.356-62.628,49.93v16.451H248.635z"/>
		<path fill="#E88629" d="M250,171.3H122.013v-17.816c0-28.283,28.708-51.295,63.993-51.295c35.286,0,63.994,23.012,63.994,51.295
			V171.3z M124.743,168.569H247.27v-15.086c0-26.778-27.482-48.564-61.264-48.564s-61.263,21.786-61.263,48.564V168.569z"/>
	</g>
	<g>
		<path fill-rule="evenodd" clip-rule="evenodd" fill="#FCEEE0" d="M210.588,107.55c-7.547-2.57-15.855-3.996-24.582-3.996
			c-9.928,0-19.313,1.845-27.652,5.123c5.663,8.132,15.08,13.456,25.743,13.456C195.243,122.133,205.027,116.315,210.588,107.55z"/>
		<path fill="#E88629" d="M184.097,123.157c-10.587,0-20.524-5.195-26.584-13.896c-0.179-0.257-0.23-0.582-0.14-0.882
			s0.314-0.541,0.605-0.656c8.768-3.446,18.197-5.194,28.027-5.194c8.638,0,17.019,1.363,24.912,4.052
			c0.297,0.101,0.532,0.332,0.637,0.629c0.104,0.296,0.066,0.623-0.102,0.889C205.472,117.527,195.245,123.157,184.097,123.157z
			 M159.969,109.155c5.728,7.509,14.65,11.953,24.128,11.953c10.003,0,19.212-4.838,24.896-13.008
			c-7.309-2.338-15.035-3.523-22.986-3.523C176.896,104.577,168.145,106.116,159.969,109.155z"/>
	</g>
	<g>
		<path fill-rule="evenodd" clip-rule="evenodd" fill="#FCEEE0" d="M234.537,63.64c-0.102,0-0.199,0.011-0.301,0.015
			c0.07-1.079,0.116-2.162,0.116-3.26c0-27.98-22.683-50.663-50.663-50.663c-27.979,0-50.662,22.683-50.662,50.663
			c0,1.098,0.046,2.181,0.116,3.258c-0.094-0.002-0.185-0.013-0.279-0.013c-3.677,0-6.658,2.98-6.658,6.659
			c0,3.677,2.981,6.656,6.658,6.656c0.981,0,1.908-0.216,2.744-0.597c6.689,20.156,25.681,34.7,48.081,34.7
			c22.404,0,41.398-14.549,48.084-34.709c0.843,0.386,1.776,0.605,2.764,0.605c3.677,0,6.658-2.979,6.658-6.656
			C241.195,66.62,238.214,63.64,234.537,63.64z"/>
		<path fill="#E88629" d="M183.689,112.083c-21.959,0-41.401-13.779-48.71-34.402c-0.686,0.198-1.393,0.299-2.115,0.299
			c-4.235,0-7.683-3.445-7.683-7.681c0-3.966,3.02-7.239,6.88-7.642c-0.039-0.805-0.058-1.553-0.058-2.263
			c0-28.5,23.186-51.687,51.686-51.687c28.501,0,51.688,23.187,51.688,51.687c0,0.71-0.02,1.455-0.059,2.261
			c3.871,0.393,6.9,3.671,6.9,7.644c0,4.235-3.445,7.681-7.682,7.681c-0.729,0-1.443-0.103-2.136-0.305
			C225.096,98.3,205.654,112.083,183.689,112.083z M135.608,75.335c0.141,0,0.279,0.029,0.41,0.086
			c0.267,0.116,0.47,0.34,0.562,0.615c6.749,20.336,25.681,33.999,47.108,33.999c21.434,0,40.366-13.667,47.112-34.007
			c0.092-0.277,0.296-0.502,0.562-0.617c0.27-0.117,0.572-0.113,0.835,0.008c0.742,0.34,1.529,0.512,2.338,0.512
			c3.106,0,5.634-2.527,5.634-5.632c0-3.107-2.527-5.636-5.634-5.636l-0.261,0.014c-0.297,0.025-0.571-0.101-0.772-0.308
			c-0.203-0.208-0.309-0.492-0.289-0.781c0.076-1.181,0.113-2.225,0.113-3.193c0-27.37-22.268-49.639-49.639-49.639
			s-49.638,22.269-49.638,49.639c0,0.969,0.037,2.013,0.114,3.191c0.018,0.286-0.084,0.567-0.282,0.774
			c-0.199,0.207-0.453,0.32-0.763,0.315l-0.17-0.009c-0.003,0-0.006,0-0.009,0c-3.188,0-5.712,2.527-5.712,5.632
			s2.527,5.632,5.634,5.632c0.805,0,1.585-0.17,2.32-0.504C135.32,75.366,135.464,75.335,135.608,75.335z"/>
	</g>
	<g>
		<path fill-rule="evenodd" clip-rule="evenodd" fill="#E78426" d="M205.463,33.956c0,0,29.074,10.8,29.074,29.684
			c1.398-31.157-22.867-54.236-50.848-54.236c-27.979,0-52.166,23.008-50.546,55.284C133.144,64.688,173.652,79.488,205.463,33.956"
			/>
	</g>
	<g>
		<path fill="#E78426" d="M204.125,74.399c-3.924,0-7.114-3.191-7.114-7.113c0-0.564,0.458-1.023,1.022-1.023
			c0.565,0,1.023,0.459,1.023,1.023c0,2.795,2.273,5.067,5.068,5.067c2.794,0,5.067-2.272,5.067-5.067
			c0-0.564,0.458-1.023,1.022-1.023c0.565,0,1.023,0.459,1.023,1.023C211.238,71.208,208.047,74.399,204.125,74.399z"/>
	</g>
	<g>
		<path fill-rule="evenodd" clip-rule="evenodd" fill="#E78426" d="M179.918,94.194c0-3.363,2.726-6.091,6.09-6.091
			c3.363,0,6.09,2.728,6.09,6.091H179.918z"/>
	</g>
	<g>
		<path fill="#E78426" d="M170.007,74.399c-3.923,0-7.113-3.191-7.113-7.113c0-0.564,0.458-1.023,1.022-1.023
			c0.565,0,1.023,0.459,1.023,1.023c0,2.795,2.273,5.067,5.067,5.067s5.067-2.272,5.067-5.067c0-0.564,0.458-1.023,1.023-1.023
			c0.564,0,1.022,0.459,1.022,1.023C177.12,71.208,173.929,74.399,170.007,74.399z"/>
	</g>
	<g>
		<circle fill-rule="evenodd" clip-rule="evenodd" fill="#E78426" cx="221.085" cy="40.714" r="27.322"/>
	</g>
</g>
</svg>
