<?xml version="1.0" encoding="utf-8"?>
<!-- Generator: Adobe Illustrator 19.0.0, SVG Export Plug-In . SVG Version: 6.00 Build 0)  -->
<svg version="1.0" id="Layer_1" xmlns="http://www.w3.org/2000/svg" xmlns:xlink="http://www.w3.org/1999/xlink" x="0px" y="0px"
	 width="20px" height="20px" viewBox="0 0 20 20" style="enable-background:new 0 0 20 20;" xml:space="preserve">
<g id="XMLID_18_">
	<g id="XMLID_20_">
		<path id="XMLID_23_" style="fill:#6DCAAD;" d="M10,20C4.5,20,0,15.5,0,10C0,4.5,4.5,0,10,0c5.5,0,10,4.5,10,10
			C20,15.5,15.5,20,10,20z M10,2c-4.4,0-8,3.6-8,8s3.6,8,8,8s8-3.6,8-8S14.4,2,10,2z"/>
	</g>
	<g id="XMLID_19_">
		<path id="XMLID_22_" style="fill:#6DCAAD;" d="M9,14c-0.3,0-0.5-0.1-0.7-0.3l-3-3c-0.4-0.4-0.4-1,0-1.4s1-0.4,1.4,0L9,11.6
			l4.3-4.3c0.4-0.4,1-0.4,1.4,0s0.4,1,0,1.4l-5,5C9.5,13.9,9.3,14,9,14z"/>
	</g>
</g>
</svg>
