<svg width="32" height="32" 
    xmlns="http://www.w3.org/2000/svg">

    <g>
        <title>PreviewIcon</title>
        <rect fill="none" id="canvas_background" height="402" width="582" y="-1" x="-1"/>
    </g>
    <g>
        <title>Layer 1</title>
        <polyline id="svg_2" stroke-width="2" stroke-miterlimit="10" stroke-linejoin="round" stroke-linecap="round" stroke="#FFFFFF" points="   649,137.999 675,137.999 675,155.999 661,155.999  " fill="none"/>
        <polyline id="svg_3" stroke-width="2" stroke-miterlimit="10" stroke-linejoin="round" stroke-linecap="round" stroke="#FFFFFF" points="   653,155.999 649,155.999 649,141.999  " fill="none"/>
        <polyline id="svg_4" stroke-width="2" stroke-miterlimit="10" stroke-linejoin="round" stroke-linecap="round" stroke="#FFFFFF" points="   661,156 653,162 653,156  " fill="none"/>
        <path fill="#e78224" id="svg_7" d="m16,25c-4.265,0 -8.301,-1.807 -11.367,-5.088c-0.377,-0.403 -0.355,-1.036 0.048,-1.413c0.404,-0.377 1.036,-0.355 1.414,0.048c2.683,2.872 6.2,4.453 9.905,4.453c4.763,0 9.149,-2.605 11.84,-7c-2.69,-4.395 -7.077,-7 -11.84,-7c-4.938,0 -9.472,2.801 -12.13,7.493c-0.272,0.481 -0.884,0.651 -1.363,0.377c-0.481,-0.272 -0.649,-0.882 -0.377,-1.363c3.017,-5.327 8.203,-8.507 13.87,-8.507c5.668,0 10.853,3.18 13.87,8.507c0.173,0.306 0.173,0.68 0,0.985c-3.017,5.327 -8.202,8.508 -13.87,8.508z"/>
        <path fill="#e78224" id="svg_9" d="m16,21c-2.757,0 -5,-2.243 -5,-5s2.243,-5 5,-5s5,2.243 5,5s-2.243,5 -5,5zm0,-8c-1.654,0 -3,1.346 -3,3s1.346,3 3,3s3,-1.346 3,-3s-1.346,-3 -3,-3z"/>
    </g>
</svg>