<?xml version="1.0" encoding="utf-8"?>
<!-- Generator: Adobe Illustrator 16.0.0, SVG Export Plug-In . SVG Version: 6.00 Build 0)  -->
<!DOCTYPE svg PUBLIC "-//W3C//DTD SVG 1.1//EN" "http://www.w3.org/Graphics/SVG/1.1/DTD/svg11.dtd">
<svg version="1.1" id="Layer_1" xmlns="http://www.w3.org/2000/svg" xmlns:xlink="http://www.w3.org/1999/xlink" x="0px" y="0px"
	 width="19px" height="21px" viewBox="0 0 19 21" enable-background="new 0 0 19 21" xml:space="preserve">
<g>
	<path fill="#817A72" d="M1.546,7.077c0.182,0.6,0.651,1.071,1.252,1.251l4.489,1.354c0.18,0.055,0.362,0.081,0.542,0.081
		c0.804,0,1.547-0.522,1.792-1.332C9.92,7.441,9.36,6.396,8.369,6.097l-0.75-0.226c0.71-0.601,1.935-1.254,3.592-0.726
		c2.733,0.919,2.588,3.75,2.588,3.75c0.022,1.949,2.605,3.015,4.038,1.793c0.947-0.805,0.928-1.6,0.942-1.979
		c0,0-0.088-6.336-6.014-8.278c-0.004-0.001-0.006-0.001-0.01-0.002c-0.002-0.001-0.003-0.001-0.007-0.003
		c-4.084-1.337-7.167,0.646-8.69,2.009l-0.28-0.93c-0.3-0.99-1.343-1.55-2.333-1.252c-0.99,0.299-1.551,1.344-1.252,2.334
		L1.546,7.077z"/>
	<path fill="#817A72" d="M17.346,13.865c-0.183-0.602-0.652-1.069-1.252-1.252l-4.489-1.354c-0.181-0.054-0.361-0.08-0.542-0.08
		c-0.804,0-1.547,0.522-1.792,1.333c-0.299,0.989,0.262,2.035,1.251,2.333l0.751,0.227c-0.71,0.602-1.934,1.254-3.592,0.727
		c-2.733-0.921-2.589-3.752-2.589-3.752c-0.023-1.948-2.605-3.014-4.037-1.793c-0.948,0.806-0.93,1.601-0.943,1.979
		c0,0,0.089,6.337,6.014,8.278c0.004,0,0.007,0,0.01,0.002c0.002,0,0.002,0.002,0.007,0.004c4.083,1.337,7.167-0.647,8.692-2.01
		l0.28,0.928c0.297,0.991,1.342,1.551,2.333,1.254c0.989-0.3,1.551-1.344,1.252-2.333L17.346,13.865z"/>
</g>
</svg>
