<?xml version="1.0" encoding="utf-8"?>
<!-- Generator: Adobe Illustrator 19.0.0, SVG Export Plug-In . SVG Version: 6.00 Build 0)  -->
<svg version="1.0" id="Layer_1" xmlns="http://www.w3.org/2000/svg" xmlns:xlink="http://www.w3.org/1999/xlink" x="0px" y="0px"
	 width="24px" height="25px" viewBox="0 0 24 25" style="enable-background:new 0 0 24 25;" xml:space="preserve">
<g id="XMLID_2_">
	<g id="XMLID_3_">
		<path id="XMLID_8_" style="fill:inherit;" d="M13.6,25h-3.2c-1.2,0-2.1-1-2.1-2.1v-1c-0.9-0.4-1.8-0.9-2.6-1.6l-0.9,0.5
			c-1.1,0.6-2.4,0.1-2.9-0.8l-1.5-2.8c-0.3-0.5-0.3-1.1-0.2-1.6c0.2-0.6,0.5-1,1-1.3L2,13.8c-0.1-0.4-0.1-0.8-0.1-1.3
			c0-0.4,0.1-0.9,0.1-1.3l-0.9-0.5c-1-0.6-1.4-1.9-0.8-2.9L1.8,5c0.5-1,1.9-1.4,2.9-0.8l0.9,0.5C6.4,4,7.3,3.5,8.3,3.1v-1
			C8.3,1,9.2,0,10.4,0h3.2c1.2,0,2.1,1,2.1,2.1v1c0.9,0.4,1.8,0.9,2.6,1.6l0.9-0.5c1.1-0.6,2.4-0.1,2.9,0.8l1.5,2.8
			c0.3,0.5,0.3,1.1,0.2,1.6c-0.2,0.6-0.5,1-1,1.3L22,11.2c0.1,0.4,0.1,0.8,0.1,1.3c0,0.4,0,0.9-0.1,1.3l0.9,0.5
			c0.5,0.3,0.8,0.7,1,1.3c0.2,0.6,0.1,1.1-0.2,1.6L22.2,20c-0.5,1-1.9,1.4-2.9,0.8l-0.9-0.5c-0.8,0.7-1.7,1.2-2.6,1.6v1
			C15.7,24,14.8,25,13.6,25z M5.7,18.1c0.2,0,0.5,0.1,0.7,0.2l0.2,0.2c0.8,0.7,1.7,1.3,2.6,1.6l0.3,0.1c0.4,0.1,0.7,0.5,0.7,0.9v1.7
			c0,0.1,0.1,0.1,0.1,0.1h3.2c0.1,0,0.1-0.1,0.1-0.1v-1.7c0-0.4,0.3-0.8,0.7-0.9l0.3-0.1c0.9-0.3,1.8-0.9,2.7-1.6l0.2-0.2
			c0.3-0.3,0.8-0.3,1.1-0.1l1.5,0.8c0.1,0,0.2,0,0.2-0.1l1.6-2.8c0,0,0-0.1,0-0.1c0,0,0,0,0-0.1l-1.5-0.8c-0.4-0.2-0.6-0.6-0.5-1
			l0.1-0.3c0.1-0.4,0.1-0.9,0.1-1.3c0-0.4-0.1-0.8-0.1-1.3l-0.1-0.3c-0.1-0.4,0.1-0.8,0.5-1L21.9,9c0,0,0,0,0.1-0.1c0,0,0-0.1,0-0.1
			L20.4,6c0,0-0.1-0.1-0.1-0.1l-1.6,0.8c-0.4,0.2-0.8,0.2-1.1-0.1l-0.2-0.2c-0.8-0.7-1.7-1.3-2.7-1.6l-0.3-0.1
			c-0.4-0.1-0.7-0.5-0.7-0.9V2.1c0-0.1-0.1-0.1-0.1-0.1h-3.2c-0.1,0-0.1,0.1-0.1,0.1v1.7c0,0.4-0.3,0.8-0.7,0.9L9.3,4.9
			C8.4,5.2,7.5,5.7,6.6,6.5L6.4,6.7C6.1,6.9,5.6,7,5.3,6.8L3.8,6C3.7,5.9,3.6,6,3.6,6L2,8.8C2,8.9,2,9,2.1,9l1.5,0.8
			c0.4,0.2,0.6,0.6,0.5,1.1L4,11.2c-0.1,0.5-0.1,0.9-0.1,1.3c0,0.4,0.1,0.9,0.1,1.3l0.1,0.3c0.1,0.4-0.1,0.9-0.5,1.1L2.1,16
			C2,16,2,16.1,2,16.2L3.6,19c0,0,0.1,0.1,0.1,0.1l1.6-0.8C5.4,18.1,5.6,18.1,5.7,18.1z M12,18.4c-3.2,0-5.9-2.6-5.9-5.9
			c0-3.2,2.6-5.9,5.9-5.9c3.2,0,5.9,2.6,5.9,5.9C17.9,15.7,15.2,18.4,12,18.4z M12,8.6c-2.1,0-3.9,1.7-3.9,3.9
			c0,2.1,1.7,3.9,3.9,3.9c2.1,0,3.9-1.7,3.9-3.9C15.9,10.4,14.1,8.6,12,8.6z"/>
	</g>
</g>
</svg>
