<?xml version="1.0" encoding="UTF-8"?>
<svg width="275px" height="240px" viewBox="0 0 275 240" version="1.1" xmlns="http://www.w3.org/2000/svg" xmlns:xlink="http://www.w3.org/1999/xlink">
    <!-- Generator: Sketch 47.1 (45422) - http://www.bohemiancoding.com/sketch -->
    <title>ill/sing-up-confirmation</title>
    <desc>Created with Sketch.</desc>
    <defs></defs>
    <g id="Symbols" stroke="none" stroke-width="1" fill="none" fill-rule="evenodd">
        <g id="ill/sing-up-confirmation">
            <g id="Page-1" transform="translate(0.000000, 1.000000)">
                <path d="M44.9818,40.7746 C44.9818,37.7326 47.4478,35.2666 50.4898,35.2666 C53.5318,35.2666 55.9978,37.7326 55.9978,40.7746 C55.9978,43.8166 53.5318,46.2826 50.4898,46.2826 C47.4478,46.2826 44.9818,43.8166 44.9818,40.7746" id="Fill-1" fill="#F4CCA6"></path>
                <path d="M13.3398,197.2036 C13.3398,195.0786 15.0618,193.3566 17.1868,193.3566 C19.3118,193.3566 21.0338,195.0786 21.0338,197.2036 C21.0338,199.3286 19.3118,201.0506 17.1868,201.0506 C15.0618,201.0506 13.3398,199.3286 13.3398,197.2036" id="Fill-3" fill="#F4CCA6"></path>
                <path d="M262.7959,222.7944 C262.7959,220.4304 264.7129,218.5134 267.0769,218.5134 C269.4419,218.5134 271.3579,220.4304 271.3579,222.7944 C271.3579,225.1584 269.4419,227.0754 267.0769,227.0754 C264.7129,227.0754 262.7959,225.1584 262.7959,222.7944" id="Fill-5" fill="#F4CCA6"></path>
                <path d="M9.7959,105.7944 C9.7959,103.4304 11.7129,101.5134 14.0769,101.5134 C16.4419,101.5134 18.3579,103.4304 18.3579,105.7944 C18.3579,108.1584 16.4419,110.0754 14.0769,110.0754 C11.7129,110.0754 9.7959,108.1584 9.7959,105.7944" id="Fill-7" fill="#F4CCA6"></path>
                <path d="M269.3627,150.0824 C269.3627,148.7054 270.4787,147.5894 271.8557,147.5894 C273.2327,147.5894 274.3487,148.7054 274.3487,150.0824 C274.3487,151.4594 273.2327,152.5754 271.8557,152.5754 C270.4787,152.5754 269.3627,151.4594 269.3627,150.0824" id="Fill-9" fill="#F4CCA6"></path>
                <path d="M164.1202,7.9977 C164.1202,5.6997 165.9832,3.8377 168.2802,3.8377 C170.5782,3.8377 172.4412,5.6997 172.4412,7.9977 C172.4412,10.2957 170.5782,12.1577 168.2802,12.1577 C165.9832,12.1577 164.1202,10.2957 164.1202,7.9977" id="Fill-12" fill="#F4CCA6"></path>
                <path d="M242.5101,19.7732 C242.5101,19.7732 245.7611,19.0842 248.2181,16.7002 C250.0281,14.9432 251.1261,11.1572 251.1261,11.1572 C251.1261,11.1572 251.7301,14.5592 253.9781,16.6432 C256.0001,18.5192 259.7421,19.7732 259.7421,19.7732 C259.7421,19.7732 256.5691,20.1452 254.1991,22.6812 C251.8401,25.2072 251.1261,28.3892 251.1261,28.3892 C251.1261,28.3892 250.0281,24.3842 248.2241,22.8522 C245.6721,20.6862 242.5101,19.7732 242.5101,19.7732" id="Fill-14" fill="#F4CCA6"></path>
                <path d="M12.4178,58.1432 C12.4178,58.1432 15.6688,57.4542 18.1258,55.0702 C19.9358,53.3132 21.0338,49.5272 21.0338,49.5272 C21.0338,49.5272 21.6378,52.9292 23.8858,55.0132 C25.9078,56.8892 29.6498,58.1432 29.6498,58.1432 C29.6498,58.1432 26.4768,58.5152 24.1068,61.0512 C21.7478,63.5772 21.0338,66.7592 21.0338,66.7592 C21.0338,66.7592 19.9358,62.7532 18.1318,61.2222 C15.5798,59.0562 12.4178,58.1432 12.4178,58.1432" id="Fill-16" fill="#F4CCA6"></path>
                <path d="M17.8875,231.472 C17.8875,231.472 19.5465,231.12 20.7995,229.904 C21.7235,229.007 22.2835,227.076 22.2835,227.076 C22.2835,227.076 22.5915,228.811 23.7395,229.875 C24.7705,230.832 26.6805,231.472 26.6805,231.472 C26.6805,231.472 25.0615,231.662 23.8515,232.956 C22.6475,234.245 22.2835,235.868 22.2835,235.868 C22.2835,235.868 21.7235,233.825 20.8025,233.043 C19.5005,231.938 17.8875,231.472 17.8875,231.472" id="Fill-18" fill="#F4CCA6"></path>
                <path d="M249.2023,118.8331 C249.2023,118.8331 250.1253,117.4131 250.1513,115.6691 C250.1713,114.3841 249.2023,112.6241 249.2023,112.6241 C249.2023,112.6241 250.6453,113.6321 252.2063,113.5731 C253.6113,113.5201 255.4113,112.6241 255.4113,112.6241 C255.4113,112.6241 254.4023,113.9011 254.4623,115.6691 C254.5213,117.4291 255.4113,118.8331 255.4113,118.8331 C255.4113,118.8331 253.5723,117.7851 252.3703,117.8841 C250.6703,118.0231 249.2023,118.8331 249.2023,118.8331" id="Fill-20" fill="#F4CCA6"></path>
                <path d="M17.9293,140.6692 C17.9293,140.6692 18.8523,139.2492 18.8783,137.5052 C18.8983,136.2202 17.9293,134.4602 17.9293,134.4602 C17.9293,134.4602 19.3723,135.4682 20.9333,135.4092 C22.3383,135.3562 24.1383,134.4602 24.1383,134.4602 C24.1383,134.4602 23.1293,135.7372 23.1893,137.5052 C23.2483,139.2652 24.1383,140.6692 24.1383,140.6692 C24.1383,140.6692 22.2993,139.6212 21.0973,139.7202 C19.3973,139.8592 17.9293,140.6692 17.9293,140.6692" id="Fill-22" fill="#F4CCA6"></path>
                <path d="M219.6376,23.6203 C219.6376,23.6203 220.5606,22.2003 220.5866,20.4563 C220.6066,19.1713 219.6376,17.4113 219.6376,17.4113 C219.6376,17.4113 221.0806,18.4193 222.6416,18.3603 C224.0466,18.3073 225.8466,17.4113 225.8466,17.4113 C225.8466,17.4113 224.8376,18.6883 224.8976,20.4563 C224.9566,22.2163 225.8466,23.6203 225.8466,23.6203 C225.8466,23.6203 224.0076,22.5723 222.8056,22.6713 C221.1056,22.8103 219.6376,23.6203 219.6376,23.6203" id="Fill-24" fill="#F4CCA6"></path>
                <path d="M0,168.3295 C0,168.3295 0.923,166.9095 0.949,165.1655 C0.969,163.8805 0,162.1205 0,162.1205 C0,162.1205 1.443,163.1285 3.004,163.0695 C4.409,163.0165 6.209,162.1205 6.209,162.1205 C6.209,162.1205 5.2,163.3975 5.26,165.1655 C5.319,166.9255 6.209,168.3295 6.209,168.3295 C6.209,168.3295 4.37,167.2815 3.168,167.3805 C1.468,167.5195 0,168.3295 0,168.3295" id="Fill-26" fill="#F4CCA6"></path>
                <path d="M87.0247,7.5883 C87.0247,7.5883 89.8107,9.3993 93.2337,9.4513 C95.7567,9.4893 99.2097,7.5883 99.2097,7.5883 C99.2097,7.5883 97.2307,10.4203 97.3467,13.4843 C97.4507,16.2403 99.2097,19.7733 99.2097,19.7733 C99.2097,19.7733 96.7037,17.7923 93.2337,17.9103 C89.7797,18.0273 87.0247,19.7733 87.0247,19.7733 C87.0247,19.7733 89.0807,16.1643 88.8877,13.8053 C88.6147,10.4693 87.0247,7.5883 87.0247,7.5883" id="Fill-28" fill="#F4CCA6"></path>
                <path d="M251.1261,61.4842 C251.1261,61.4842 253.0641,61.0732 254.5281,59.6522 C255.6081,58.6052 256.2621,56.3482 256.2621,56.3482 C256.2621,56.3482 256.6221,58.3762 257.9621,59.6182 C259.1681,60.7362 261.3991,61.4842 261.3991,61.4842 C261.3991,61.4842 259.5071,61.7062 258.0941,63.2182 C256.6881,64.7232 256.2621,66.6202 256.2621,66.6202 C256.2621,66.6202 255.6081,64.2322 254.5321,63.3202 C253.0111,62.0282 251.1261,61.4842 251.1261,61.4842" id="Fill-30" fill="#F4CCA6"></path>
                <path d="M67.6656,4.9518 C67.6656,4.9518 69.5336,4.5558 70.9456,3.1858 C71.9866,2.1758 72.6176,-0.0002 72.6176,-0.0002 C72.6176,-0.0002 72.9646,1.9548 74.2566,3.1528 C75.4186,4.2308 77.5686,4.9518 77.5686,4.9518 C77.5686,4.9518 75.7456,5.1658 74.3836,6.6228 C73.0276,8.0748 72.6176,9.9038 72.6176,9.9038 C72.6176,9.9038 71.9866,7.6018 70.9496,6.7218 C69.4826,5.4768 67.6656,4.9518 67.6656,4.9518" id="Fill-32" fill="#F4CCA6"></path>
                <path d="M247.3552,183.1203 C247.3552,183.1203 249.2232,182.7243 250.6352,181.3543 C251.6762,180.3443 252.3072,178.1683 252.3072,178.1683 C252.3072,178.1683 252.6542,180.1233 253.9462,181.3213 C255.1082,182.3993 257.2582,183.1203 257.2582,183.1203 C257.2582,183.1203 255.4352,183.3343 254.0732,184.7913 C252.7172,186.2433 252.3072,188.0723 252.3072,188.0723 C252.3072,188.0723 251.6762,185.7703 250.6392,184.8903 C249.1722,183.6453 247.3552,183.1203 247.3552,183.1203" id="Fill-35" fill="#F4CCA6"></path>
                <path d="M236.6255,113.2335 L236.6255,219.8565 C236.6255,230.1135 228.2985,238.4395 217.9415,238.4395 L59.5295,238.4395 C49.1715,238.4395 40.8445,230.1135 40.8445,219.8565 L40.8445,113.2335 L236.6255,113.2335 Z" id="Fill-37" fill="#D1CBE3"></path>
                <path d="M236.6255,113.2335 L236.6255,219.8565 C236.6255,230.1135 228.2985,238.4395 217.9415,238.4395 L59.5295,238.4395 C49.1715,238.4395 40.8445,230.1135 40.8445,219.8565 L40.8445,113.2335 L236.6255,113.2335 Z" id="Stroke-39" stroke="#8D7EBA" stroke-width="3.552" stroke-linecap="round" stroke-linejoin="round"></path>
                <path d="M236.6255,112.5226 L151.5295,20.8146 C140.9695,12.9956 135.5875,12.9956 125.2295,20.8146 L40.9465,112.6246" id="Fill-41" fill="#F3F1F7"></path>
                <path d="M236.6255,112.5226 L151.5295,20.8146 C140.9695,12.9956 135.5875,12.9956 125.2295,20.8146 L40.9465,112.6246" id="Stroke-43" stroke="#8D7EBA" stroke-width="3.629" stroke-linecap="round" stroke-linejoin="round"></path>
                <path d="M216.5814,40.5775 L86.2354,40.5775 L48.8304,75.9395 L48.8304,207.7195 C48.8304,214.8515 54.6114,220.6335 61.7444,220.6335 L216.5814,220.6335 C223.7134,220.6335 229.4954,214.8515 229.4954,207.7195 L229.4954,53.4915 C229.4954,46.3595 223.7134,40.5775 216.5814,40.5775" id="Fill-45" fill="#FCF2E8"></path>
                <path d="M216.5814,40.5775 L86.2354,40.5775 L48.8304,75.9395 L48.8304,207.7195 C48.8304,214.8515 54.6114,220.6335 61.7444,220.6335 L216.5814,220.6335 C223.7134,220.6335 229.4954,214.8515 229.4954,207.7195 L229.4954,53.4915 C229.4954,46.3595 223.7134,40.5775 216.5814,40.5775 Z" id="Stroke-47" stroke="#E68222" stroke-width="1.922" stroke-linecap="round" stroke-linejoin="round"></path>
                <path d="M86.2356,61.3076 L86.2356,40.5776 L48.8306,75.7086 L71.8346,75.7086 C79.7876,75.7086 86.2356,69.2616 86.2356,61.3076" id="Fill-49" fill="#F9E5D2"></path>
                <path d="M86.2356,61.3076 L86.2356,40.5776 L48.8306,75.7086 L71.8346,75.7086 C79.7876,75.7086 86.2356,69.2616 86.2356,61.3076 Z" id="Stroke-51" stroke="#E68222" stroke-width="1.922" stroke-linecap="round" stroke-linejoin="round"></path>
                <path d="M72.6171,105.5648 L113.6171,105.5648" id="Stroke-53" stroke="#E68222" stroke-width="3" stroke-linecap="round" stroke-linejoin="round"></path>
                <path d="M72.6171,85.5648 L93.6171,85.5648" id="Stroke-55" stroke="#E68222" stroke-width="3" stroke-linecap="round" stroke-linejoin="round"></path>
                <path d="M120.6171,105.5648 L151.6171,105.5648" id="Stroke-57" stroke="#E68222" stroke-width="3" stroke-linecap="round" stroke-linejoin="round"></path>
                <path d="M158.6171,105.5648 L204.6171,105.5648" id="Stroke-59" stroke="#E68222" stroke-width="3" stroke-linecap="round" stroke-linejoin="round"></path>
                <path d="M72.6171,121.5648 L113.6171,121.5648" id="Stroke-61" stroke="#E68222" stroke-width="3" stroke-linecap="round" stroke-linejoin="round"></path>
                <path d="M120.6171,121.5648 L151.6171,121.5648" id="Stroke-63" stroke="#E68222" stroke-width="3" stroke-linecap="round" stroke-linejoin="round"></path>
                <path d="M158.6171,121.5648 L204.6171,121.5648" id="Stroke-65" stroke="#E68222" stroke-width="3" stroke-linecap="round" stroke-linejoin="round"></path>
                <path d="M72.6171,137.5648 L113.6171,137.5648" id="Stroke-67" stroke="#E68222" stroke-width="3" stroke-linecap="round" stroke-linejoin="round"></path>
                <path d="M120.6171,137.5648 L151.6171,137.5648" id="Stroke-69" stroke="#E68222" stroke-width="3" stroke-linecap="round" stroke-linejoin="round"></path>
                <path d="M158.6171,137.5648 L204.6171,137.5648" id="Stroke-71" stroke="#E68222" stroke-width="3" stroke-linecap="round" stroke-linejoin="round"></path>
                <path d="M72.6171,153.5648 L113.6171,153.5648" id="Stroke-73" stroke="#E68222" stroke-width="3" stroke-linecap="round" stroke-linejoin="round"></path>
                <path d="M120.6171,153.5648 L151.6171,153.5648" id="Stroke-75" stroke="#E68222" stroke-width="3" stroke-linecap="round" stroke-linejoin="round"></path>
                <path d="M158.6171,153.5648 L204.6171,153.5648" id="Stroke-77" stroke="#E68222" stroke-width="3" stroke-linecap="round" stroke-linejoin="round"></path>
                <path d="M236.6255,113.2335 L236.6255,219.8565 C236.6255,230.1135 228.2985,238.4395 217.9415,238.4395 L59.5295,238.4395 C49.1715,238.4395 40.8445,230.1135 40.8445,219.8565 L40.8445,113.2335 L138.7355,187.5655 L236.6255,113.2335 Z" id="Fill-79" fill="#DCD8EA"></path>
                <path d="M236.6255,113.2335 L236.6255,219.8565 C236.6255,230.1135 228.2985,238.4395 217.9415,238.4395 L59.5295,238.4395 C49.1715,238.4395 40.8445,230.1135 40.8445,219.8565 L40.8445,113.2335 L138.7355,187.5655 L236.6255,113.2335 Z" id="Stroke-81" stroke="#8D7EBA" stroke-width="2" stroke-linecap="round" stroke-linejoin="round"></path>
                <path d="M45.4143,231.9408 C48.8673,235.9008 53.9443,238.4398 59.6303,238.4398 L217.9413,238.4398 C223.9323,238.4398 229.3143,235.5968 232.7663,231.2298 L138.8363,165.2248 L45.4143,231.9408 Z" id="Fill-83" fill="#E7E4F0"></path>
                <path d="M45.4143,231.9408 C48.8673,235.9008 53.9443,238.4398 59.6303,238.4398 L217.9413,238.4398 C223.9323,238.4398 229.3143,235.5968 232.7663,231.2298 L138.8363,165.2248 L45.4143,231.9408 Z" id="Stroke-85" stroke="#8D7EBA" stroke-width="2" stroke-linecap="round" stroke-linejoin="round"></path>
            </g>
        </g>
    </g>
</svg>