<?xml version="1.0" encoding="utf-8"?>
<!-- Generator: Adobe Illustrator 16.0.0, SVG Export Plug-In . SVG Version: 6.00 Build 0)  -->
<!DOCTYPE svg PUBLIC "-//W3C//DTD SVG 1.1//EN" "http://www.w3.org/Graphics/SVG/1.1/DTD/svg11.dtd">
<svg version="1.1" id="Layer_1" xmlns="http://www.w3.org/2000/svg" xmlns:xlink="http://www.w3.org/1999/xlink" x="0px" y="0px"
	 width="24px" height="24px" viewBox="0 0 24 24" enable-background="new 0 0 24 24" xml:space="preserve">
<g>
	<g>
		<path fill="#E78224" d="M19.265,19.909h-3.329c-0.505,0-0.914-0.409-0.914-0.913c0-0.505,0.409-0.914,0.914-0.914h3.329
			c1.466,0,2.659-1.191,2.659-2.657v-0.204c0-1.373-1.062-2.543-2.416-2.663c-0.471-0.041-0.833-0.437-0.833-0.91v-0.405
			c0-3.544-2.851-6.395-6.354-6.395c-3.048,0-5.603,2.043-6.253,4.969c-0.087,0.391-0.417,0.679-0.815,0.712
			c-1.921,0.163-3.426,1.777-3.426,3.678v0.162c0,2.025,1.647,3.673,3.673,3.673h3.127c0.505,0,0.913,0.409,0.913,0.914
			c0,0.504-0.408,0.913-0.913,0.913H5.5c-3.032,0-5.5-2.467-5.5-5.5v-0.162c0-2.622,1.906-4.88,4.446-5.404
			c1.043-3.434,4.179-5.781,7.834-5.781c4.446,0,8.052,3.501,8.217,7.868c1.902,0.535,3.253,2.271,3.253,4.332v0.204
			C23.75,17.897,21.738,19.909,19.265,19.909z"/>
	</g>
	<g>
		<path fill="#E78224" d="M15.002,16.805c-0.159,0-0.318-0.062-0.438-0.186l-2.266-2.345l-2.311,2.273
			c-0.24,0.236-0.625,0.234-0.862-0.007c-0.235-0.24-0.232-0.626,0.007-0.861l2.436-2.396c0.277-0.274,0.71-0.347,1.102-0.19
			c0.169,0.046,0.315,0.145,0.403,0.231l2.366,2.447c0.233,0.242,0.228,0.627-0.016,0.861
			C15.307,16.747,15.154,16.805,15.002,16.805z"/>
	</g>
	<g>
		<path fill="#E78224" d="M12.28,22c-0.336,0-0.609-0.272-0.609-0.608v-7.633c0-0.336,0.273-0.608,0.609-0.608
			c0.337,0,0.609,0.272,0.609,0.608v7.633C12.89,21.728,12.617,22,12.28,22z"/>
	</g>
</g>
</svg>
