<svg xmlns="http://www.w3.org/2000/svg" viewBox="0 0 26.01 24.17"><defs><style>.cls-1{fill:#e1a059;}</style></defs><g id="Layer_2" data-name="Layer 2"><g id="Layer_1-2" data-name="Layer 1"><path class="cls-1" d="M13,12a6,6,0,1,1,6-6A6,6,0,0,1,13,12ZM13,2a4,4,0,1,0,4,4A4,4,0,0,0,13,2Z"/><path class="cls-1" d="M24,24.17H2.05a2,2,0,0,1-1.5-.66A2.14,2.14,0,0,1,0,21.9a12.8,12.8,0,0,1,1.72-5.42,10,10,0,0,1,5.34-4.25,1.71,1.71,0,0,1,1.63.29A6.79,6.79,0,0,0,13,13.74a7,7,0,0,0,4.22-1.15,2,2,0,0,1,1.89-.3,9.93,9.93,0,0,1,5.16,4.19h0A12.69,12.69,0,0,1,26,21.9a2.11,2.11,0,0,1-.55,1.61A2,2,0,0,1,24,24.17Zm-16.39-10a8,8,0,0,0-4.12,3.34A10.67,10.67,0,0,0,2,22.07l0,.1H24l.05-.1a10.82,10.82,0,0,0-1.45-4.56,8.05,8.05,0,0,0-4.12-3.34A9,9,0,0,1,13,15.74,8.82,8.82,0,0,1,7.57,14.17Zm-.12-.09Z"/></g></g></svg>