<?xml version="1.0" encoding="utf-8"?>
<!-- Generator: Adobe Illustrator 19.0.0, SVG Export Plug-In . SVG Version: 6.00 Build 0)  -->
<svg version="1.1" id="Layer_1" xmlns="http://www.w3.org/2000/svg" xmlns:xlink="http://www.w3.org/1999/xlink" x="0px" y="0px"
	 width="80px" height="55px" viewBox="0 0 80 55" enable-background="new 0 0 80 55" xml:space="preserve">
<g>
	<polygon fill="#005A9C" points="78,54 2,54 0.6,54 0.6,52.7 0.6,2.3 0.6,1 2,1 78,1 79.4,1 79.4,2.3 79.4,52.7 79.4,54 78,54 	"/>
	<polygon fill-rule="evenodd" clip-rule="evenodd" fill="#FFFFFF" points="78,52.7 2,52.7 2,2.3 78,2.3 78,52.7 	"/>
	<polygon fill-rule="evenodd" clip-rule="evenodd" fill="#005A9C" points="29.5,35.7 34.4,19.4 38.8,19.4 33.9,35.7 29.5,35.7 	"/>
	<path fill-rule="evenodd" clip-rule="evenodd" fill="#005A9C" d="M27.5,19.4l-4,6.9c-1,1.8-1.6,2.7-1.9,3.9h-0.1
		c0.1-1.4-0.1-3.2-0.2-4.2L21,19.4h-7.4l-0.1,0.4c1.9,0,3,1,3.3,2.9l1.4,12.9h4.6l9.2-16.3H27.5L27.5,19.4z"/>
	<path fill-rule="evenodd" clip-rule="evenodd" fill="#005A9C" d="M61.8,35.7l-0.1-2.4l-5.5,0L55,35.7h-4.8l8.7-16.3h5.9l1.5,16.3
		H61.8L61.8,35.7z M61.3,26.1c0-1.2-0.1-2.8,0-3.8h-0.1c-0.3,0.8-1.4,3.2-1.9,4.4l-1.6,3.6h3.9L61.3,26.1L61.3,26.1z"/>
	<path fill-rule="evenodd" clip-rule="evenodd" fill="#005A9C" d="M43.4,36.1c-3.1,0-5.2-1-6.7-1.9l2.1-3.2c1.3,0.7,2.4,1.6,4.8,1.6
		c0.8,0,1.5-0.2,1.9-0.9c0.6-1.1-0.1-1.6-1.9-2.6l-0.9-0.6c-2.6-1.7-3.7-3.4-2.5-6.3c0.8-1.8,2.8-3.3,6.1-3.3c2.3,0,4.5,1,5.7,2
		l-2.4,2.8c-1.2-1-2.2-1.5-3.4-1.5c-0.9,0-1.6,0.4-1.9,0.8c-0.5,0.9,0.1,1.5,1.5,2.4l1,0.6c3.1,2,3.8,4,3.1,5.9
		C48.8,35.4,46.2,36.1,43.4,36.1L43.4,36.1z"/>
	<polygon fill-rule="evenodd" clip-rule="evenodd" fill="#FBAA29" points="76.2,40.7 4,40.7 4,50.4 76.2,50.4 76.2,40.7 	"/>
	<polygon fill-rule="evenodd" clip-rule="evenodd" fill="#005A9C" points="76,4.7 3.8,4.7 3.8,14.4 76,14.4 76,4.7 	"/>
</g>
</svg>
